G04 #@! TF.FileFunction,Legend,Top*
%FSLAX46Y46*%
G04 Gerber Fmt 4.6, Leading zero omitted, Abs format (unit mm)*
G04 Created by KiCad (PCBNEW 4.0.7) date 07/31/18 08:33:26*
%MOMM*%
%LPD*%
G01*
G04 APERTURE LIST*
%ADD10C,0.100000*%
%ADD11C,0.250000*%
%ADD12C,0.200000*%
%ADD13C,2.686000*%
%ADD14R,2.000000X2.000000*%
%ADD15C,2.000000*%
%ADD16R,1.750000X1.750000*%
%ADD17O,1.750000X1.750000*%
%ADD18C,1.924000*%
G04 APERTURE END LIST*
D10*
D11*
X201267856Y-107284762D02*
X200720236Y-106332381D01*
X200124998Y-107284762D02*
X200374998Y-105284762D01*
X201136903Y-105284762D01*
X201315474Y-105380000D01*
X201398808Y-105475238D01*
X201470237Y-105665714D01*
X201434522Y-105951429D01*
X201315475Y-106141905D01*
X201208331Y-106237143D01*
X201005950Y-106332381D01*
X200244045Y-106332381D01*
X202898808Y-107189524D02*
X202696427Y-107284762D01*
X202315475Y-107284762D01*
X202136903Y-107189524D01*
X202065474Y-106999048D01*
X202160712Y-106237143D01*
X202279760Y-106046667D01*
X202482141Y-105951429D01*
X202863093Y-105951429D01*
X203041665Y-106046667D01*
X203113093Y-106237143D01*
X203089284Y-106427619D01*
X202113093Y-106618095D01*
X204124999Y-107284762D02*
X203946428Y-107189524D01*
X203874998Y-106999048D01*
X204089284Y-105284762D01*
X205660713Y-107189524D02*
X205458332Y-107284762D01*
X205077380Y-107284762D01*
X204898808Y-107189524D01*
X204827379Y-106999048D01*
X204922617Y-106237143D01*
X205041665Y-106046667D01*
X205244046Y-105951429D01*
X205624998Y-105951429D01*
X205803570Y-106046667D01*
X205874998Y-106237143D01*
X205851189Y-106427619D01*
X204874998Y-106618095D01*
X207458332Y-107284762D02*
X207589284Y-106237143D01*
X207517856Y-106046667D01*
X207339284Y-105951429D01*
X206958332Y-105951429D01*
X206755951Y-106046667D01*
X207470237Y-107189524D02*
X207267856Y-107284762D01*
X206791666Y-107284762D01*
X206613094Y-107189524D01*
X206541665Y-106999048D01*
X206565475Y-106808571D01*
X206684522Y-106618095D01*
X206886904Y-106522857D01*
X207363094Y-106522857D01*
X207565475Y-106427619D01*
X208327380Y-107189524D02*
X208505952Y-107284762D01*
X208886904Y-107284762D01*
X209089285Y-107189524D01*
X209208332Y-106999048D01*
X209220237Y-106903810D01*
X209148808Y-106713333D01*
X208970237Y-106618095D01*
X208684523Y-106618095D01*
X208505951Y-106522857D01*
X208434522Y-106332381D01*
X208446427Y-106237143D01*
X208565475Y-106046667D01*
X208767856Y-105951429D01*
X209053570Y-105951429D01*
X209232142Y-106046667D01*
X210803571Y-107189524D02*
X210601190Y-107284762D01*
X210220238Y-107284762D01*
X210041666Y-107189524D01*
X209970237Y-106999048D01*
X210065475Y-106237143D01*
X210184523Y-106046667D01*
X210386904Y-105951429D01*
X210767856Y-105951429D01*
X210946428Y-106046667D01*
X211017856Y-106237143D01*
X210994047Y-106427619D01*
X210017856Y-106618095D01*
X212601190Y-107284762D02*
X212851190Y-105284762D01*
X212613095Y-107189524D02*
X212410714Y-107284762D01*
X212029762Y-107284762D01*
X211851191Y-107189524D01*
X211767856Y-107094286D01*
X211696428Y-106903810D01*
X211767856Y-106332381D01*
X211886904Y-106141905D01*
X211994048Y-106046667D01*
X212196428Y-105951429D01*
X212577380Y-105951429D01*
X212755952Y-106046667D01*
X216101190Y-105951429D02*
X215934524Y-107284762D01*
X215244047Y-105951429D02*
X215113095Y-106999048D01*
X215184525Y-107189524D01*
X215363096Y-107284762D01*
X215648810Y-107284762D01*
X215851191Y-107189524D01*
X215958333Y-107094286D01*
X217053571Y-105951429D02*
X216886905Y-107284762D01*
X217029762Y-106141905D02*
X217136906Y-106046667D01*
X217339286Y-105951429D01*
X217625000Y-105951429D01*
X217803572Y-106046667D01*
X217875000Y-106237143D01*
X217744048Y-107284762D01*
X219553572Y-107284762D02*
X219803572Y-105284762D01*
X219565477Y-107189524D02*
X219363096Y-107284762D01*
X218982144Y-107284762D01*
X218803573Y-107189524D01*
X218720238Y-107094286D01*
X218648810Y-106903810D01*
X218720238Y-106332381D01*
X218839286Y-106141905D01*
X218946430Y-106046667D01*
X219148810Y-105951429D01*
X219529762Y-105951429D01*
X219708334Y-106046667D01*
X221279763Y-107189524D02*
X221077382Y-107284762D01*
X220696430Y-107284762D01*
X220517858Y-107189524D01*
X220446429Y-106999048D01*
X220541667Y-106237143D01*
X220660715Y-106046667D01*
X220863096Y-105951429D01*
X221244048Y-105951429D01*
X221422620Y-106046667D01*
X221494048Y-106237143D01*
X221470239Y-106427619D01*
X220494048Y-106618095D01*
X222220239Y-107284762D02*
X222386905Y-105951429D01*
X222339286Y-106332381D02*
X222458335Y-106141905D01*
X222565478Y-106046667D01*
X222767858Y-105951429D01*
X222958334Y-105951429D01*
X226148811Y-107094286D02*
X226041669Y-107189524D01*
X225744049Y-107284762D01*
X225553573Y-107284762D01*
X225279764Y-107189524D01*
X225113097Y-106999048D01*
X225041668Y-106808571D01*
X224994049Y-106427619D01*
X225029763Y-106141905D01*
X225172620Y-105760952D01*
X225291669Y-105570476D01*
X225505954Y-105380000D01*
X225803573Y-105284762D01*
X225994049Y-105284762D01*
X226267859Y-105380000D01*
X226351192Y-105475238D01*
X228148811Y-107094286D02*
X228041669Y-107189524D01*
X227744049Y-107284762D01*
X227553573Y-107284762D01*
X227279764Y-107189524D01*
X227113097Y-106999048D01*
X227041668Y-106808571D01*
X226994049Y-106427619D01*
X227029763Y-106141905D01*
X227172620Y-105760952D01*
X227291669Y-105570476D01*
X227505954Y-105380000D01*
X227803573Y-105284762D01*
X227994049Y-105284762D01*
X228267859Y-105380000D01*
X228351192Y-105475238D01*
X231303573Y-106237143D02*
X231577382Y-106332381D01*
X231660717Y-106427619D01*
X231732145Y-106618095D01*
X231696431Y-106903810D01*
X231577383Y-107094286D01*
X231470240Y-107189524D01*
X231267859Y-107284762D01*
X230505954Y-107284762D01*
X230755954Y-105284762D01*
X231422621Y-105284762D01*
X231601192Y-105380000D01*
X231684525Y-105475238D01*
X231755955Y-105665714D01*
X231732145Y-105856190D01*
X231613097Y-106046667D01*
X231505954Y-106141905D01*
X231303573Y-106237143D01*
X230636906Y-106237143D01*
X233005954Y-106332381D02*
X232886907Y-107284762D01*
X232470240Y-105284762D02*
X233005954Y-106332381D01*
X233803574Y-105284762D01*
X234315478Y-106522857D02*
X235839288Y-106522857D01*
X236613097Y-107189524D02*
X236886907Y-107284762D01*
X237363097Y-107284762D01*
X237565478Y-107189524D01*
X237672620Y-107094286D01*
X237791669Y-106903810D01*
X237815478Y-106713333D01*
X237744049Y-106522857D01*
X237660716Y-106427619D01*
X237482144Y-106332381D01*
X237113097Y-106237143D01*
X236934526Y-106141905D01*
X236851192Y-106046667D01*
X236779763Y-105856190D01*
X236803573Y-105665714D01*
X236922620Y-105475238D01*
X237029764Y-105380000D01*
X237232145Y-105284762D01*
X237708335Y-105284762D01*
X237982145Y-105380000D01*
X238577382Y-106713333D02*
X239529763Y-106713333D01*
X238315478Y-107284762D02*
X239232145Y-105284762D01*
X239648812Y-107284762D01*
X242863097Y-105951429D02*
X242696431Y-107284762D01*
X242482146Y-105189524D02*
X241827383Y-106618095D01*
X243065479Y-106618095D01*
X243767859Y-107094286D02*
X243851194Y-107189524D01*
X243744050Y-107284762D01*
X243660717Y-107189524D01*
X243767859Y-107094286D01*
X243744050Y-107284762D01*
X245327384Y-105284762D02*
X245517860Y-105284762D01*
X245696431Y-105380000D01*
X245779764Y-105475238D01*
X245851193Y-105665714D01*
X245898813Y-106046667D01*
X245839289Y-106522857D01*
X245696431Y-106903810D01*
X245577383Y-107094286D01*
X245470241Y-107189524D01*
X245267860Y-107284762D01*
X245077384Y-107284762D01*
X244898813Y-107189524D01*
X244815479Y-107094286D01*
X244744050Y-106903810D01*
X244696431Y-106522857D01*
X244755955Y-106046667D01*
X244898812Y-105665714D01*
X245017860Y-105475238D01*
X245125003Y-105380000D01*
X245327384Y-105284762D01*
D12*
X143737777Y-41180320D02*
X143925908Y-41150523D01*
X144016835Y-41039696D01*
X144060726Y-40936320D01*
X144145371Y-40633637D01*
X144179843Y-40242476D01*
X144154720Y-39475053D01*
X144101406Y-39290647D01*
X144051233Y-39202168D01*
X143954028Y-39121139D01*
X143765896Y-39150936D01*
X143674971Y-39261762D01*
X143631078Y-39365139D01*
X143590326Y-39564444D01*
X143606028Y-40044084D01*
X143659341Y-40228490D01*
X143709515Y-40316969D01*
X143806720Y-40397998D01*
X143994852Y-40368201D01*
X144085777Y-40257375D01*
X144129669Y-40153998D01*
X144170422Y-39954693D01*
X144678433Y-41031335D02*
X144866564Y-41001538D01*
X144957490Y-40890711D01*
X145001382Y-40787334D01*
X145086027Y-40484651D01*
X145120498Y-40093491D01*
X145095376Y-39326068D01*
X145042062Y-39141662D01*
X144991889Y-39053183D01*
X144894683Y-38972154D01*
X144706552Y-39001951D01*
X144615626Y-39112777D01*
X144571734Y-39216154D01*
X144530982Y-39415459D01*
X144546683Y-39895099D01*
X144599996Y-40079505D01*
X144650170Y-40167984D01*
X144747376Y-40249013D01*
X144935508Y-40219216D01*
X145026433Y-40108390D01*
X145070325Y-40005013D01*
X145111077Y-39805708D01*
X145619089Y-40882349D02*
X145807219Y-40852552D01*
X145898146Y-40741726D01*
X145942038Y-40638349D01*
X146026683Y-40335666D01*
X146061154Y-39944506D01*
X146036031Y-39177083D01*
X145982717Y-38992676D01*
X145932545Y-38904198D01*
X145835339Y-38823169D01*
X145647207Y-38852966D01*
X145556282Y-38963792D01*
X145512389Y-39067169D01*
X145471638Y-39266474D01*
X145487339Y-39746114D01*
X145540652Y-39930520D01*
X145590826Y-40018998D01*
X145688031Y-40100028D01*
X145876163Y-40070231D01*
X145967089Y-39959404D01*
X146010980Y-39856027D01*
X146051733Y-39656723D01*
D11*
X108519347Y-71445238D02*
X105947919Y-71445238D01*
X107233633Y-71445238D02*
X107771133Y-67145238D01*
X107265777Y-67759524D01*
X106786014Y-68169048D01*
X106331848Y-68373810D01*
X119044942Y-71240476D02*
X118590775Y-71445238D01*
X117733632Y-71445238D01*
X117330657Y-71240476D01*
X117167561Y-70830952D01*
X117372323Y-69192857D01*
X117637799Y-68783333D01*
X118091966Y-68578571D01*
X118949109Y-68578571D01*
X119352084Y-68783333D01*
X119515180Y-69192857D01*
X119463989Y-69602381D01*
X117269942Y-70011905D01*
X123449109Y-68578571D02*
X123090775Y-71445238D01*
X122582442Y-66940476D02*
X121127085Y-70011905D01*
X123912799Y-70011905D01*
X134259227Y-71240476D02*
X133805060Y-71445238D01*
X132947917Y-71445238D01*
X132544941Y-71240476D01*
X132356251Y-71035714D01*
X132193155Y-70626190D01*
X132346727Y-69397619D01*
X132612203Y-68988095D01*
X132852083Y-68783333D01*
X133306251Y-68578571D01*
X134163394Y-68578571D01*
X134566369Y-68783333D01*
X138842560Y-67145238D02*
X136699703Y-67145238D01*
X136229465Y-69192857D01*
X136469346Y-68988095D01*
X136923512Y-68783333D01*
X137994941Y-68783333D01*
X138397917Y-68988095D01*
X138586608Y-69192857D01*
X138749702Y-69602381D01*
X138621726Y-70626190D01*
X138356251Y-71035714D01*
X138116370Y-71240476D01*
X137662203Y-71445238D01*
X136590774Y-71445238D01*
X136187799Y-71240476D01*
X135999108Y-71035714D01*
X147577083Y-67554762D02*
X147816964Y-67350000D01*
X148271130Y-67145238D01*
X149342559Y-67145238D01*
X149745535Y-67350000D01*
X149934226Y-67554762D01*
X150097320Y-67964286D01*
X150046130Y-68373810D01*
X149755059Y-68988095D01*
X146876487Y-71445238D01*
X149662201Y-71445238D01*
X158447915Y-71445238D02*
X158985415Y-67145238D01*
X161019343Y-71445238D01*
X161556843Y-67145238D01*
X162877677Y-68578571D02*
X164591963Y-68578571D01*
X163162201Y-71445238D02*
X163622916Y-67759524D01*
X163888391Y-67350000D01*
X164342558Y-67145238D01*
X164771129Y-67145238D01*
X165842558Y-67145238D02*
X168628272Y-67145238D01*
X166923510Y-68783333D01*
X167566368Y-68783333D01*
X167969344Y-68988095D01*
X168158035Y-69192857D01*
X168321129Y-69602381D01*
X168193153Y-70626190D01*
X167927678Y-71035714D01*
X167687797Y-71240476D01*
X167233630Y-71445238D01*
X165947915Y-71445238D01*
X165544940Y-71240476D01*
X165356249Y-71035714D01*
X178616367Y-71240476D02*
X178162200Y-71445238D01*
X177305057Y-71445238D01*
X176902082Y-71240476D01*
X176738986Y-70830952D01*
X176943748Y-69192857D01*
X177209224Y-68783333D01*
X177663391Y-68578571D01*
X178520534Y-68578571D01*
X178923509Y-68783333D01*
X179086605Y-69192857D01*
X179035414Y-69602381D01*
X176841367Y-70011905D01*
X183199700Y-67145238D02*
X182342557Y-67145238D01*
X181888391Y-67350000D01*
X181648510Y-67554762D01*
X181143153Y-68169048D01*
X180826486Y-68988095D01*
X180621724Y-70626190D01*
X180784820Y-71035714D01*
X180973510Y-71240476D01*
X181376486Y-71445238D01*
X182233629Y-71445238D01*
X182687796Y-71240476D01*
X182927677Y-71035714D01*
X183193152Y-70626190D01*
X183321128Y-69602381D01*
X183158034Y-69192857D01*
X182969343Y-68988095D01*
X182566367Y-68783333D01*
X181709224Y-68783333D01*
X181255057Y-68988095D01*
X181015177Y-69192857D01*
X180749700Y-69602381D01*
%LPC*%
D13*
X61590000Y-34920000D03*
X55240000Y-37460000D03*
X80640000Y-34920000D03*
X74290000Y-37460000D03*
X99690000Y-34920000D03*
X93340000Y-37460000D03*
X118740000Y-34920000D03*
X112390000Y-37460000D03*
X137790000Y-34920000D03*
X131440000Y-37460000D03*
X156840000Y-34920000D03*
X150490000Y-37460000D03*
X175890000Y-34920000D03*
X169540000Y-37460000D03*
X194940000Y-34920000D03*
X188590000Y-37460000D03*
X213990000Y-34920000D03*
X207640000Y-37460000D03*
X233040000Y-34920000D03*
X226690000Y-37460000D03*
X252090000Y-34920000D03*
X245740000Y-37460000D03*
X42540000Y-53970000D03*
X36190000Y-56510000D03*
X61590000Y-53970000D03*
X55240000Y-56510000D03*
X80640000Y-53970000D03*
X74290000Y-56510000D03*
X99690000Y-53970000D03*
X93340000Y-56510000D03*
X118740000Y-53970000D03*
X112390000Y-56510000D03*
X137790000Y-53970000D03*
X131440000Y-56510000D03*
X156840000Y-53970000D03*
X150490000Y-56510000D03*
X175890000Y-53970000D03*
X169540000Y-56510000D03*
X194940000Y-53970000D03*
X188590000Y-56510000D03*
X213990000Y-53970000D03*
X207640000Y-56510000D03*
X233040000Y-53970000D03*
X226690000Y-56510000D03*
X252090000Y-53970000D03*
X245740000Y-56510000D03*
X42540000Y-73020000D03*
X36190000Y-75560000D03*
X61590000Y-73020000D03*
X55240000Y-75560000D03*
X80640000Y-73020000D03*
X74290000Y-75560000D03*
X99690000Y-73020000D03*
X93340000Y-75560000D03*
X118740000Y-73020000D03*
X112390000Y-75560000D03*
X137790000Y-73020000D03*
X131440000Y-75560000D03*
X156840000Y-73020000D03*
X150490000Y-75560000D03*
X175890000Y-73020000D03*
X169540000Y-75560000D03*
X194940000Y-73020000D03*
X188590000Y-75560000D03*
X213990000Y-73020000D03*
X207640000Y-75560000D03*
X233040000Y-73020000D03*
X226690000Y-75560000D03*
X252090000Y-73020000D03*
X245740000Y-75560000D03*
X42540000Y-92070000D03*
X36190000Y-94610000D03*
X61590000Y-92070000D03*
X55240000Y-94610000D03*
X80640000Y-92070000D03*
X74290000Y-94610000D03*
X99690000Y-92070000D03*
X93340000Y-94610000D03*
X118740000Y-92070000D03*
X112390000Y-94610000D03*
X147315000Y-92070000D03*
X140965000Y-94610000D03*
X175890000Y-92070000D03*
X169540000Y-94610000D03*
X194940000Y-92070000D03*
X188590000Y-94610000D03*
X213990000Y-92070000D03*
X207640000Y-94610000D03*
X233040000Y-92070000D03*
X226690000Y-94610000D03*
X252090000Y-92070000D03*
X245740000Y-94610000D03*
D14*
X36530000Y-49750000D03*
D15*
X39070000Y-49750000D03*
X41610000Y-49750000D03*
X44150000Y-49750000D03*
X46690000Y-49750000D03*
X49230000Y-49750000D03*
X51770000Y-49750000D03*
X54310000Y-49750000D03*
X56850000Y-49750000D03*
X59390000Y-49750000D03*
X61930000Y-49750000D03*
X64470000Y-49750000D03*
X64470000Y-70250000D03*
X61930000Y-70250000D03*
X59390000Y-70250000D03*
X56850000Y-70250000D03*
X54310000Y-70250000D03*
X51770000Y-70250000D03*
X49230000Y-70250000D03*
X46690000Y-70250000D03*
X44150000Y-70250000D03*
X41610000Y-70250000D03*
X39070000Y-70250000D03*
X36530000Y-70250000D03*
D13*
X42540000Y-34920000D03*
X36190000Y-37460000D03*
D16*
X247402000Y-89380000D03*
D17*
X245402000Y-89380000D03*
X243402000Y-89380000D03*
D18*
X240025000Y-63050000D03*
X240025000Y-55050000D03*
X48025000Y-44000000D03*
X48025000Y-36000000D03*
X51025000Y-44000000D03*
X51025000Y-36000000D03*
X70075000Y-44000000D03*
X70075000Y-36000000D03*
X87625000Y-44000000D03*
X87625000Y-36000000D03*
X106675000Y-44000000D03*
X106675000Y-36000000D03*
X125725000Y-44000000D03*
X125725000Y-36000000D03*
X144775000Y-44000000D03*
X144775000Y-36000000D03*
X163825000Y-44000000D03*
X163825000Y-36000000D03*
X182875000Y-44000000D03*
X182875000Y-36000000D03*
X201925000Y-44000000D03*
X201925000Y-36000000D03*
X220975000Y-44000000D03*
X220975000Y-36000000D03*
X240025000Y-44000000D03*
X240025000Y-36000000D03*
X48025000Y-63050000D03*
X48025000Y-55050000D03*
X51025000Y-63050000D03*
X51025000Y-55050000D03*
X68575000Y-63050000D03*
X68575000Y-55050000D03*
X87625000Y-63050000D03*
X87625000Y-55050000D03*
X106675000Y-63050000D03*
X106675000Y-55050000D03*
X125725000Y-63050000D03*
X125725000Y-55050000D03*
X144775000Y-63050000D03*
X144775000Y-55050000D03*
X163825000Y-63050000D03*
X163825000Y-55050000D03*
X182875000Y-63050000D03*
X182875000Y-55050000D03*
X201925000Y-63050000D03*
X201925000Y-55050000D03*
X220975000Y-63050000D03*
X220975000Y-55050000D03*
X48025000Y-82100000D03*
X48025000Y-74100000D03*
X51025000Y-82100000D03*
X51025000Y-74100000D03*
X68575000Y-82100000D03*
X68575000Y-74100000D03*
X87625000Y-82100000D03*
X87625000Y-74100000D03*
X106675000Y-82100000D03*
X106675000Y-74100000D03*
X125725000Y-82100000D03*
X125725000Y-74100000D03*
X144775000Y-82100000D03*
X144775000Y-74100000D03*
X163825000Y-82100000D03*
X163825000Y-74100000D03*
X182875000Y-82100000D03*
X182875000Y-74100000D03*
X201925000Y-82100000D03*
X201925000Y-74100000D03*
X220975000Y-82100000D03*
X220975000Y-74100000D03*
X240025000Y-82100000D03*
X240025000Y-74100000D03*
X48025000Y-101150000D03*
X48025000Y-93150000D03*
X51025000Y-101150000D03*
X51025000Y-93150000D03*
X68575000Y-101150000D03*
X68575000Y-93150000D03*
X87625000Y-101150000D03*
X87625000Y-93150000D03*
X106675000Y-101150000D03*
X106675000Y-93150000D03*
X125725000Y-101880000D03*
X125725000Y-93880000D03*
X163825000Y-101150000D03*
X163825000Y-93150000D03*
X182875000Y-101150000D03*
X182875000Y-93150000D03*
X201925000Y-101150000D03*
X201925000Y-93150000D03*
X220975000Y-101150000D03*
X220975000Y-93150000D03*
X240025000Y-101150000D03*
X240025000Y-93150000D03*
M02*
