G04 #@! TF.FileFunction,Copper,L1,Top,Mixed*
%FSLAX46Y46*%
G04 Gerber Fmt 4.6, Leading zero omitted, Abs format (unit mm)*
G04 Created by KiCad (PCBNEW 4.0.7) date 07/31/18 08:33:26*
%MOMM*%
%LPD*%
G01*
G04 APERTURE LIST*
%ADD10C,0.100000*%
%ADD11C,2.286000*%
%ADD12R,1.600000X1.600000*%
%ADD13C,1.600000*%
%ADD14R,1.350000X1.350000*%
%ADD15O,1.350000X1.350000*%
%ADD16C,1.524000*%
%ADD17C,0.600000*%
%ADD18C,0.500000*%
%ADD19C,0.300000*%
G04 APERTURE END LIST*
D10*
D11*
X61590000Y-34920000D03*
X55240000Y-37460000D03*
X80640000Y-34920000D03*
X74290000Y-37460000D03*
X99690000Y-34920000D03*
X93340000Y-37460000D03*
X118740000Y-34920000D03*
X112390000Y-37460000D03*
X137790000Y-34920000D03*
X131440000Y-37460000D03*
X156840000Y-34920000D03*
X150490000Y-37460000D03*
X175890000Y-34920000D03*
X169540000Y-37460000D03*
X194940000Y-34920000D03*
X188590000Y-37460000D03*
X213990000Y-34920000D03*
X207640000Y-37460000D03*
X233040000Y-34920000D03*
X226690000Y-37460000D03*
X252090000Y-34920000D03*
X245740000Y-37460000D03*
X42540000Y-53970000D03*
X36190000Y-56510000D03*
X61590000Y-53970000D03*
X55240000Y-56510000D03*
X80640000Y-53970000D03*
X74290000Y-56510000D03*
X99690000Y-53970000D03*
X93340000Y-56510000D03*
X118740000Y-53970000D03*
X112390000Y-56510000D03*
X137790000Y-53970000D03*
X131440000Y-56510000D03*
X156840000Y-53970000D03*
X150490000Y-56510000D03*
X175890000Y-53970000D03*
X169540000Y-56510000D03*
X194940000Y-53970000D03*
X188590000Y-56510000D03*
X213990000Y-53970000D03*
X207640000Y-56510000D03*
X233040000Y-53970000D03*
X226690000Y-56510000D03*
X252090000Y-53970000D03*
X245740000Y-56510000D03*
X42540000Y-73020000D03*
X36190000Y-75560000D03*
X61590000Y-73020000D03*
X55240000Y-75560000D03*
X80640000Y-73020000D03*
X74290000Y-75560000D03*
X99690000Y-73020000D03*
X93340000Y-75560000D03*
X118740000Y-73020000D03*
X112390000Y-75560000D03*
X137790000Y-73020000D03*
X131440000Y-75560000D03*
X156840000Y-73020000D03*
X150490000Y-75560000D03*
X175890000Y-73020000D03*
X169540000Y-75560000D03*
X194940000Y-73020000D03*
X188590000Y-75560000D03*
X213990000Y-73020000D03*
X207640000Y-75560000D03*
X233040000Y-73020000D03*
X226690000Y-75560000D03*
X252090000Y-73020000D03*
X245740000Y-75560000D03*
X42540000Y-92070000D03*
X36190000Y-94610000D03*
X61590000Y-92070000D03*
X55240000Y-94610000D03*
X80640000Y-92070000D03*
X74290000Y-94610000D03*
X99690000Y-92070000D03*
X93340000Y-94610000D03*
X118740000Y-92070000D03*
X112390000Y-94610000D03*
X147315000Y-92070000D03*
X140965000Y-94610000D03*
X175890000Y-92070000D03*
X169540000Y-94610000D03*
X194940000Y-92070000D03*
X188590000Y-94610000D03*
X213990000Y-92070000D03*
X207640000Y-94610000D03*
X233040000Y-92070000D03*
X226690000Y-94610000D03*
X252090000Y-92070000D03*
X245740000Y-94610000D03*
D12*
X36530000Y-49750000D03*
D13*
X39070000Y-49750000D03*
X41610000Y-49750000D03*
X44150000Y-49750000D03*
X46690000Y-49750000D03*
X49230000Y-49750000D03*
X51770000Y-49750000D03*
X54310000Y-49750000D03*
X56850000Y-49750000D03*
X59390000Y-49750000D03*
X61930000Y-49750000D03*
X64470000Y-49750000D03*
X64470000Y-70250000D03*
X61930000Y-70250000D03*
X59390000Y-70250000D03*
X56850000Y-70250000D03*
X54310000Y-70250000D03*
X51770000Y-70250000D03*
X49230000Y-70250000D03*
X46690000Y-70250000D03*
X44150000Y-70250000D03*
X41610000Y-70250000D03*
X39070000Y-70250000D03*
X36530000Y-70250000D03*
D11*
X42540000Y-34920000D03*
X36190000Y-37460000D03*
D14*
X247402000Y-89380000D03*
D15*
X245402000Y-89380000D03*
X243402000Y-89380000D03*
D16*
X240025000Y-63050000D03*
X240025000Y-55050000D03*
X48025000Y-44000000D03*
X48025000Y-36000000D03*
X51025000Y-44000000D03*
X51025000Y-36000000D03*
X70075000Y-44000000D03*
X70075000Y-36000000D03*
X87625000Y-44000000D03*
X87625000Y-36000000D03*
X106675000Y-44000000D03*
X106675000Y-36000000D03*
X125725000Y-44000000D03*
X125725000Y-36000000D03*
X144775000Y-44000000D03*
X144775000Y-36000000D03*
X163825000Y-44000000D03*
X163825000Y-36000000D03*
X182875000Y-44000000D03*
X182875000Y-36000000D03*
X201925000Y-44000000D03*
X201925000Y-36000000D03*
X220975000Y-44000000D03*
X220975000Y-36000000D03*
X240025000Y-44000000D03*
X240025000Y-36000000D03*
X48025000Y-63050000D03*
X48025000Y-55050000D03*
X51025000Y-63050000D03*
X51025000Y-55050000D03*
X68575000Y-63050000D03*
X68575000Y-55050000D03*
X87625000Y-63050000D03*
X87625000Y-55050000D03*
X106675000Y-63050000D03*
X106675000Y-55050000D03*
X125725000Y-63050000D03*
X125725000Y-55050000D03*
X144775000Y-63050000D03*
X144775000Y-55050000D03*
X163825000Y-63050000D03*
X163825000Y-55050000D03*
X182875000Y-63050000D03*
X182875000Y-55050000D03*
X201925000Y-63050000D03*
X201925000Y-55050000D03*
X220975000Y-63050000D03*
X220975000Y-55050000D03*
X48025000Y-82100000D03*
X48025000Y-74100000D03*
X51025000Y-82100000D03*
X51025000Y-74100000D03*
X68575000Y-82100000D03*
X68575000Y-74100000D03*
X87625000Y-82100000D03*
X87625000Y-74100000D03*
X106675000Y-82100000D03*
X106675000Y-74100000D03*
X125725000Y-82100000D03*
X125725000Y-74100000D03*
X144775000Y-82100000D03*
X144775000Y-74100000D03*
X163825000Y-82100000D03*
X163825000Y-74100000D03*
X182875000Y-82100000D03*
X182875000Y-74100000D03*
X201925000Y-82100000D03*
X201925000Y-74100000D03*
X220975000Y-82100000D03*
X220975000Y-74100000D03*
X240025000Y-82100000D03*
X240025000Y-74100000D03*
X48025000Y-101150000D03*
X48025000Y-93150000D03*
X51025000Y-101150000D03*
X51025000Y-93150000D03*
X68575000Y-101150000D03*
X68575000Y-93150000D03*
X87625000Y-101150000D03*
X87625000Y-93150000D03*
X106675000Y-101150000D03*
X106675000Y-93150000D03*
X125725000Y-101880000D03*
X125725000Y-93880000D03*
X163825000Y-101150000D03*
X163825000Y-93150000D03*
X182875000Y-101150000D03*
X182875000Y-93150000D03*
X201925000Y-101150000D03*
X201925000Y-93150000D03*
X220975000Y-101150000D03*
X220975000Y-93150000D03*
X240025000Y-101150000D03*
X240025000Y-93150000D03*
D17*
X38883800Y-87822100D03*
X51525000Y-87822100D03*
X222975000Y-68390500D03*
X210272700Y-68642900D03*
X243833200Y-84564100D03*
X51285100Y-48177000D03*
X150618700Y-93067400D03*
X158359300Y-98222200D03*
X64120400Y-56962300D03*
X70129500Y-56962300D03*
X37861000Y-53843900D03*
X36667800Y-45034600D03*
X206325100Y-65044000D03*
X45266300Y-72315700D03*
X49413600Y-53570400D03*
X50059000Y-59403200D03*
X81264700Y-48308800D03*
X66519600Y-45102300D03*
X46255400Y-43740300D03*
X53247400Y-46011900D03*
X45292500Y-45459200D03*
X72438700Y-46631700D03*
X64603800Y-45063800D03*
X93533000Y-45080000D03*
X83382700Y-42787600D03*
X111244100Y-45625600D03*
X103280200Y-45171900D03*
X129961600Y-45701900D03*
X122323400Y-45210100D03*
X148514300Y-45530900D03*
X138984600Y-45080000D03*
X186951800Y-45530900D03*
X179342500Y-45318500D03*
X225271900Y-45692000D03*
X219110500Y-45025800D03*
X243862500Y-45530900D03*
X234332800Y-45080000D03*
X37143800Y-67312100D03*
X64412700Y-43811700D03*
X91270400Y-64288700D03*
X84010400Y-64288700D03*
X111244100Y-65750200D03*
X103267100Y-64208800D03*
X129955500Y-65750200D03*
X122333300Y-64225000D03*
X148424700Y-64284300D03*
X141365700Y-64207400D03*
X168520900Y-65974000D03*
X160433300Y-64225000D03*
X186651000Y-63824300D03*
X179405200Y-61831600D03*
X225205500Y-65821000D03*
X217583300Y-64225000D03*
X243466500Y-64309000D03*
X236242000Y-63052600D03*
X43636400Y-86519000D03*
X252095100Y-60957800D03*
X53247400Y-83849300D03*
X45476500Y-82675200D03*
X91540500Y-84268600D03*
X84393600Y-83115600D03*
X111334700Y-83816400D03*
X102223500Y-82132400D03*
X129979200Y-83749500D03*
X121273500Y-80637400D03*
X148102400Y-83196100D03*
X139030700Y-83226100D03*
X187222100Y-83743300D03*
X179477000Y-83268700D03*
X206658400Y-83791900D03*
X198219500Y-83610100D03*
X225205500Y-83568200D03*
X215130400Y-83180000D03*
X162319100Y-90460700D03*
X252805900Y-83232900D03*
X54333500Y-103899800D03*
X45495100Y-101686800D03*
X91540500Y-103899800D03*
X82836000Y-101153000D03*
X111244100Y-103907200D03*
X102607800Y-101649500D03*
X139467400Y-102960700D03*
X123103400Y-103095100D03*
X168446500Y-102960700D03*
X151248100Y-102960700D03*
X186888700Y-103899600D03*
X178729800Y-101698600D03*
X225205500Y-103899600D03*
X217583300Y-102325000D03*
X124376800Y-89387200D03*
X47229100Y-68063300D03*
X50209000Y-67797300D03*
X66218400Y-87162400D03*
X67088300Y-95389000D03*
X57709400Y-68037900D03*
X58120000Y-74364400D03*
X106618300Y-70123800D03*
X123192800Y-88600800D03*
X163825000Y-49781700D03*
X163105800Y-87438900D03*
X162338300Y-76584200D03*
X201925000Y-49747500D03*
X201252400Y-68614000D03*
X66567400Y-68339300D03*
X233581600Y-69493400D03*
X239939200Y-89370300D03*
X252037900Y-98957400D03*
X246235400Y-92754700D03*
D18*
X38883800Y-87822100D02*
X51525000Y-87822100D01*
X247402000Y-89380000D02*
X247402000Y-88054700D01*
X247323800Y-88054700D02*
X247402000Y-88054700D01*
X243833200Y-84564100D02*
X247323800Y-88054700D01*
X45723000Y-48177000D02*
X51285100Y-48177000D01*
X44150000Y-49750000D02*
X45723000Y-48177000D01*
X155773500Y-98222200D02*
X158359300Y-98222200D01*
X150618700Y-93067400D02*
X155773500Y-98222200D01*
X64120400Y-56962300D02*
X70129500Y-56962300D01*
X41610000Y-49750000D02*
X44150000Y-49750000D01*
X35079600Y-46622800D02*
X36667800Y-45034600D01*
X35079600Y-50853200D02*
X35079600Y-46622800D01*
X35426800Y-51200400D02*
X35079600Y-50853200D01*
X37861000Y-51200400D02*
X35426800Y-51200400D01*
X40159600Y-51200400D02*
X37861000Y-51200400D01*
X41610000Y-49750000D02*
X40159600Y-51200400D01*
X37861000Y-51200400D02*
X37861000Y-53843900D01*
X210272700Y-68434200D02*
X210272700Y-68642900D01*
X210316400Y-68390500D02*
X210272700Y-68434200D01*
X222975000Y-68390500D02*
X210316400Y-68390500D01*
X209715300Y-68434200D02*
X206325100Y-65044000D01*
X210272700Y-68434200D02*
X209715300Y-68434200D01*
D19*
X233184500Y-53825500D02*
X233040000Y-53970000D01*
X251945500Y-53825500D02*
X233184500Y-53825500D01*
X252090000Y-53970000D02*
X251945500Y-53825500D01*
X156707600Y-53837600D02*
X156840000Y-53970000D01*
X137922400Y-53837600D02*
X156707600Y-53837600D01*
X137790000Y-53970000D02*
X137922400Y-53837600D01*
X175757600Y-53837600D02*
X175890000Y-53970000D01*
X156972400Y-53837600D02*
X175757600Y-53837600D01*
X156840000Y-53970000D02*
X156972400Y-53837600D01*
X194807600Y-53837600D02*
X194940000Y-53970000D01*
X176022400Y-53837600D02*
X194807600Y-53837600D01*
X175890000Y-53970000D02*
X176022400Y-53837600D01*
X213857600Y-53837600D02*
X213990000Y-53970000D01*
X195072400Y-53837600D02*
X213857600Y-53837600D01*
X194940000Y-53970000D02*
X195072400Y-53837600D01*
X232907600Y-53837600D02*
X233040000Y-53970000D01*
X214122400Y-53837600D02*
X232907600Y-53837600D01*
X213990000Y-53970000D02*
X214122400Y-53837600D01*
X80507800Y-53837800D02*
X80640000Y-53970000D01*
X80507800Y-53837700D02*
X80507800Y-53837800D01*
X61722300Y-53837700D02*
X80507800Y-53837700D01*
X61590000Y-53970000D02*
X61722300Y-53837700D01*
X99557600Y-53837600D02*
X99690000Y-53970000D01*
X80772400Y-53837600D02*
X99557600Y-53837600D01*
X80640000Y-53970000D02*
X80772400Y-53837600D01*
X118607600Y-53837600D02*
X118740000Y-53970000D01*
X99822400Y-53837600D02*
X118607600Y-53837600D01*
X99690000Y-53970000D02*
X99822400Y-53837600D01*
X137651300Y-53831300D02*
X137790000Y-53970000D01*
X118878700Y-53831300D02*
X137651300Y-53831300D01*
X118740000Y-53970000D02*
X118878700Y-53831300D01*
X45509600Y-51000400D02*
X42540000Y-53970000D01*
X50519600Y-51000400D02*
X45509600Y-51000400D01*
X51770000Y-49750000D02*
X50519600Y-51000400D01*
X119472700Y-72287300D02*
X118740000Y-73020000D01*
X137057300Y-72287300D02*
X119472700Y-72287300D01*
X137790000Y-73020000D02*
X137057300Y-72287300D01*
X137922400Y-72887600D02*
X137790000Y-73020000D01*
X156707600Y-72887600D02*
X137922400Y-72887600D01*
X156840000Y-73020000D02*
X156707600Y-72887600D01*
X233787800Y-72272200D02*
X233040000Y-73020000D01*
X251342200Y-72272200D02*
X233787800Y-72272200D01*
X252090000Y-73020000D02*
X251342200Y-72272200D01*
X214722700Y-72287300D02*
X213990000Y-73020000D01*
X232307300Y-72287300D02*
X214722700Y-72287300D01*
X233040000Y-73020000D02*
X232307300Y-72287300D01*
X195672700Y-72287300D02*
X194940000Y-73020000D01*
X213257300Y-72287300D02*
X195672700Y-72287300D01*
X213990000Y-73020000D02*
X213257300Y-72287300D01*
X98910200Y-72240200D02*
X99690000Y-73020000D01*
X81419800Y-72240200D02*
X98910200Y-72240200D01*
X80640000Y-73020000D02*
X81419800Y-72240200D01*
X157584800Y-72275200D02*
X156840000Y-73020000D01*
X175145200Y-72275200D02*
X157584800Y-72275200D01*
X175890000Y-73020000D02*
X175145200Y-72275200D01*
X194207300Y-72287300D02*
X194940000Y-73020000D01*
X176622700Y-72287300D02*
X194207300Y-72287300D01*
X175890000Y-73020000D02*
X176622700Y-72287300D01*
X61272900Y-72702900D02*
X61590000Y-73020000D01*
X52862400Y-72702900D02*
X61272900Y-72702900D01*
X52386200Y-72226700D02*
X52862400Y-72702900D01*
X45355300Y-72226700D02*
X52386200Y-72226700D01*
X45266300Y-72315700D02*
X45355300Y-72226700D01*
X51383200Y-51600800D02*
X49413600Y-53570400D01*
X52459200Y-51600800D02*
X51383200Y-51600800D01*
X54310000Y-49750000D02*
X52459200Y-51600800D01*
X37454100Y-73020000D02*
X42540000Y-73020000D01*
X35235200Y-70801100D02*
X37454100Y-73020000D01*
X35235200Y-69728200D02*
X35235200Y-70801100D01*
X36531800Y-68431600D02*
X35235200Y-69728200D01*
X42297200Y-68431600D02*
X36531800Y-68431600D01*
X44899800Y-65829000D02*
X42297200Y-68431600D01*
X44899800Y-64436000D02*
X44899800Y-65829000D01*
X49932600Y-59403200D02*
X44899800Y-64436000D01*
X50059000Y-59403200D02*
X49932600Y-59403200D01*
X99557600Y-91937600D02*
X99690000Y-92070000D01*
X80772400Y-91937600D02*
X99557600Y-91937600D01*
X80640000Y-92070000D02*
X80772400Y-91937600D01*
X233217500Y-91892500D02*
X233040000Y-92070000D01*
X251912500Y-91892500D02*
X233217500Y-91892500D01*
X252090000Y-92070000D02*
X251912500Y-91892500D01*
X176022400Y-91937600D02*
X175890000Y-92070000D01*
X194807600Y-91937600D02*
X176022400Y-91937600D01*
X194940000Y-92070000D02*
X194807600Y-91937600D01*
X213857600Y-91937600D02*
X213990000Y-92070000D01*
X195072400Y-91937600D02*
X213857600Y-91937600D01*
X194940000Y-92070000D02*
X195072400Y-91937600D01*
X232907600Y-91937600D02*
X233040000Y-92070000D01*
X214122400Y-91937600D02*
X232907600Y-91937600D01*
X213990000Y-92070000D02*
X214122400Y-91937600D01*
X175757600Y-91937600D02*
X175890000Y-92070000D01*
X161559800Y-91937600D02*
X175757600Y-91937600D01*
X161338500Y-92158900D02*
X161559800Y-91937600D01*
X147403900Y-92158900D02*
X161338500Y-92158900D01*
X147315000Y-92070000D02*
X147403900Y-92158900D01*
X61722400Y-91937600D02*
X61590000Y-92070000D01*
X80507600Y-91937600D02*
X61722400Y-91937600D01*
X80640000Y-92070000D02*
X80507600Y-91937600D01*
X61457600Y-91937600D02*
X61590000Y-92070000D01*
X42672400Y-91937600D02*
X61457600Y-91937600D01*
X42540000Y-92070000D02*
X42672400Y-91937600D01*
X118566800Y-91896800D02*
X118740000Y-92070000D01*
X99863200Y-91896800D02*
X118566800Y-91896800D01*
X99690000Y-92070000D02*
X99863200Y-91896800D01*
X147245600Y-92139400D02*
X147315000Y-92070000D01*
X118809400Y-92139400D02*
X147245600Y-92139400D01*
X118740000Y-92070000D02*
X118809400Y-92139400D01*
X41860500Y-92070000D02*
X42540000Y-92070000D01*
X33552600Y-83762100D02*
X41860500Y-92070000D01*
X33552600Y-68581700D02*
X33552600Y-83762100D01*
X36357200Y-65777100D02*
X33552600Y-68581700D01*
X36357200Y-59186600D02*
X36357200Y-65777100D01*
X38971600Y-56572200D02*
X36357200Y-59186600D01*
X48264300Y-56572200D02*
X38971600Y-56572200D01*
X49525000Y-55311500D02*
X48264300Y-56572200D01*
X49525000Y-54826200D02*
X49525000Y-55311500D01*
X52060700Y-52290500D02*
X49525000Y-54826200D01*
X54309500Y-52290500D02*
X52060700Y-52290500D01*
X56850000Y-49750000D02*
X54309500Y-52290500D01*
D18*
X54350700Y-35645000D02*
X46255400Y-43740300D01*
X58494300Y-35645000D02*
X54350700Y-35645000D01*
X62398300Y-39549000D02*
X58494300Y-35645000D01*
X62398300Y-40453300D02*
X62398300Y-39549000D01*
X66519600Y-44574600D02*
X62398300Y-40453300D01*
X66519600Y-45102300D02*
X66519600Y-44574600D01*
X67031400Y-45614100D02*
X66519600Y-45102300D01*
X72765100Y-45614100D02*
X67031400Y-45614100D01*
X73389000Y-46238000D02*
X72765100Y-45614100D01*
X73389000Y-46445300D02*
X73389000Y-46238000D01*
X75252500Y-48308800D02*
X73389000Y-46445300D01*
X81264700Y-48308800D02*
X75252500Y-48308800D01*
D19*
X233172400Y-34787600D02*
X233040000Y-34920000D01*
X251957600Y-34787600D02*
X233172400Y-34787600D01*
X252090000Y-34920000D02*
X251957600Y-34787600D01*
X214122400Y-34787600D02*
X213990000Y-34920000D01*
X232907600Y-34787600D02*
X214122400Y-34787600D01*
X233040000Y-34920000D02*
X232907600Y-34787600D01*
X195072400Y-34787600D02*
X194940000Y-34920000D01*
X213857600Y-34787600D02*
X195072400Y-34787600D01*
X213990000Y-34920000D02*
X213857600Y-34787600D01*
X156707600Y-34787600D02*
X156840000Y-34920000D01*
X137922400Y-34787600D02*
X156707600Y-34787600D01*
X137790000Y-34920000D02*
X137922400Y-34787600D01*
X156972400Y-34787600D02*
X156840000Y-34920000D01*
X175757600Y-34787600D02*
X156972400Y-34787600D01*
X175890000Y-34920000D02*
X175757600Y-34787600D01*
X194807600Y-34787600D02*
X194940000Y-34920000D01*
X176022400Y-34787600D02*
X194807600Y-34787600D01*
X175890000Y-34920000D02*
X176022400Y-34787600D01*
X99822400Y-34787600D02*
X99690000Y-34920000D01*
X118607600Y-34787600D02*
X99822400Y-34787600D01*
X118740000Y-34920000D02*
X118607600Y-34787600D01*
X137657600Y-34787600D02*
X137790000Y-34920000D01*
X118872400Y-34787600D02*
X137657600Y-34787600D01*
X118740000Y-34920000D02*
X118872400Y-34787600D01*
X61722400Y-34787600D02*
X61590000Y-34920000D01*
X80507600Y-34787600D02*
X61722400Y-34787600D01*
X80640000Y-34920000D02*
X80507600Y-34787600D01*
X99557600Y-34787600D02*
X99690000Y-34920000D01*
X80772400Y-34787600D02*
X99557600Y-34787600D01*
X80640000Y-34920000D02*
X80772400Y-34787600D01*
X45845200Y-46011900D02*
X45292500Y-45459200D01*
X53247400Y-46011900D02*
X45845200Y-46011900D01*
X66171700Y-46631700D02*
X64603800Y-45063800D01*
X72438700Y-46631700D02*
X66171700Y-46631700D01*
X91240600Y-42787600D02*
X83382700Y-42787600D01*
X93533000Y-45080000D02*
X91240600Y-42787600D01*
X103733900Y-45625600D02*
X103280200Y-45171900D01*
X111244100Y-45625600D02*
X103733900Y-45625600D01*
X122815200Y-45701900D02*
X122323400Y-45210100D01*
X129961600Y-45701900D02*
X122815200Y-45701900D01*
X139435500Y-45530900D02*
X138984600Y-45080000D01*
X148514300Y-45530900D02*
X139435500Y-45530900D01*
X179554900Y-45530900D02*
X179342500Y-45318500D01*
X186951800Y-45530900D02*
X179554900Y-45530900D01*
X219776700Y-45692000D02*
X219110500Y-45025800D01*
X225271900Y-45692000D02*
X219776700Y-45692000D01*
X234783700Y-45530900D02*
X234332800Y-45080000D01*
X243862500Y-45530900D02*
X234783700Y-45530900D01*
X42534900Y-67312100D02*
X37143800Y-67312100D01*
X44298800Y-65548200D02*
X42534900Y-67312100D01*
X44298800Y-64069000D02*
X44298800Y-65548200D01*
X57348300Y-51019500D02*
X44298800Y-64069000D01*
X59898600Y-51019500D02*
X57348300Y-51019500D01*
X60640400Y-50277700D02*
X59898600Y-51019500D01*
X60640400Y-49206700D02*
X60640400Y-50277700D01*
X62443400Y-47403700D02*
X60640400Y-49206700D01*
X62443400Y-45781000D02*
X62443400Y-47403700D01*
X64412700Y-43811700D02*
X62443400Y-45781000D01*
X84010400Y-64288700D02*
X91270400Y-64288700D01*
X104808500Y-65750200D02*
X103267100Y-64208800D01*
X111244100Y-65750200D02*
X104808500Y-65750200D01*
X123858500Y-65750200D02*
X122333300Y-64225000D01*
X129955500Y-65750200D02*
X123858500Y-65750200D01*
X141442600Y-64284300D02*
X148424700Y-64284300D01*
X141365700Y-64207400D02*
X141442600Y-64284300D01*
X162182300Y-65974000D02*
X168520900Y-65974000D01*
X160433300Y-64225000D02*
X162182300Y-65974000D01*
X184658300Y-61831600D02*
X179405200Y-61831600D01*
X186651000Y-63824300D02*
X184658300Y-61831600D01*
X219179300Y-65821000D02*
X217583300Y-64225000D01*
X225205500Y-65821000D02*
X219179300Y-65821000D01*
X237463000Y-61831600D02*
X236242000Y-63052600D01*
X240989100Y-61831600D02*
X237463000Y-61831600D01*
X243466500Y-64309000D02*
X240989100Y-61831600D01*
X51933700Y-86519000D02*
X43636400Y-86519000D01*
X55587500Y-90172800D02*
X51933700Y-86519000D01*
X125856900Y-90172800D02*
X55587500Y-90172800D01*
X128893100Y-87136600D02*
X125856900Y-90172800D01*
X145262200Y-87136600D02*
X128893100Y-87136600D01*
X150629500Y-81769300D02*
X145262200Y-87136600D01*
X150629500Y-78252400D02*
X150629500Y-81769300D01*
X154199200Y-74682700D02*
X150629500Y-78252400D01*
X158195300Y-74682700D02*
X154199200Y-74682700D01*
X160002400Y-72875600D02*
X158195300Y-74682700D01*
X170807200Y-72875600D02*
X160002400Y-72875600D01*
X172545700Y-74614100D02*
X170807200Y-72875600D01*
X177313900Y-74614100D02*
X172545700Y-74614100D01*
X179040300Y-72887700D02*
X177313900Y-74614100D01*
X192267700Y-72887700D02*
X179040300Y-72887700D01*
X194032900Y-74652900D02*
X192267700Y-72887700D01*
X196038500Y-74652900D02*
X194032900Y-74652900D01*
X197803700Y-72887700D02*
X196038500Y-74652900D01*
X211317700Y-72887700D02*
X197803700Y-72887700D01*
X213082900Y-74652900D02*
X211317700Y-72887700D01*
X215088500Y-74652900D02*
X213082900Y-74652900D01*
X216853700Y-72887700D02*
X215088500Y-74652900D01*
X230367700Y-72887700D02*
X216853700Y-72887700D01*
X232132900Y-74652900D02*
X230367700Y-72887700D01*
X234138500Y-74652900D02*
X232132900Y-74652900D01*
X235918800Y-72872600D02*
X234138500Y-74652900D01*
X247004200Y-72872600D02*
X235918800Y-72872600D01*
X248745700Y-74614100D02*
X247004200Y-72872600D01*
X252829100Y-74614100D02*
X248745700Y-74614100D01*
X253687000Y-73756200D02*
X252829100Y-74614100D01*
X253687000Y-62549700D02*
X253687000Y-73756200D01*
X252095100Y-60957800D02*
X253687000Y-62549700D01*
X46650600Y-83849300D02*
X45476500Y-82675200D01*
X53247400Y-83849300D02*
X46650600Y-83849300D01*
X85546600Y-84268600D02*
X84393600Y-83115600D01*
X91540500Y-84268600D02*
X85546600Y-84268600D01*
X103907500Y-83816400D02*
X102223500Y-82132400D01*
X111334700Y-83816400D02*
X103907500Y-83816400D01*
X126867100Y-80637400D02*
X121273500Y-80637400D01*
X129979200Y-83749500D02*
X126867100Y-80637400D01*
X147934100Y-83364400D02*
X148102400Y-83196100D01*
X139169000Y-83364400D02*
X147934100Y-83364400D01*
X139030700Y-83226100D02*
X139169000Y-83364400D01*
X179951600Y-83743300D02*
X179477000Y-83268700D01*
X187222100Y-83743300D02*
X179951600Y-83743300D01*
X198401300Y-83791900D02*
X198219500Y-83610100D01*
X206658400Y-83791900D02*
X198401300Y-83791900D01*
X215518600Y-83568200D02*
X215130400Y-83180000D01*
X225205500Y-83568200D02*
X215518600Y-83568200D01*
X234488700Y-90460700D02*
X162319100Y-90460700D01*
X234633400Y-90605400D02*
X234488700Y-90460700D01*
X248326200Y-90605400D02*
X234633400Y-90605400D01*
X252805900Y-86125700D02*
X248326200Y-90605400D01*
X252805900Y-83232900D02*
X252805900Y-86125700D01*
X47708100Y-103899800D02*
X45495100Y-101686800D01*
X54333500Y-103899800D02*
X47708100Y-103899800D01*
X85582800Y-103899800D02*
X82836000Y-101153000D01*
X91540500Y-103899800D02*
X85582800Y-103899800D01*
X104865500Y-103907200D02*
X102607800Y-101649500D01*
X111244100Y-103907200D02*
X104865500Y-103907200D01*
X126660900Y-102960700D02*
X139467400Y-102960700D01*
X126526500Y-103095100D02*
X126660900Y-102960700D01*
X123103400Y-103095100D02*
X126526500Y-103095100D01*
X151248100Y-102960700D02*
X168446500Y-102960700D01*
X180930800Y-103899600D02*
X178729800Y-101698600D01*
X186888700Y-103899600D02*
X180930800Y-103899600D01*
X219157900Y-103899600D02*
X217583300Y-102325000D01*
X225205500Y-103899600D02*
X219157900Y-103899600D01*
X42088000Y-70250000D02*
X41610000Y-70250000D01*
X44940800Y-73102800D02*
X42088000Y-70250000D01*
X45736900Y-73102800D02*
X44940800Y-73102800D01*
X45998600Y-72841100D02*
X45736900Y-73102800D01*
X51727500Y-72841100D02*
X45998600Y-72841100D01*
X52189700Y-73303300D02*
X51727500Y-72841100D01*
X58942600Y-73303300D02*
X52189700Y-73303300D01*
X61447400Y-75808100D02*
X58942600Y-73303300D01*
X64130600Y-75808100D02*
X61447400Y-75808100D01*
X77709700Y-89387200D02*
X64130600Y-75808100D01*
X124376800Y-89387200D02*
X77709700Y-89387200D01*
X47229100Y-63845900D02*
X47229100Y-68063300D01*
X48025000Y-63050000D02*
X47229100Y-63845900D01*
X36790300Y-36859700D02*
X36190000Y-37460000D01*
X47165300Y-36859700D02*
X36790300Y-36859700D01*
X48025000Y-36000000D02*
X47165300Y-36859700D01*
X49790200Y-45234800D02*
X51025000Y-44000000D01*
X46672200Y-45234800D02*
X49790200Y-45234800D01*
X46142200Y-44704800D02*
X46672200Y-45234800D01*
X44942400Y-44704800D02*
X46142200Y-44704800D01*
X44506200Y-45141000D02*
X44942400Y-44704800D01*
X44506200Y-46326300D02*
X44506200Y-45141000D01*
X42514200Y-48318300D02*
X44506200Y-46326300D01*
X40501700Y-48318300D02*
X42514200Y-48318300D01*
X39070000Y-49750000D02*
X40501700Y-48318300D01*
X50209000Y-63866000D02*
X50209000Y-67797300D01*
X51025000Y-63050000D02*
X50209000Y-63866000D01*
X68575000Y-96875600D02*
X68575000Y-101150000D01*
X68574900Y-96875600D02*
X68575000Y-96875600D01*
X67088300Y-95389000D02*
X68574900Y-96875600D01*
X66240300Y-87140500D02*
X66218400Y-87162400D01*
X66240300Y-82100000D02*
X66240300Y-87140500D01*
X68575000Y-82100000D02*
X66240300Y-82100000D01*
X58120000Y-74364500D02*
X58120000Y-74364400D01*
X58829700Y-74364500D02*
X58120000Y-74364500D01*
X62828700Y-78363500D02*
X58829700Y-74364500D01*
X62828700Y-78688400D02*
X62828700Y-78363500D01*
X66240300Y-82100000D02*
X62828700Y-78688400D01*
X58626900Y-67120400D02*
X57709400Y-68037900D01*
X64504600Y-67120400D02*
X58626900Y-67120400D01*
X68575000Y-63050000D02*
X64504600Y-67120400D01*
X71535000Y-37460000D02*
X70075000Y-36000000D01*
X74290000Y-37460000D02*
X71535000Y-37460000D01*
X63181900Y-51001900D02*
X61930000Y-49750000D01*
X80623100Y-51001900D02*
X63181900Y-51001900D01*
X87625000Y-44000000D02*
X80623100Y-51001900D01*
X106618300Y-70216300D02*
X106618300Y-70123800D01*
X100878600Y-75956000D02*
X106618300Y-70216300D01*
X100878600Y-78619400D02*
X100878600Y-75956000D01*
X104359200Y-82100000D02*
X100878600Y-78619400D01*
X106675000Y-82100000D02*
X104359200Y-82100000D01*
X66475900Y-72255900D02*
X64470000Y-70250000D01*
X77431000Y-72255900D02*
X66475900Y-72255900D01*
X79794500Y-74619400D02*
X77431000Y-72255900D01*
X82858400Y-74619400D02*
X79794500Y-74619400D01*
X84635300Y-72842500D02*
X82858400Y-74619400D01*
X95398800Y-72842500D02*
X84635300Y-72842500D01*
X98512300Y-75956000D02*
X95398800Y-72842500D01*
X100878600Y-75956000D02*
X98512300Y-75956000D01*
X121651500Y-87059500D02*
X123192800Y-88600800D01*
X121651500Y-86173500D02*
X121651500Y-87059500D01*
X94360200Y-86173500D02*
X121651500Y-86173500D01*
X93272000Y-85085300D02*
X94360200Y-86173500D01*
X93272000Y-84930200D02*
X93272000Y-85085300D01*
X84153600Y-75811800D02*
X93272000Y-84930200D01*
X79268700Y-75811800D02*
X84153600Y-75811800D01*
X76313100Y-72856200D02*
X79268700Y-75811800D01*
X64536200Y-72856200D02*
X76313100Y-72856200D01*
X61930000Y-70250000D02*
X64536200Y-72856200D01*
X121651500Y-86173500D02*
X125725000Y-82100000D01*
X60641000Y-68999000D02*
X59390000Y-70250000D01*
X65317200Y-68999000D02*
X60641000Y-68999000D01*
X66036200Y-69718000D02*
X65317200Y-68999000D01*
X105963100Y-69718000D02*
X66036200Y-69718000D01*
X106307600Y-69373500D02*
X105963100Y-69718000D01*
X106929100Y-69373500D02*
X106307600Y-69373500D01*
X107273600Y-69718000D02*
X106929100Y-69373500D01*
X112378700Y-69718000D02*
X107273600Y-69718000D01*
X117306000Y-74645300D02*
X112378700Y-69718000D01*
X121232800Y-74645300D02*
X117306000Y-74645300D01*
X122990400Y-72887700D02*
X121232800Y-74645300D01*
X133544000Y-72887700D02*
X122990400Y-72887700D01*
X138240400Y-77584100D02*
X133544000Y-72887700D01*
X138240400Y-77925200D02*
X138240400Y-77584100D01*
X142415200Y-82100000D02*
X138240400Y-77925200D01*
X144775000Y-82100000D02*
X142415200Y-82100000D01*
X36728300Y-55971700D02*
X36190000Y-56510000D01*
X47103300Y-55971700D02*
X36728300Y-55971700D01*
X48025000Y-55050000D02*
X47103300Y-55971700D01*
X72830000Y-55050000D02*
X68575000Y-55050000D01*
X74290000Y-56510000D02*
X72830000Y-55050000D01*
X91880000Y-55050000D02*
X93340000Y-56510000D01*
X87625000Y-55050000D02*
X91880000Y-55050000D01*
X110930000Y-55050000D02*
X112390000Y-56510000D01*
X106675000Y-55050000D02*
X110930000Y-55050000D01*
X129980000Y-55050000D02*
X131440000Y-56510000D01*
X125725000Y-55050000D02*
X129980000Y-55050000D01*
X149030000Y-55050000D02*
X150490000Y-56510000D01*
X144775000Y-55050000D02*
X149030000Y-55050000D01*
X164999800Y-56224800D02*
X163825000Y-55050000D01*
X169254900Y-56224800D02*
X164999800Y-56224800D01*
X169254900Y-56224900D02*
X169254900Y-56224800D01*
X169540000Y-56510000D02*
X169254900Y-56224900D01*
X187130000Y-55050000D02*
X188590000Y-56510000D01*
X182875000Y-55050000D02*
X187130000Y-55050000D01*
X203099800Y-56224800D02*
X201925000Y-55050000D01*
X207354900Y-56224800D02*
X203099800Y-56224800D01*
X207354900Y-56224900D02*
X207354900Y-56224800D01*
X207640000Y-56510000D02*
X207354900Y-56224900D01*
X225230000Y-55050000D02*
X226690000Y-56510000D01*
X220975000Y-55050000D02*
X225230000Y-55050000D01*
X244280000Y-55050000D02*
X245740000Y-56510000D01*
X240025000Y-55050000D02*
X244280000Y-55050000D01*
X46565000Y-75560000D02*
X48025000Y-74100000D01*
X36190000Y-75560000D02*
X46565000Y-75560000D01*
X52485000Y-75560000D02*
X51025000Y-74100000D01*
X55240000Y-75560000D02*
X52485000Y-75560000D01*
X91880000Y-74100000D02*
X87625000Y-74100000D01*
X93340000Y-75560000D02*
X91880000Y-74100000D01*
X126899800Y-75274800D02*
X125725000Y-74100000D01*
X131154900Y-75274800D02*
X126899800Y-75274800D01*
X131154900Y-75274900D02*
X131154900Y-75274800D01*
X131440000Y-75560000D02*
X131154900Y-75274900D01*
X168080000Y-74100000D02*
X163825000Y-74100000D01*
X169540000Y-75560000D02*
X168080000Y-74100000D01*
X184335000Y-75560000D02*
X182875000Y-74100000D01*
X188590000Y-75560000D02*
X184335000Y-75560000D01*
X203099800Y-75274800D02*
X201925000Y-74100000D01*
X207354900Y-75274800D02*
X203099800Y-75274800D01*
X207354900Y-75274900D02*
X207354900Y-75274800D01*
X207640000Y-75560000D02*
X207354900Y-75274900D01*
X222149800Y-75274800D02*
X220975000Y-74100000D01*
X226404900Y-75274800D02*
X222149800Y-75274800D01*
X226404900Y-75274900D02*
X226404900Y-75274800D01*
X226690000Y-75560000D02*
X226404900Y-75274900D01*
X244280000Y-74100000D02*
X240025000Y-74100000D01*
X245740000Y-75560000D02*
X244280000Y-74100000D01*
X46565000Y-94610000D02*
X48025000Y-93150000D01*
X36190000Y-94610000D02*
X46565000Y-94610000D01*
X52485000Y-94610000D02*
X51025000Y-93150000D01*
X55240000Y-94610000D02*
X52485000Y-94610000D01*
X72830000Y-93150000D02*
X74290000Y-94610000D01*
X68575000Y-93150000D02*
X72830000Y-93150000D01*
X91880000Y-93150000D02*
X93340000Y-94610000D01*
X87625000Y-93150000D02*
X91880000Y-93150000D01*
X107849800Y-94324800D02*
X106675000Y-93150000D01*
X112104900Y-94324800D02*
X107849800Y-94324800D01*
X112104900Y-94324900D02*
X112104900Y-94324800D01*
X112390000Y-94610000D02*
X112104900Y-94324900D01*
X140235000Y-93880000D02*
X125725000Y-93880000D01*
X140965000Y-94610000D02*
X140235000Y-93880000D01*
X168080000Y-93150000D02*
X169540000Y-94610000D01*
X163825000Y-93150000D02*
X168080000Y-93150000D01*
X187130000Y-93150000D02*
X188590000Y-94610000D01*
X182875000Y-93150000D02*
X187130000Y-93150000D01*
X206180000Y-93150000D02*
X207640000Y-94610000D01*
X201925000Y-93150000D02*
X206180000Y-93150000D01*
X225230000Y-93150000D02*
X226690000Y-94610000D01*
X220975000Y-93150000D02*
X225230000Y-93150000D01*
X244280000Y-93150000D02*
X245740000Y-94610000D01*
X240025000Y-93150000D02*
X244280000Y-93150000D01*
X163825000Y-49781700D02*
X163825000Y-44000000D01*
X163825000Y-78070900D02*
X162338300Y-76584200D01*
X163825000Y-82100000D02*
X163825000Y-78070900D01*
X163105800Y-82819200D02*
X163105800Y-87438900D01*
X163825000Y-82100000D02*
X163105800Y-82819200D01*
X55597700Y-71502300D02*
X56850000Y-70250000D01*
X53778200Y-71502300D02*
X55597700Y-71502300D01*
X53040000Y-70764100D02*
X53778200Y-71502300D01*
X53040000Y-68521100D02*
X53040000Y-70764100D01*
X55492400Y-66068700D02*
X53040000Y-68521100D01*
X55492400Y-58510800D02*
X55492400Y-66068700D01*
X55492500Y-58510800D02*
X55492400Y-58510800D01*
X57446900Y-56556400D02*
X55492500Y-58510800D01*
X60053600Y-56556400D02*
X57446900Y-56556400D01*
X62398300Y-58901100D02*
X60053600Y-56556400D01*
X62398300Y-59166300D02*
X62398300Y-58901100D01*
X64983200Y-61751200D02*
X62398300Y-59166300D01*
X69063700Y-61751200D02*
X64983200Y-61751200D01*
X74445000Y-67132500D02*
X69063700Y-61751200D01*
X105153000Y-67132500D02*
X74445000Y-67132500D01*
X105313200Y-66972300D02*
X105153000Y-67132500D01*
X107923500Y-66972300D02*
X105313200Y-66972300D01*
X108083700Y-67132500D02*
X107923500Y-66972300D01*
X157045100Y-67132500D02*
X108083700Y-67132500D01*
X158618500Y-65559100D02*
X157045100Y-67132500D01*
X158618500Y-64941900D02*
X158618500Y-65559100D01*
X160510400Y-63050000D02*
X158618500Y-64941900D01*
X163825000Y-63050000D02*
X160510400Y-63050000D01*
X55607400Y-68952600D02*
X54310000Y-70250000D01*
X57855800Y-68952600D02*
X55607400Y-68952600D01*
X59073300Y-67735100D02*
X57855800Y-68952600D01*
X65430100Y-67735100D02*
X59073300Y-67735100D01*
X65585100Y-67580100D02*
X65430100Y-67735100D01*
X66869300Y-67580100D02*
X65585100Y-67580100D01*
X67024300Y-67735100D02*
X66869300Y-67580100D01*
X105399300Y-67735100D02*
X67024300Y-67735100D01*
X105561800Y-67572600D02*
X105399300Y-67735100D01*
X107674900Y-67572600D02*
X105561800Y-67572600D01*
X107837400Y-67735100D02*
X107674900Y-67572600D01*
X178189900Y-67735100D02*
X107837400Y-67735100D01*
X182875000Y-63050000D02*
X178189900Y-67735100D01*
X201925000Y-49747500D02*
X201925000Y-44000000D01*
X200977700Y-63997300D02*
X200977700Y-68339300D01*
X201925000Y-63050000D02*
X200977700Y-63997300D01*
X200977700Y-68339300D02*
X201252400Y-68614000D01*
X105644000Y-68339300D02*
X66567400Y-68339300D01*
X105810400Y-68172900D02*
X105644000Y-68339300D01*
X107426300Y-68172900D02*
X105810400Y-68172900D01*
X107592700Y-68339300D02*
X107426300Y-68172900D01*
X200977700Y-68339300D02*
X107592700Y-68339300D01*
X218691600Y-44000000D02*
X220975000Y-44000000D01*
X210594700Y-52096900D02*
X218691600Y-44000000D01*
X57365400Y-52096900D02*
X210594700Y-52096900D01*
X52064500Y-57397800D02*
X57365400Y-52096900D01*
X52064500Y-59115200D02*
X52064500Y-57397800D01*
X49525000Y-61654700D02*
X52064500Y-59115200D01*
X49525000Y-63700900D02*
X49525000Y-61654700D01*
X49230000Y-63995900D02*
X49525000Y-63700900D01*
X49230000Y-70250000D02*
X49230000Y-63995900D01*
X233581600Y-69493400D02*
X240025000Y-63050000D01*
X239939200Y-82185800D02*
X239939200Y-89370300D01*
X240025000Y-82100000D02*
X239939200Y-82185800D01*
X47942100Y-71502100D02*
X46690000Y-70250000D01*
X52553000Y-71502100D02*
X47942100Y-71502100D01*
X53153500Y-72102600D02*
X52553000Y-71502100D01*
X56775700Y-72102600D02*
X53153500Y-72102600D01*
X58120000Y-70758300D02*
X56775700Y-72102600D01*
X58120000Y-69733000D02*
X58120000Y-70758300D01*
X59454300Y-68398700D02*
X58120000Y-69733000D01*
X65565800Y-68398700D02*
X59454300Y-68398700D01*
X66284800Y-69117700D02*
X65565800Y-68398700D01*
X105714500Y-69117700D02*
X66284800Y-69117700D01*
X106059000Y-68773200D02*
X105714500Y-69117700D01*
X107177700Y-68773200D02*
X106059000Y-68773200D01*
X107522200Y-69117700D02*
X107177700Y-68773200D01*
X188625400Y-69117700D02*
X107522200Y-69117700D01*
X189001100Y-69493400D02*
X188625400Y-69117700D01*
X233581600Y-69493400D02*
X189001100Y-69493400D01*
X252037800Y-98957400D02*
X252037900Y-98957400D01*
X252037800Y-96128000D02*
X252037800Y-98957400D01*
X248664500Y-92754700D02*
X252037800Y-96128000D01*
X246235400Y-92754700D02*
X248664500Y-92754700D01*
M02*
