M48
;DRILL file {KiCad 4.0.7} date 07/31/18 08:35:58
;FORMAT={3:3/ absolute / metric / suppress leading zeros}
FMAT,2
METRIC,TZ
T1C0.400
T2C0.762
T3C0.800
T4C1.100
T5C1.499
T6C1.702
T7C3.048
T8C3.988
%
G90
G05
M71
T1
X36668Y-45035
X37144Y-67312
X37861Y-53844
X38884Y-87822
X43636Y-86519
X45266Y-72316
X45293Y-45459
X45477Y-82675
X45495Y-101687
X46255Y-43740
X47229Y-68063
X49414Y-53570
X50059Y-59403
X50209Y-67797
X51285Y-48177
X51525Y-87822
X53247Y-46012
X53247Y-83849
X54334Y-103900
X57709Y-68038
X58120Y-74364
X64120Y-56962
X64413Y-43812
X64604Y-45064
X66218Y-87162
X66520Y-45102
X66567Y-68339
X67088Y-95389
X70130Y-56962
X72439Y-46632
X81265Y-48309
X82836Y-101153
X83383Y-42788
X84010Y-64289
X84394Y-83116
X91270Y-64289
X91541Y-84269
X91541Y-103900
X93533Y-45080
X102224Y-82132
X102608Y-101649
X103267Y-64209
X103280Y-45172
X106618Y-70124
X111244Y-45626
X111244Y-65750
X111244Y-103907
X111335Y-83816
X121273Y-80637
X122323Y-45210
X122333Y-64225
X123103Y-103095
X123193Y-88601
X124377Y-89387
X129956Y-65750
X129962Y-45702
X129979Y-83750
X138985Y-45080
X139031Y-83226
X139467Y-102961
X141366Y-64207
X148102Y-83196
X148425Y-64284
X148514Y-45531
X150619Y-93067
X151248Y-102961
X158359Y-98222
X160433Y-64225
X162319Y-90461
X162338Y-76584
X163106Y-87439
X163825Y-49782
X168446Y-102961
X168521Y-65974
X178730Y-101699
X179343Y-45319
X179405Y-61832
X179477Y-83269
X186651Y-63824
X186889Y-103900
X186952Y-45531
X187222Y-83743
X198219Y-83610
X201252Y-68614
X201925Y-49748
X206325Y-65044
X206658Y-83792
X210273Y-68643
X215130Y-83180
X217583Y-64225
X217583Y-102325
X219111Y-45026
X222975Y-68391
X225206Y-65821
X225206Y-83568
X225206Y-103900
X225272Y-45692
X233582Y-69493
X234333Y-45080
X236242Y-63053
X239939Y-89370
X243467Y-64309
X243833Y-84564
X243863Y-45531
X246235Y-92755
X252038Y-98957
X252095Y-60958
X252806Y-83233
T2
X48025Y-36000
X48025Y-44000
X48025Y-55050
X48025Y-63050
X48025Y-74100
X48025Y-82100
X48025Y-93150
X48025Y-101150
X51025Y-36000
X51025Y-44000
X51025Y-55050
X51025Y-63050
X51025Y-74100
X51025Y-82100
X51025Y-93150
X51025Y-101150
X68575Y-55050
X68575Y-63050
X68575Y-74100
X68575Y-82100
X68575Y-93150
X68575Y-101150
X70075Y-36000
X70075Y-44000
X87625Y-36000
X87625Y-44000
X87625Y-55050
X87625Y-63050
X87625Y-74100
X87625Y-82100
X87625Y-93150
X87625Y-101150
X106675Y-36000
X106675Y-44000
X106675Y-55050
X106675Y-63050
X106675Y-74100
X106675Y-82100
X106675Y-93150
X106675Y-101150
X125725Y-36000
X125725Y-44000
X125725Y-55050
X125725Y-63050
X125725Y-74100
X125725Y-82100
X125725Y-93880
X125725Y-101880
X144775Y-36000
X144775Y-44000
X144775Y-55050
X144775Y-63050
X144775Y-74100
X144775Y-82100
X163825Y-36000
X163825Y-44000
X163825Y-55050
X163825Y-63050
X163825Y-74100
X163825Y-82100
X163825Y-93150
X163825Y-101150
X182875Y-36000
X182875Y-44000
X182875Y-55050
X182875Y-63050
X182875Y-74100
X182875Y-82100
X182875Y-93150
X182875Y-101150
X201925Y-36000
X201925Y-44000
X201925Y-55050
X201925Y-63050
X201925Y-74100
X201925Y-82100
X201925Y-93150
X201925Y-101150
X220975Y-36000
X220975Y-44000
X220975Y-55050
X220975Y-63050
X220975Y-74100
X220975Y-82100
X220975Y-93150
X220975Y-101150
X240025Y-36000
X240025Y-44000
X240025Y-55050
X240025Y-63050
X240025Y-74100
X240025Y-82100
X240025Y-93150
X240025Y-101150
T3
X243402Y-89380
X245402Y-89380
X247402Y-89380
T4
X36530Y-49750
X36530Y-70250
X39070Y-49750
X39070Y-70250
X41610Y-49750
X41610Y-70250
X44150Y-49750
X44150Y-70250
X46690Y-49750
X46690Y-70250
X49230Y-49750
X49230Y-70250
X51770Y-49750
X51770Y-70250
X54310Y-49750
X54310Y-70250
X56850Y-49750
X56850Y-70250
X59390Y-49750
X59390Y-70250
X61930Y-49750
X61930Y-70250
X64470Y-49750
X64470Y-70250
T5
X36190Y-37460
X36190Y-56510
X36190Y-75560
X36190Y-94610
X42540Y-34920
X42540Y-53970
X42540Y-73020
X42540Y-92070
X55240Y-37460
X55240Y-56510
X55240Y-75560
X55240Y-94610
X61590Y-34920
X61590Y-53970
X61590Y-73020
X61590Y-92070
X74290Y-37460
X74290Y-56510
X74290Y-75560
X74290Y-94610
X80640Y-34920
X80640Y-53970
X80640Y-73020
X80640Y-92070
X93340Y-37460
X93340Y-56510
X93340Y-75560
X93340Y-94610
X99690Y-34920
X99690Y-53970
X99690Y-73020
X99690Y-92070
X112390Y-37460
X112390Y-56510
X112390Y-75560
X112390Y-94610
X118740Y-34920
X118740Y-53970
X118740Y-73020
X118740Y-92070
X131440Y-37460
X131440Y-56510
X131440Y-75560
X137790Y-34920
X137790Y-53970
X137790Y-73020
X140965Y-94610
X147315Y-92070
X150490Y-37460
X150490Y-56510
X150490Y-75560
X156840Y-34920
X156840Y-53970
X156840Y-73020
X169540Y-37460
X169540Y-56510
X169540Y-75560
X169540Y-94610
X175890Y-34920
X175890Y-53970
X175890Y-73020
X175890Y-92070
X188590Y-37460
X188590Y-56510
X188590Y-75560
X188590Y-94610
X194940Y-34920
X194940Y-53970
X194940Y-73020
X194940Y-92070
X207640Y-37460
X207640Y-56510
X207640Y-75560
X207640Y-94610
X213990Y-34920
X213990Y-53970
X213990Y-73020
X213990Y-92070
X226690Y-37460
X226690Y-56510
X226690Y-75560
X226690Y-94610
X233040Y-34920
X233040Y-53970
X233040Y-73020
X233040Y-92070
X245740Y-37460
X245740Y-56510
X245740Y-75560
X245740Y-94610
X252090Y-34920
X252090Y-53970
X252090Y-73020
X252090Y-92070
T6
X34920Y-40000
X34920Y-59050
X34920Y-78100
X34920Y-97150
X45080Y-40000
X45080Y-59050
X45080Y-78100
X45080Y-97150
X53970Y-40000
X53970Y-59050
X53970Y-78100
X53970Y-97150
X64130Y-40000
X64130Y-59050
X64130Y-78100
X64130Y-97150
X73020Y-40000
X73020Y-59050
X73020Y-78100
X73020Y-97150
X83180Y-40000
X83180Y-59050
X83180Y-78100
X83180Y-97150
X92070Y-40000
X92070Y-59050
X92070Y-78100
X92070Y-97150
X102230Y-40000
X102230Y-59050
X102230Y-78100
X102230Y-97150
X111120Y-40000
X111120Y-59050
X111120Y-78100
X111120Y-97150
X121280Y-40000
X121280Y-59050
X121280Y-78100
X121280Y-97150
X130170Y-40000
X130170Y-59050
X130170Y-78100
X139695Y-97150
X140330Y-40000
X140330Y-59050
X140330Y-78100
X149220Y-40000
X149220Y-59050
X149220Y-78100
X149855Y-97150
X159380Y-40000
X159380Y-59050
X159380Y-78100
X168270Y-40000
X168270Y-59050
X168270Y-78100
X168270Y-97150
X178430Y-40000
X178430Y-59050
X178430Y-78100
X178430Y-97150
X187320Y-40000
X187320Y-59050
X187320Y-78100
X187320Y-97150
X197480Y-40000
X197480Y-59050
X197480Y-78100
X197480Y-97150
X206370Y-40000
X206370Y-59050
X206370Y-78100
X206370Y-97150
X216530Y-40000
X216530Y-59050
X216530Y-78100
X216530Y-97150
X225420Y-40000
X225420Y-59050
X225420Y-78100
X225420Y-97150
X235580Y-40000
X235580Y-59050
X235580Y-78100
X235580Y-97150
X244470Y-40000
X244470Y-59050
X244470Y-78100
X244470Y-97150
X254630Y-40000
X254630Y-59050
X254630Y-78100
X254630Y-97150
T7
X132837Y-90165
X156713Y-90165
T8
X40000Y-40000
X40000Y-59050
X40000Y-78100
X40000Y-97150
X59050Y-40000
X59050Y-59050
X59050Y-78100
X59050Y-97150
X78100Y-40000
X78100Y-59050
X78100Y-78100
X78100Y-97150
X97150Y-40000
X97150Y-59050
X97150Y-78100
X97150Y-97150
X116200Y-40000
X116200Y-59050
X116200Y-78100
X116200Y-97150
X132837Y-105405
X135250Y-40000
X135250Y-59050
X135250Y-78100
X144775Y-97150
X154300Y-40000
X154300Y-59050
X154300Y-78100
X156713Y-105405
X173350Y-40000
X173350Y-59050
X173350Y-78100
X173350Y-97150
X192400Y-40000
X192400Y-59050
X192400Y-78100
X192400Y-97150
X211450Y-40000
X211450Y-59050
X211450Y-78100
X211450Y-97150
X230500Y-40000
X230500Y-59050
X230500Y-78100
X230500Y-97150
X249550Y-40000
X249550Y-59050
X249550Y-78100
X249550Y-97150
T0
M30
