G04 #@! TF.FileFunction,Profile,NP*
%FSLAX46Y46*%
G04 Gerber Fmt 4.6, Leading zero omitted, Abs format (unit mm)*
G04 Created by KiCad (PCBNEW 4.0.7) date 07/31/18 08:33:26*
%MOMM*%
%LPD*%
G01*
G04 APERTURE LIST*
%ADD10C,0.100000*%
%ADD11C,0.150000*%
G04 APERTURE END LIST*
D10*
D11*
X35902000Y-32380000D02*
G75*
G03X32902000Y-35380000I0J-3000000D01*
G01*
X32902000Y-105380000D02*
G75*
G03X35902000Y-108380000I3000000J0D01*
G01*
X32902000Y-105381785D02*
X32902000Y-35380000D01*
X253402000Y-32380000D02*
X35902000Y-32380000D01*
X256402000Y-35380000D02*
X256402000Y-105380000D01*
X256402000Y-35380000D02*
G75*
G03X253402000Y-32380000I-3000000J0D01*
G01*
X253402000Y-108380000D02*
G75*
G03X256402000Y-105380000I0J3000000D01*
G01*
X253402000Y-108380000D02*
X35902000Y-108380000D01*
X37460000Y-42540000D02*
X42540000Y-42540000D01*
X42540000Y-42540000D02*
X42540000Y-47620000D01*
X42540000Y-47620000D02*
X37460000Y-47620000D01*
X37460000Y-47620000D02*
X37460000Y-42540000D01*
X56510000Y-42540000D02*
X61590000Y-42540000D01*
X61590000Y-42540000D02*
X61590000Y-47620000D01*
X61590000Y-47620000D02*
X56510000Y-47620000D01*
X56510000Y-47620000D02*
X56510000Y-42540000D01*
X75560000Y-42540000D02*
X80640000Y-42540000D01*
X80640000Y-42540000D02*
X80640000Y-47620000D01*
X80640000Y-47620000D02*
X75560000Y-47620000D01*
X75560000Y-47620000D02*
X75560000Y-42540000D01*
X94610000Y-42540000D02*
X99690000Y-42540000D01*
X99690000Y-42540000D02*
X99690000Y-47620000D01*
X99690000Y-47620000D02*
X94610000Y-47620000D01*
X94610000Y-47620000D02*
X94610000Y-42540000D01*
X113660000Y-42540000D02*
X118740000Y-42540000D01*
X118740000Y-42540000D02*
X118740000Y-47620000D01*
X118740000Y-47620000D02*
X113660000Y-47620000D01*
X113660000Y-47620000D02*
X113660000Y-42540000D01*
X132710000Y-42540000D02*
X137790000Y-42540000D01*
X137790000Y-42540000D02*
X137790000Y-47620000D01*
X137790000Y-47620000D02*
X132710000Y-47620000D01*
X132710000Y-47620000D02*
X132710000Y-42540000D01*
X151760000Y-42540000D02*
X156840000Y-42540000D01*
X156840000Y-42540000D02*
X156840000Y-47620000D01*
X156840000Y-47620000D02*
X151760000Y-47620000D01*
X151760000Y-47620000D02*
X151760000Y-42540000D01*
X170810000Y-42540000D02*
X175890000Y-42540000D01*
X175890000Y-42540000D02*
X175890000Y-47620000D01*
X175890000Y-47620000D02*
X170810000Y-47620000D01*
X170810000Y-47620000D02*
X170810000Y-42540000D01*
X189860000Y-42540000D02*
X194940000Y-42540000D01*
X194940000Y-42540000D02*
X194940000Y-47620000D01*
X194940000Y-47620000D02*
X189860000Y-47620000D01*
X189860000Y-47620000D02*
X189860000Y-42540000D01*
X208910000Y-42540000D02*
X213990000Y-42540000D01*
X213990000Y-42540000D02*
X213990000Y-47620000D01*
X213990000Y-47620000D02*
X208910000Y-47620000D01*
X208910000Y-47620000D02*
X208910000Y-42540000D01*
X227960000Y-42540000D02*
X233040000Y-42540000D01*
X233040000Y-42540000D02*
X233040000Y-47620000D01*
X233040000Y-47620000D02*
X227960000Y-47620000D01*
X227960000Y-47620000D02*
X227960000Y-42540000D01*
X247010000Y-42540000D02*
X252090000Y-42540000D01*
X252090000Y-42540000D02*
X252090000Y-47620000D01*
X252090000Y-47620000D02*
X247010000Y-47620000D01*
X247010000Y-47620000D02*
X247010000Y-42540000D01*
X37460000Y-61590000D02*
X42540000Y-61590000D01*
X42540000Y-61590000D02*
X42540000Y-66670000D01*
X42540000Y-66670000D02*
X37460000Y-66670000D01*
X37460000Y-66670000D02*
X37460000Y-61590000D01*
X56510000Y-61590000D02*
X61590000Y-61590000D01*
X61590000Y-61590000D02*
X61590000Y-66670000D01*
X61590000Y-66670000D02*
X56510000Y-66670000D01*
X56510000Y-66670000D02*
X56510000Y-61590000D01*
X75560000Y-61590000D02*
X80640000Y-61590000D01*
X80640000Y-61590000D02*
X80640000Y-66670000D01*
X80640000Y-66670000D02*
X75560000Y-66670000D01*
X75560000Y-66670000D02*
X75560000Y-61590000D01*
X94610000Y-61590000D02*
X99690000Y-61590000D01*
X99690000Y-61590000D02*
X99690000Y-66670000D01*
X99690000Y-66670000D02*
X94610000Y-66670000D01*
X94610000Y-66670000D02*
X94610000Y-61590000D01*
X113660000Y-61590000D02*
X118740000Y-61590000D01*
X118740000Y-61590000D02*
X118740000Y-66670000D01*
X118740000Y-66670000D02*
X113660000Y-66670000D01*
X113660000Y-66670000D02*
X113660000Y-61590000D01*
X132710000Y-61590000D02*
X137790000Y-61590000D01*
X137790000Y-61590000D02*
X137790000Y-66670000D01*
X137790000Y-66670000D02*
X132710000Y-66670000D01*
X132710000Y-66670000D02*
X132710000Y-61590000D01*
X151760000Y-61590000D02*
X156840000Y-61590000D01*
X156840000Y-61590000D02*
X156840000Y-66670000D01*
X156840000Y-66670000D02*
X151760000Y-66670000D01*
X151760000Y-66670000D02*
X151760000Y-61590000D01*
X170810000Y-61590000D02*
X175890000Y-61590000D01*
X175890000Y-61590000D02*
X175890000Y-66670000D01*
X175890000Y-66670000D02*
X170810000Y-66670000D01*
X170810000Y-66670000D02*
X170810000Y-61590000D01*
X189860000Y-61590000D02*
X194940000Y-61590000D01*
X194940000Y-61590000D02*
X194940000Y-66670000D01*
X194940000Y-66670000D02*
X189860000Y-66670000D01*
X189860000Y-66670000D02*
X189860000Y-61590000D01*
X208910000Y-61590000D02*
X213990000Y-61590000D01*
X213990000Y-61590000D02*
X213990000Y-66670000D01*
X213990000Y-66670000D02*
X208910000Y-66670000D01*
X208910000Y-66670000D02*
X208910000Y-61590000D01*
X227960000Y-61590000D02*
X233040000Y-61590000D01*
X233040000Y-61590000D02*
X233040000Y-66670000D01*
X233040000Y-66670000D02*
X227960000Y-66670000D01*
X227960000Y-66670000D02*
X227960000Y-61590000D01*
X247010000Y-61590000D02*
X252090000Y-61590000D01*
X252090000Y-61590000D02*
X252090000Y-66670000D01*
X252090000Y-66670000D02*
X247010000Y-66670000D01*
X247010000Y-66670000D02*
X247010000Y-61590000D01*
X37460000Y-80640000D02*
X42540000Y-80640000D01*
X42540000Y-80640000D02*
X42540000Y-85720000D01*
X42540000Y-85720000D02*
X37460000Y-85720000D01*
X37460000Y-85720000D02*
X37460000Y-80640000D01*
X56510000Y-80640000D02*
X61590000Y-80640000D01*
X61590000Y-80640000D02*
X61590000Y-85720000D01*
X61590000Y-85720000D02*
X56510000Y-85720000D01*
X56510000Y-85720000D02*
X56510000Y-80640000D01*
X75560000Y-80640000D02*
X80640000Y-80640000D01*
X80640000Y-80640000D02*
X80640000Y-85720000D01*
X80640000Y-85720000D02*
X75560000Y-85720000D01*
X75560000Y-85720000D02*
X75560000Y-80640000D01*
X94610000Y-80640000D02*
X99690000Y-80640000D01*
X99690000Y-80640000D02*
X99690000Y-85720000D01*
X99690000Y-85720000D02*
X94610000Y-85720000D01*
X94610000Y-85720000D02*
X94610000Y-80640000D01*
X113660000Y-80640000D02*
X118740000Y-80640000D01*
X118740000Y-80640000D02*
X118740000Y-85720000D01*
X118740000Y-85720000D02*
X113660000Y-85720000D01*
X113660000Y-85720000D02*
X113660000Y-80640000D01*
X132710000Y-80640000D02*
X137790000Y-80640000D01*
X137790000Y-80640000D02*
X137790000Y-85720000D01*
X137790000Y-85720000D02*
X132710000Y-85720000D01*
X132710000Y-85720000D02*
X132710000Y-80640000D01*
X151760000Y-80640000D02*
X156840000Y-80640000D01*
X156840000Y-80640000D02*
X156840000Y-85720000D01*
X156840000Y-85720000D02*
X151760000Y-85720000D01*
X151760000Y-85720000D02*
X151760000Y-80640000D01*
X170810000Y-80640000D02*
X175890000Y-80640000D01*
X175890000Y-80640000D02*
X175890000Y-85720000D01*
X175890000Y-85720000D02*
X170810000Y-85720000D01*
X170810000Y-85720000D02*
X170810000Y-80640000D01*
X189860000Y-80640000D02*
X194940000Y-80640000D01*
X194940000Y-80640000D02*
X194940000Y-85720000D01*
X194940000Y-85720000D02*
X189860000Y-85720000D01*
X189860000Y-85720000D02*
X189860000Y-80640000D01*
X208910000Y-80640000D02*
X213990000Y-80640000D01*
X213990000Y-80640000D02*
X213990000Y-85720000D01*
X213990000Y-85720000D02*
X208910000Y-85720000D01*
X208910000Y-85720000D02*
X208910000Y-80640000D01*
X227960000Y-80640000D02*
X233040000Y-80640000D01*
X233040000Y-80640000D02*
X233040000Y-85720000D01*
X233040000Y-85720000D02*
X227960000Y-85720000D01*
X227960000Y-85720000D02*
X227960000Y-80640000D01*
X247010000Y-80640000D02*
X252090000Y-80640000D01*
X252090000Y-80640000D02*
X252090000Y-85720000D01*
X252090000Y-85720000D02*
X247010000Y-85720000D01*
X247010000Y-85720000D02*
X247010000Y-80640000D01*
X37460000Y-99690000D02*
X42540000Y-99690000D01*
X42540000Y-99690000D02*
X42540000Y-104770000D01*
X42540000Y-104770000D02*
X37460000Y-104770000D01*
X37460000Y-104770000D02*
X37460000Y-99690000D01*
X56510000Y-99690000D02*
X61590000Y-99690000D01*
X61590000Y-99690000D02*
X61590000Y-104770000D01*
X61590000Y-104770000D02*
X56510000Y-104770000D01*
X56510000Y-104770000D02*
X56510000Y-99690000D01*
X75560000Y-99690000D02*
X80640000Y-99690000D01*
X80640000Y-99690000D02*
X80640000Y-104770000D01*
X80640000Y-104770000D02*
X75560000Y-104770000D01*
X75560000Y-104770000D02*
X75560000Y-99690000D01*
X94610000Y-99690000D02*
X99690000Y-99690000D01*
X99690000Y-99690000D02*
X99690000Y-104770000D01*
X99690000Y-104770000D02*
X94610000Y-104770000D01*
X94610000Y-104770000D02*
X94610000Y-99690000D01*
X113660000Y-99690000D02*
X118740000Y-99690000D01*
X118740000Y-99690000D02*
X118740000Y-104770000D01*
X118740000Y-104770000D02*
X113660000Y-104770000D01*
X113660000Y-104770000D02*
X113660000Y-99690000D01*
X142235000Y-99690000D02*
X147315000Y-99690000D01*
X147315000Y-99690000D02*
X147315000Y-104770000D01*
X147315000Y-104770000D02*
X142235000Y-104770000D01*
X142235000Y-104770000D02*
X142235000Y-99690000D01*
X170810000Y-99690000D02*
X175890000Y-99690000D01*
X175890000Y-99690000D02*
X175890000Y-104770000D01*
X175890000Y-104770000D02*
X170810000Y-104770000D01*
X170810000Y-104770000D02*
X170810000Y-99690000D01*
X189860000Y-99690000D02*
X194940000Y-99690000D01*
X194940000Y-99690000D02*
X194940000Y-104770000D01*
X194940000Y-104770000D02*
X189860000Y-104770000D01*
X189860000Y-104770000D02*
X189860000Y-99690000D01*
X208910000Y-99690000D02*
X213990000Y-99690000D01*
X213990000Y-99690000D02*
X213990000Y-104770000D01*
X213990000Y-104770000D02*
X208910000Y-104770000D01*
X208910000Y-104770000D02*
X208910000Y-99690000D01*
X227960000Y-99690000D02*
X233040000Y-99690000D01*
X233040000Y-99690000D02*
X233040000Y-104770000D01*
X233040000Y-104770000D02*
X227960000Y-104770000D01*
X227960000Y-104770000D02*
X227960000Y-99690000D01*
X247010000Y-99690000D02*
X252090000Y-99690000D01*
X252090000Y-99690000D02*
X252090000Y-104770000D01*
X252090000Y-104770000D02*
X247010000Y-104770000D01*
X247010000Y-104770000D02*
X247010000Y-99690000D01*
M02*
