G04 #@! TF.FileFunction,Legend,Bot*
%FSLAX46Y46*%
G04 Gerber Fmt 4.6, Leading zero omitted, Abs format (unit mm)*
G04 Created by KiCad (PCBNEW 4.0.7) date 07/31/18 08:33:26*
%MOMM*%
%LPD*%
G01*
G04 APERTURE LIST*
%ADD10C,0.100000*%
%ADD11C,0.300000*%
%ADD12C,0.400000*%
%ADD13C,1.500000*%
%ADD14C,0.010000*%
%ADD15C,0.120000*%
%ADD16C,0.150000*%
%ADD17R,2.100000X2.400000*%
%ADD18R,3.150000X1.400000*%
%ADD19C,2.686000*%
%ADD20R,2.000000X2.000000*%
%ADD21C,2.000000*%
%ADD22R,1.924000X1.924000*%
%ADD23R,1.750000X1.750000*%
%ADD24O,1.750000X1.750000*%
%ADD25R,2.100000X3.700000*%
%ADD26C,1.924000*%
%ADD27R,2.400000X2.000000*%
G04 APERTURE END LIST*
D10*
D11*
X120503273Y-105284762D02*
X120550892Y-105665714D01*
X119931844Y-105284762D02*
X119979463Y-105665714D01*
X118658035Y-107094286D02*
X118741368Y-107189524D01*
X118967559Y-107284762D01*
X119110416Y-107284762D01*
X119312796Y-107189524D01*
X119431845Y-106999048D01*
X119479463Y-106808571D01*
X119503273Y-106427619D01*
X119467559Y-106141905D01*
X119348511Y-105760952D01*
X119253273Y-105570476D01*
X119086606Y-105380000D01*
X118860416Y-105284762D01*
X118717559Y-105284762D01*
X118515178Y-105380000D01*
X118455654Y-105475238D01*
X118038987Y-107284762D02*
X117788987Y-105284762D01*
X117396130Y-107284762D02*
X117265178Y-106237143D01*
X117312797Y-106046667D01*
X117443750Y-105951429D01*
X117658035Y-105951429D01*
X117812797Y-106046667D01*
X117896130Y-106141905D01*
X116098511Y-107189524D02*
X116253273Y-107284762D01*
X116538987Y-107284762D01*
X116669939Y-107189524D01*
X116717559Y-106999048D01*
X116622321Y-106237143D01*
X116527082Y-106046667D01*
X116372321Y-105951429D01*
X116086607Y-105951429D01*
X115955654Y-106046667D01*
X115908035Y-106237143D01*
X115931844Y-106427619D01*
X116669940Y-106618095D01*
X115455654Y-107189524D02*
X115324702Y-107284762D01*
X115038987Y-107284762D01*
X114884225Y-107189524D01*
X114788988Y-106999048D01*
X114777083Y-106903810D01*
X114824702Y-106713333D01*
X114955654Y-106618095D01*
X115169940Y-106618095D01*
X115300892Y-106522857D01*
X115348512Y-106332381D01*
X115336607Y-106237143D01*
X115241368Y-106046667D01*
X115086607Y-105951429D01*
X114872321Y-105951429D01*
X114741368Y-106046667D01*
X114241368Y-107189524D02*
X114110416Y-107284762D01*
X113824701Y-107284762D01*
X113669939Y-107189524D01*
X113574702Y-106999048D01*
X113562797Y-106903810D01*
X113610416Y-106713333D01*
X113741368Y-106618095D01*
X113955654Y-106618095D01*
X114086606Y-106522857D01*
X114134226Y-106332381D01*
X114122321Y-106237143D01*
X114027082Y-106046667D01*
X113872321Y-105951429D01*
X113658035Y-105951429D01*
X113527082Y-106046667D01*
X111169939Y-107189524D02*
X111324701Y-107284762D01*
X111610415Y-107284762D01*
X111741368Y-107189524D01*
X111800892Y-107094286D01*
X111848511Y-106903810D01*
X111777083Y-106332381D01*
X111681844Y-106141905D01*
X111598511Y-106046667D01*
X111443749Y-105951429D01*
X111158035Y-105951429D01*
X111027082Y-106046667D01*
X109896130Y-107284762D02*
X109765178Y-106237143D01*
X109812797Y-106046667D01*
X109943750Y-105951429D01*
X110229464Y-105951429D01*
X110384225Y-106046667D01*
X109884225Y-107189524D02*
X110038987Y-107284762D01*
X110396130Y-107284762D01*
X110527082Y-107189524D01*
X110574702Y-106999048D01*
X110550892Y-106808571D01*
X110455654Y-106618095D01*
X110300892Y-106522857D01*
X109943749Y-106522857D01*
X109788987Y-106427619D01*
X109015178Y-105951429D02*
X109181844Y-107284762D01*
X109038987Y-106141905D02*
X108955654Y-106046667D01*
X108800892Y-105951429D01*
X108586607Y-105951429D01*
X108455654Y-106046667D01*
X108408035Y-106237143D01*
X108538987Y-107284762D01*
X106681844Y-107284762D02*
X106431844Y-105284762D01*
X106527082Y-106046667D02*
X106372321Y-105951429D01*
X106086607Y-105951429D01*
X105955654Y-106046667D01*
X105896130Y-106141905D01*
X105848511Y-106332381D01*
X105919939Y-106903810D01*
X106015178Y-107094286D01*
X106098511Y-107189524D01*
X106253273Y-107284762D01*
X106538987Y-107284762D01*
X106669939Y-107189524D01*
X104741368Y-107189524D02*
X104896130Y-107284762D01*
X105181844Y-107284762D01*
X105312796Y-107189524D01*
X105360416Y-106999048D01*
X105265178Y-106237143D01*
X105169939Y-106046667D01*
X105015178Y-105951429D01*
X104729464Y-105951429D01*
X104598511Y-106046667D01*
X104550892Y-106237143D01*
X104574701Y-106427619D01*
X105312797Y-106618095D01*
X102253273Y-107284762D02*
X102003273Y-105284762D01*
X102241368Y-107189524D02*
X102396130Y-107284762D01*
X102681844Y-107284762D01*
X102812797Y-107189524D01*
X102872321Y-107094286D01*
X102919940Y-106903810D01*
X102848512Y-106332381D01*
X102753273Y-106141905D01*
X102669940Y-106046667D01*
X102515178Y-105951429D01*
X102229464Y-105951429D01*
X102098511Y-106046667D01*
X100955654Y-107189524D02*
X101110416Y-107284762D01*
X101396130Y-107284762D01*
X101527082Y-107189524D01*
X101574702Y-106999048D01*
X101479464Y-106237143D01*
X101384225Y-106046667D01*
X101229464Y-105951429D01*
X100943750Y-105951429D01*
X100812797Y-106046667D01*
X100765178Y-106237143D01*
X100788987Y-106427619D01*
X101527083Y-106618095D01*
X100312797Y-107189524D02*
X100181845Y-107284762D01*
X99896130Y-107284762D01*
X99741368Y-107189524D01*
X99646131Y-106999048D01*
X99634226Y-106903810D01*
X99681845Y-106713333D01*
X99812797Y-106618095D01*
X100027083Y-106618095D01*
X100158035Y-106522857D01*
X100205655Y-106332381D01*
X100193750Y-106237143D01*
X100098511Y-106046667D01*
X99943750Y-105951429D01*
X99729464Y-105951429D01*
X99598511Y-106046667D01*
X98384225Y-107189524D02*
X98538987Y-107284762D01*
X98824701Y-107284762D01*
X98955654Y-107189524D01*
X99015178Y-107094286D01*
X99062797Y-106903810D01*
X98991369Y-106332381D01*
X98896130Y-106141905D01*
X98812797Y-106046667D01*
X98658035Y-105951429D01*
X98372321Y-105951429D01*
X98241368Y-106046667D01*
X97753273Y-107284762D02*
X97586607Y-105951429D01*
X97634226Y-106332381D02*
X97538988Y-106141905D01*
X97455654Y-106046667D01*
X97300893Y-105951429D01*
X97158036Y-105951429D01*
X96824702Y-107284762D02*
X96658036Y-105951429D01*
X96574702Y-105284762D02*
X96658036Y-105380000D01*
X96598512Y-105475238D01*
X96515179Y-105380000D01*
X96574702Y-105284762D01*
X96598512Y-105475238D01*
X96110416Y-107284762D02*
X95860416Y-105284762D01*
X95955654Y-106046667D02*
X95800893Y-105951429D01*
X95515179Y-105951429D01*
X95384226Y-106046667D01*
X95324702Y-106141905D01*
X95277083Y-106332381D01*
X95348511Y-106903810D01*
X95443750Y-107094286D01*
X95527083Y-107189524D01*
X95681845Y-107284762D01*
X95967559Y-107284762D01*
X96098511Y-107189524D01*
X94169940Y-107189524D02*
X94324702Y-107284762D01*
X94610416Y-107284762D01*
X94741368Y-107189524D01*
X94788988Y-106999048D01*
X94693750Y-106237143D01*
X94598511Y-106046667D01*
X94443750Y-105951429D01*
X94158036Y-105951429D01*
X94027083Y-106046667D01*
X93979464Y-106237143D01*
X94003273Y-106427619D01*
X94741369Y-106618095D01*
X92824702Y-107284762D02*
X92574702Y-105284762D01*
X92812797Y-107189524D02*
X92967559Y-107284762D01*
X93253273Y-107284762D01*
X93384226Y-107189524D01*
X93443750Y-107094286D01*
X93491369Y-106903810D01*
X93419941Y-106332381D01*
X93324702Y-106141905D01*
X93241369Y-106046667D01*
X93086607Y-105951429D01*
X92800893Y-105951429D01*
X92669940Y-106046667D01*
X90324702Y-107284762D02*
X90193750Y-106237143D01*
X90241369Y-106046667D01*
X90372322Y-105951429D01*
X90658036Y-105951429D01*
X90812797Y-106046667D01*
X90312797Y-107189524D02*
X90467559Y-107284762D01*
X90824702Y-107284762D01*
X90955654Y-107189524D01*
X91003274Y-106999048D01*
X90979464Y-106808571D01*
X90884226Y-106618095D01*
X90729464Y-106522857D01*
X90372321Y-106522857D01*
X90217559Y-106427619D01*
X89669940Y-107189524D02*
X89538988Y-107284762D01*
X89253273Y-107284762D01*
X89098511Y-107189524D01*
X89003274Y-106999048D01*
X88991369Y-106903810D01*
X89038988Y-106713333D01*
X89169940Y-106618095D01*
X89384226Y-106618095D01*
X89515178Y-106522857D01*
X89562798Y-106332381D01*
X89550893Y-106237143D01*
X89455654Y-106046667D01*
X89300893Y-105951429D01*
X89086607Y-105951429D01*
X88955654Y-106046667D01*
X87300893Y-105951429D02*
X86729464Y-105951429D01*
X87003273Y-105284762D02*
X87217559Y-106999048D01*
X87169940Y-107189524D01*
X87038987Y-107284762D01*
X86896130Y-107284762D01*
X86396130Y-107284762D02*
X86146130Y-105284762D01*
X85753273Y-107284762D02*
X85622321Y-106237143D01*
X85669940Y-106046667D01*
X85800893Y-105951429D01*
X86015178Y-105951429D01*
X86169940Y-106046667D01*
X86253273Y-106141905D01*
X84455654Y-107189524D02*
X84610416Y-107284762D01*
X84896130Y-107284762D01*
X85027082Y-107189524D01*
X85074702Y-106999048D01*
X84979464Y-106237143D01*
X84884225Y-106046667D01*
X84729464Y-105951429D01*
X84443750Y-105951429D01*
X84312797Y-106046667D01*
X84265178Y-106237143D01*
X84288987Y-106427619D01*
X85027083Y-106618095D01*
X82610416Y-107284762D02*
X82443750Y-105951429D01*
X82467559Y-106141905D02*
X82384226Y-106046667D01*
X82229464Y-105951429D01*
X82015179Y-105951429D01*
X81884226Y-106046667D01*
X81836607Y-106237143D01*
X81967559Y-107284762D01*
X81836607Y-106237143D02*
X81741368Y-106046667D01*
X81586607Y-105951429D01*
X81372322Y-105951429D01*
X81241368Y-106046667D01*
X81193750Y-106237143D01*
X81324702Y-107284762D01*
X80396130Y-107284762D02*
X80527083Y-107189524D01*
X80586607Y-107094286D01*
X80634226Y-106903810D01*
X80562798Y-106332381D01*
X80467559Y-106141905D01*
X80384226Y-106046667D01*
X80229464Y-105951429D01*
X80015179Y-105951429D01*
X79884226Y-106046667D01*
X79824702Y-106141905D01*
X79777083Y-106332381D01*
X79848511Y-106903810D01*
X79943750Y-107094286D01*
X80027083Y-107189524D01*
X80181845Y-107284762D01*
X80396130Y-107284762D01*
X79229464Y-105951429D02*
X79038987Y-107284762D01*
X78515179Y-105951429D01*
X77527083Y-107189524D02*
X77681845Y-107284762D01*
X77967559Y-107284762D01*
X78098511Y-107189524D01*
X78146131Y-106999048D01*
X78050893Y-106237143D01*
X77955654Y-106046667D01*
X77800893Y-105951429D01*
X77515179Y-105951429D01*
X77384226Y-106046667D01*
X77336607Y-106237143D01*
X77360416Y-106427619D01*
X78098512Y-106618095D01*
X76824702Y-107284762D02*
X76658036Y-105951429D01*
X76681845Y-106141905D02*
X76598512Y-106046667D01*
X76443750Y-105951429D01*
X76229465Y-105951429D01*
X76098512Y-106046667D01*
X76050893Y-106237143D01*
X76181845Y-107284762D01*
X76050893Y-106237143D02*
X75955654Y-106046667D01*
X75800893Y-105951429D01*
X75586608Y-105951429D01*
X75455654Y-106046667D01*
X75408036Y-106237143D01*
X75538988Y-107284762D01*
X74241369Y-107189524D02*
X74396131Y-107284762D01*
X74681845Y-107284762D01*
X74812797Y-107189524D01*
X74860417Y-106999048D01*
X74765179Y-106237143D01*
X74669940Y-106046667D01*
X74515179Y-105951429D01*
X74229465Y-105951429D01*
X74098512Y-106046667D01*
X74050893Y-106237143D01*
X74074702Y-106427619D01*
X74812798Y-106618095D01*
X73372322Y-105951429D02*
X73538988Y-107284762D01*
X73396131Y-106141905D02*
X73312798Y-106046667D01*
X73158036Y-105951429D01*
X72943751Y-105951429D01*
X72812798Y-106046667D01*
X72765179Y-106237143D01*
X72896131Y-107284762D01*
X72229465Y-105951429D02*
X71658036Y-105951429D01*
X71931845Y-105284762D02*
X72146131Y-106999048D01*
X72098512Y-107189524D01*
X71967559Y-107284762D01*
X71824702Y-107284762D01*
X69967559Y-107284762D02*
X70098512Y-107189524D01*
X70158036Y-107094286D01*
X70205655Y-106903810D01*
X70134227Y-106332381D01*
X70038988Y-106141905D01*
X69955655Y-106046667D01*
X69800893Y-105951429D01*
X69586608Y-105951429D01*
X69455655Y-106046667D01*
X69396131Y-106141905D01*
X69348512Y-106332381D01*
X69419940Y-106903810D01*
X69515179Y-107094286D01*
X69598512Y-107189524D01*
X69753274Y-107284762D01*
X69967559Y-107284762D01*
X68872322Y-105951429D02*
X68300893Y-105951429D01*
X68824702Y-107284762D02*
X68610416Y-105570476D01*
X68515179Y-105380000D01*
X68360416Y-105284762D01*
X68217559Y-105284762D01*
X66658036Y-105951429D02*
X66908036Y-107951429D01*
X66669940Y-106046667D02*
X66515179Y-105951429D01*
X66229465Y-105951429D01*
X66098512Y-106046667D01*
X66038988Y-106141905D01*
X65991369Y-106332381D01*
X66062797Y-106903810D01*
X66158036Y-107094286D01*
X66241369Y-107189524D01*
X66396131Y-107284762D01*
X66681845Y-107284762D01*
X66812797Y-107189524D01*
X65467559Y-107284762D02*
X65300893Y-105951429D01*
X65217559Y-105284762D02*
X65300893Y-105380000D01*
X65241369Y-105475238D01*
X65158036Y-105380000D01*
X65217559Y-105284762D01*
X65241369Y-105475238D01*
X64169940Y-107189524D02*
X64324702Y-107284762D01*
X64610416Y-107284762D01*
X64741368Y-107189524D01*
X64788988Y-106999048D01*
X64693750Y-106237143D01*
X64598511Y-106046667D01*
X64443750Y-105951429D01*
X64158036Y-105951429D01*
X64027083Y-106046667D01*
X63979464Y-106237143D01*
X64003273Y-106427619D01*
X64741369Y-106618095D01*
X62812797Y-107189524D02*
X62967559Y-107284762D01*
X63253273Y-107284762D01*
X63384226Y-107189524D01*
X63443750Y-107094286D01*
X63491369Y-106903810D01*
X63419941Y-106332381D01*
X63324702Y-106141905D01*
X63241369Y-106046667D01*
X63086607Y-105951429D01*
X62800893Y-105951429D01*
X62669940Y-106046667D01*
X61598512Y-107189524D02*
X61753274Y-107284762D01*
X62038988Y-107284762D01*
X62169940Y-107189524D01*
X62217560Y-106999048D01*
X62122322Y-106237143D01*
X62027083Y-106046667D01*
X61872322Y-105951429D01*
X61586608Y-105951429D01*
X61455655Y-106046667D01*
X61408036Y-106237143D01*
X61431845Y-106427619D01*
X62169941Y-106618095D01*
X60955655Y-107189524D02*
X60824703Y-107284762D01*
X60538988Y-107284762D01*
X60384226Y-107189524D01*
X60288989Y-106999048D01*
X60277084Y-106903810D01*
X60324703Y-106713333D01*
X60455655Y-106618095D01*
X60669941Y-106618095D01*
X60800893Y-106522857D01*
X60848513Y-106332381D01*
X60836608Y-106237143D01*
X60741369Y-106046667D01*
X60586608Y-105951429D01*
X60372322Y-105951429D01*
X60241369Y-106046667D01*
X57955655Y-107189524D02*
X58110417Y-107284762D01*
X58396131Y-107284762D01*
X58527083Y-107189524D01*
X58574703Y-106999048D01*
X58479465Y-106237143D01*
X58384226Y-106046667D01*
X58229465Y-105951429D01*
X57943751Y-105951429D01*
X57812798Y-106046667D01*
X57765179Y-106237143D01*
X57788988Y-106427619D01*
X58527084Y-106618095D01*
X56610417Y-107284762D02*
X56479465Y-106237143D01*
X56527084Y-106046667D01*
X56658037Y-105951429D01*
X56943751Y-105951429D01*
X57098512Y-106046667D01*
X56598512Y-107189524D02*
X56753274Y-107284762D01*
X57110417Y-107284762D01*
X57241369Y-107189524D01*
X57288989Y-106999048D01*
X57265179Y-106808571D01*
X57169941Y-106618095D01*
X57015179Y-106522857D01*
X56658036Y-106522857D01*
X56503274Y-106427619D01*
X55943751Y-105951429D02*
X55372322Y-105951429D01*
X55646131Y-105284762D02*
X55860417Y-106999048D01*
X55812798Y-107189524D01*
X55681845Y-107284762D01*
X55538988Y-107284762D01*
X55038988Y-107284762D02*
X54872322Y-105951429D01*
X54788988Y-105284762D02*
X54872322Y-105380000D01*
X54812798Y-105475238D01*
X54729465Y-105380000D01*
X54788988Y-105284762D01*
X54812798Y-105475238D01*
X54158036Y-105951429D02*
X54324702Y-107284762D01*
X54181845Y-106141905D02*
X54098512Y-106046667D01*
X53943750Y-105951429D01*
X53729465Y-105951429D01*
X53598512Y-106046667D01*
X53550893Y-106237143D01*
X53681845Y-107284762D01*
X52158036Y-105951429D02*
X52360417Y-107570476D01*
X52455655Y-107760952D01*
X52538988Y-107856190D01*
X52693750Y-107951429D01*
X52908036Y-107951429D01*
X53038988Y-107856190D01*
X52312797Y-107189524D02*
X52467559Y-107284762D01*
X52753273Y-107284762D01*
X52884226Y-107189524D01*
X52943750Y-107094286D01*
X52991369Y-106903810D01*
X52919941Y-106332381D01*
X52824702Y-106141905D01*
X52741369Y-106046667D01*
X52586607Y-105951429D01*
X52300893Y-105951429D01*
X52169940Y-106046667D01*
X50253273Y-107284762D02*
X50384226Y-107189524D01*
X50443750Y-107094286D01*
X50491369Y-106903810D01*
X50419941Y-106332381D01*
X50324702Y-106141905D01*
X50241369Y-106046667D01*
X50086607Y-105951429D01*
X49872322Y-105951429D01*
X49741369Y-106046667D01*
X49681845Y-106141905D01*
X49634226Y-106332381D01*
X49705654Y-106903810D01*
X49800893Y-107094286D01*
X49884226Y-107189524D01*
X50038988Y-107284762D01*
X50253273Y-107284762D01*
X48943750Y-105951429D02*
X49110416Y-107284762D01*
X48967559Y-106141905D02*
X48884226Y-106046667D01*
X48729464Y-105951429D01*
X48515179Y-105951429D01*
X48384226Y-106046667D01*
X48336607Y-106237143D01*
X48467559Y-107284762D01*
X47169940Y-107189524D02*
X47324702Y-107284762D01*
X47610416Y-107284762D01*
X47741368Y-107189524D01*
X47788988Y-106999048D01*
X47693750Y-106237143D01*
X47598511Y-106046667D01*
X47443750Y-105951429D01*
X47158036Y-105951429D01*
X47027083Y-106046667D01*
X46979464Y-106237143D01*
X47003273Y-106427619D01*
X47741369Y-106618095D01*
X44681845Y-107284762D02*
X44550893Y-106237143D01*
X44598512Y-106046667D01*
X44729465Y-105951429D01*
X45015179Y-105951429D01*
X45169940Y-106046667D01*
X44669940Y-107189524D02*
X44824702Y-107284762D01*
X45181845Y-107284762D01*
X45312797Y-107189524D01*
X45360417Y-106999048D01*
X45336607Y-106808571D01*
X45241369Y-106618095D01*
X45086607Y-106522857D01*
X44729464Y-106522857D01*
X44574702Y-106427619D01*
X43800893Y-105951429D02*
X43967559Y-107284762D01*
X43824702Y-106141905D02*
X43741369Y-106046667D01*
X43586607Y-105951429D01*
X43372322Y-105951429D01*
X43241369Y-106046667D01*
X43193750Y-106237143D01*
X43324702Y-107284762D01*
X42396130Y-107284762D02*
X42527083Y-107189524D01*
X42586607Y-107094286D01*
X42634226Y-106903810D01*
X42562798Y-106332381D01*
X42467559Y-106141905D01*
X42384226Y-106046667D01*
X42229464Y-105951429D01*
X42015179Y-105951429D01*
X41884226Y-106046667D01*
X41824702Y-106141905D01*
X41777083Y-106332381D01*
X41848511Y-106903810D01*
X41943750Y-107094286D01*
X42027083Y-107189524D01*
X42181845Y-107284762D01*
X42396130Y-107284762D01*
X41300893Y-105951429D02*
X40729464Y-105951429D01*
X41003273Y-105284762D02*
X41217559Y-106999048D01*
X41169940Y-107189524D01*
X41038987Y-107284762D01*
X40896130Y-107284762D01*
X40396130Y-107284762D02*
X40146130Y-105284762D01*
X39753273Y-107284762D02*
X39622321Y-106237143D01*
X39669940Y-106046667D01*
X39800893Y-105951429D01*
X40015178Y-105951429D01*
X40169940Y-106046667D01*
X40253273Y-106141905D01*
X38455654Y-107189524D02*
X38610416Y-107284762D01*
X38896130Y-107284762D01*
X39027082Y-107189524D01*
X39074702Y-106999048D01*
X38979464Y-106237143D01*
X38884225Y-106046667D01*
X38729464Y-105951429D01*
X38443750Y-105951429D01*
X38312797Y-106046667D01*
X38265178Y-106237143D01*
X38288987Y-106427619D01*
X39027083Y-106618095D01*
X37753273Y-107284762D02*
X37586607Y-105951429D01*
X37634226Y-106332381D02*
X37538988Y-106141905D01*
X37455654Y-106046667D01*
X37300893Y-105951429D01*
X37158036Y-105951429D01*
X36800893Y-107094286D02*
X36741369Y-107189524D01*
X36824702Y-107284762D01*
X36884226Y-107189524D01*
X36800893Y-107094286D01*
X36824702Y-107284762D01*
X35931845Y-105284762D02*
X35979464Y-105665714D01*
X35360416Y-105284762D02*
X35408035Y-105665714D01*
X254035715Y-107284762D02*
X254035715Y-105284762D01*
X253535715Y-106713333D01*
X253035715Y-105284762D01*
X253035715Y-107284762D01*
X251678572Y-107284762D02*
X251678572Y-106237143D01*
X251750001Y-106046667D01*
X251892858Y-105951429D01*
X252178572Y-105951429D01*
X252321429Y-106046667D01*
X251678572Y-107189524D02*
X251821429Y-107284762D01*
X252178572Y-107284762D01*
X252321429Y-107189524D01*
X252392858Y-106999048D01*
X252392858Y-106808571D01*
X252321429Y-106618095D01*
X252178572Y-106522857D01*
X251821429Y-106522857D01*
X251678572Y-106427619D01*
X250321429Y-107284762D02*
X250321429Y-105284762D01*
X250321429Y-107189524D02*
X250464286Y-107284762D01*
X250750000Y-107284762D01*
X250892858Y-107189524D01*
X250964286Y-107094286D01*
X251035715Y-106903810D01*
X251035715Y-106332381D01*
X250964286Y-106141905D01*
X250892858Y-106046667D01*
X250750000Y-105951429D01*
X250464286Y-105951429D01*
X250321429Y-106046667D01*
X249035715Y-107189524D02*
X249178572Y-107284762D01*
X249464286Y-107284762D01*
X249607143Y-107189524D01*
X249678572Y-106999048D01*
X249678572Y-106237143D01*
X249607143Y-106046667D01*
X249464286Y-105951429D01*
X249178572Y-105951429D01*
X249035715Y-106046667D01*
X248964286Y-106237143D01*
X248964286Y-106427619D01*
X249678572Y-106618095D01*
X247178572Y-107284762D02*
X247178572Y-105284762D01*
X247178572Y-106046667D02*
X247035715Y-105951429D01*
X246750001Y-105951429D01*
X246607144Y-106046667D01*
X246535715Y-106141905D01*
X246464286Y-106332381D01*
X246464286Y-106903810D01*
X246535715Y-107094286D01*
X246607144Y-107189524D01*
X246750001Y-107284762D01*
X247035715Y-107284762D01*
X247178572Y-107189524D01*
X245964286Y-105951429D02*
X245607143Y-107284762D01*
X245250001Y-105951429D02*
X245607143Y-107284762D01*
X245750001Y-107760952D01*
X245821429Y-107856190D01*
X245964286Y-107951429D01*
X243535715Y-107284762D02*
X243535715Y-105284762D01*
X242678572Y-107284762D01*
X242678572Y-105284762D01*
X241892858Y-107284762D02*
X241607143Y-107284762D01*
X241464286Y-107189524D01*
X241392858Y-107094286D01*
X241250000Y-106808571D01*
X241178572Y-106427619D01*
X241178572Y-105665714D01*
X241250000Y-105475238D01*
X241321429Y-105380000D01*
X241464286Y-105284762D01*
X241750000Y-105284762D01*
X241892858Y-105380000D01*
X241964286Y-105475238D01*
X242035715Y-105665714D01*
X242035715Y-106141905D01*
X241964286Y-106332381D01*
X241892858Y-106427619D01*
X241750000Y-106522857D01*
X241464286Y-106522857D01*
X241321429Y-106427619D01*
X241250000Y-106332381D01*
X241178572Y-106141905D01*
X240678572Y-105951429D02*
X240321429Y-107284762D01*
X239964287Y-105951429D01*
X238821430Y-107189524D02*
X238964287Y-107284762D01*
X239250001Y-107284762D01*
X239392858Y-107189524D01*
X239464287Y-106999048D01*
X239464287Y-106237143D01*
X239392858Y-106046667D01*
X239250001Y-105951429D01*
X238964287Y-105951429D01*
X238821430Y-106046667D01*
X238750001Y-106237143D01*
X238750001Y-106427619D01*
X239464287Y-106618095D01*
X238107144Y-107284762D02*
X238107144Y-105951429D01*
X238107144Y-106141905D02*
X238035716Y-106046667D01*
X237892858Y-105951429D01*
X237678573Y-105951429D01*
X237535716Y-106046667D01*
X237464287Y-106237143D01*
X237464287Y-107284762D01*
X237464287Y-106237143D02*
X237392858Y-106046667D01*
X237250001Y-105951429D01*
X237035716Y-105951429D01*
X236892858Y-106046667D01*
X236821430Y-106237143D01*
X236821430Y-107284762D01*
X236107144Y-107094286D02*
X236035716Y-107189524D01*
X236107144Y-107284762D01*
X236178573Y-107189524D01*
X236107144Y-107094286D01*
X236107144Y-107284762D01*
X234250001Y-107284762D02*
X234250001Y-105284762D01*
X232607144Y-105951429D02*
X232035715Y-105951429D01*
X232392858Y-105284762D02*
X232392858Y-106999048D01*
X232321430Y-107189524D01*
X232178572Y-107284762D01*
X232035715Y-107284762D01*
X231321429Y-107284762D02*
X231464287Y-107189524D01*
X231535715Y-107094286D01*
X231607144Y-106903810D01*
X231607144Y-106332381D01*
X231535715Y-106141905D01*
X231464287Y-106046667D01*
X231321429Y-105951429D01*
X231107144Y-105951429D01*
X230964287Y-106046667D01*
X230892858Y-106141905D01*
X230821429Y-106332381D01*
X230821429Y-106903810D01*
X230892858Y-107094286D01*
X230964287Y-107189524D01*
X231107144Y-107284762D01*
X231321429Y-107284762D01*
X229964286Y-107284762D02*
X230107144Y-107189524D01*
X230178572Y-107094286D01*
X230250001Y-106903810D01*
X230250001Y-106332381D01*
X230178572Y-106141905D01*
X230107144Y-106046667D01*
X229964286Y-105951429D01*
X229750001Y-105951429D01*
X229607144Y-106046667D01*
X229535715Y-106141905D01*
X229464286Y-106332381D01*
X229464286Y-106903810D01*
X229535715Y-107094286D01*
X229607144Y-107189524D01*
X229750001Y-107284762D01*
X229964286Y-107284762D01*
X228821429Y-107284762D02*
X228821429Y-105284762D01*
X228678572Y-106522857D02*
X228250001Y-107284762D01*
X228250001Y-105951429D02*
X228821429Y-106713333D01*
X226678572Y-105951429D02*
X226107143Y-105951429D01*
X226464286Y-105284762D02*
X226464286Y-106999048D01*
X226392858Y-107189524D01*
X226250000Y-107284762D01*
X226107143Y-107284762D01*
X225607143Y-107284762D02*
X225607143Y-105284762D01*
X224964286Y-107284762D02*
X224964286Y-106237143D01*
X225035715Y-106046667D01*
X225178572Y-105951429D01*
X225392857Y-105951429D01*
X225535715Y-106046667D01*
X225607143Y-106141905D01*
X223678572Y-107189524D02*
X223821429Y-107284762D01*
X224107143Y-107284762D01*
X224250000Y-107189524D01*
X224321429Y-106999048D01*
X224321429Y-106237143D01*
X224250000Y-106046667D01*
X224107143Y-105951429D01*
X223821429Y-105951429D01*
X223678572Y-106046667D01*
X223607143Y-106237143D01*
X223607143Y-106427619D01*
X224321429Y-106618095D01*
X221821429Y-107284762D02*
X221821429Y-105951429D01*
X221821429Y-105284762D02*
X221892858Y-105380000D01*
X221821429Y-105475238D01*
X221750001Y-105380000D01*
X221821429Y-105284762D01*
X221821429Y-105475238D01*
X221107143Y-105951429D02*
X221107143Y-107284762D01*
X221107143Y-106141905D02*
X221035715Y-106046667D01*
X220892857Y-105951429D01*
X220678572Y-105951429D01*
X220535715Y-106046667D01*
X220464286Y-106237143D01*
X220464286Y-107284762D01*
X219821429Y-107189524D02*
X219678572Y-107284762D01*
X219392857Y-107284762D01*
X219250000Y-107189524D01*
X219178572Y-106999048D01*
X219178572Y-106903810D01*
X219250000Y-106713333D01*
X219392857Y-106618095D01*
X219607143Y-106618095D01*
X219750000Y-106522857D01*
X219821429Y-106332381D01*
X219821429Y-106237143D01*
X219750000Y-106046667D01*
X219607143Y-105951429D01*
X219392857Y-105951429D01*
X219250000Y-106046667D01*
X218535714Y-105951429D02*
X218535714Y-107951429D01*
X218535714Y-106046667D02*
X218392857Y-105951429D01*
X218107143Y-105951429D01*
X217964286Y-106046667D01*
X217892857Y-106141905D01*
X217821428Y-106332381D01*
X217821428Y-106903810D01*
X217892857Y-107094286D01*
X217964286Y-107189524D01*
X218107143Y-107284762D01*
X218392857Y-107284762D01*
X218535714Y-107189524D01*
X217178571Y-107284762D02*
X217178571Y-105951429D01*
X217178571Y-105284762D02*
X217250000Y-105380000D01*
X217178571Y-105475238D01*
X217107143Y-105380000D01*
X217178571Y-105284762D01*
X217178571Y-105475238D01*
X216464285Y-107284762D02*
X216464285Y-105951429D01*
X216464285Y-106332381D02*
X216392857Y-106141905D01*
X216321428Y-106046667D01*
X216178571Y-105951429D01*
X216035714Y-105951429D01*
X214892857Y-107284762D02*
X214892857Y-106237143D01*
X214964286Y-106046667D01*
X215107143Y-105951429D01*
X215392857Y-105951429D01*
X215535714Y-106046667D01*
X214892857Y-107189524D02*
X215035714Y-107284762D01*
X215392857Y-107284762D01*
X215535714Y-107189524D01*
X215607143Y-106999048D01*
X215607143Y-106808571D01*
X215535714Y-106618095D01*
X215392857Y-106522857D01*
X215035714Y-106522857D01*
X214892857Y-106427619D01*
X214392857Y-105951429D02*
X213821428Y-105951429D01*
X214178571Y-105284762D02*
X214178571Y-106999048D01*
X214107143Y-107189524D01*
X213964285Y-107284762D01*
X213821428Y-107284762D01*
X213321428Y-107284762D02*
X213321428Y-105951429D01*
X213321428Y-105284762D02*
X213392857Y-105380000D01*
X213321428Y-105475238D01*
X213250000Y-105380000D01*
X213321428Y-105284762D01*
X213321428Y-105475238D01*
X212392856Y-107284762D02*
X212535714Y-107189524D01*
X212607142Y-107094286D01*
X212678571Y-106903810D01*
X212678571Y-106332381D01*
X212607142Y-106141905D01*
X212535714Y-106046667D01*
X212392856Y-105951429D01*
X212178571Y-105951429D01*
X212035714Y-106046667D01*
X211964285Y-106141905D01*
X211892856Y-106332381D01*
X211892856Y-106903810D01*
X211964285Y-107094286D01*
X212035714Y-107189524D01*
X212178571Y-107284762D01*
X212392856Y-107284762D01*
X211249999Y-105951429D02*
X211249999Y-107284762D01*
X211249999Y-106141905D02*
X211178571Y-106046667D01*
X211035713Y-105951429D01*
X210821428Y-105951429D01*
X210678571Y-106046667D01*
X210607142Y-106237143D01*
X210607142Y-107284762D01*
X208964285Y-105951429D02*
X208392856Y-105951429D01*
X208749999Y-107284762D02*
X208749999Y-105570476D01*
X208678571Y-105380000D01*
X208535713Y-105284762D01*
X208392856Y-105284762D01*
X207892856Y-107284762D02*
X207892856Y-105951429D01*
X207892856Y-106332381D02*
X207821428Y-106141905D01*
X207749999Y-106046667D01*
X207607142Y-105951429D01*
X207464285Y-105951429D01*
X206749999Y-107284762D02*
X206892857Y-107189524D01*
X206964285Y-107094286D01*
X207035714Y-106903810D01*
X207035714Y-106332381D01*
X206964285Y-106141905D01*
X206892857Y-106046667D01*
X206749999Y-105951429D01*
X206535714Y-105951429D01*
X206392857Y-106046667D01*
X206321428Y-106141905D01*
X206249999Y-106332381D01*
X206249999Y-106903810D01*
X206321428Y-107094286D01*
X206392857Y-107189524D01*
X206535714Y-107284762D01*
X206749999Y-107284762D01*
X205607142Y-107284762D02*
X205607142Y-105951429D01*
X205607142Y-106141905D02*
X205535714Y-106046667D01*
X205392856Y-105951429D01*
X205178571Y-105951429D01*
X205035714Y-106046667D01*
X204964285Y-106237143D01*
X204964285Y-107284762D01*
X204964285Y-106237143D02*
X204892856Y-106046667D01*
X204749999Y-105951429D01*
X204535714Y-105951429D01*
X204392856Y-106046667D01*
X204321428Y-106237143D01*
X204321428Y-107284762D01*
X202678571Y-105951429D02*
X202107142Y-105951429D01*
X202464285Y-105284762D02*
X202464285Y-106999048D01*
X202392857Y-107189524D01*
X202249999Y-107284762D01*
X202107142Y-107284762D01*
X201607142Y-107284762D02*
X201607142Y-105284762D01*
X200964285Y-107284762D02*
X200964285Y-106237143D01*
X201035714Y-106046667D01*
X201178571Y-105951429D01*
X201392856Y-105951429D01*
X201535714Y-106046667D01*
X201607142Y-106141905D01*
X199678571Y-107189524D02*
X199821428Y-107284762D01*
X200107142Y-107284762D01*
X200249999Y-107189524D01*
X200321428Y-106999048D01*
X200321428Y-106237143D01*
X200249999Y-106046667D01*
X200107142Y-105951429D01*
X199821428Y-105951429D01*
X199678571Y-106046667D01*
X199607142Y-106237143D01*
X199607142Y-106427619D01*
X200321428Y-106618095D01*
X198035714Y-105951429D02*
X197464285Y-105951429D01*
X197821428Y-105284762D02*
X197821428Y-106999048D01*
X197750000Y-107189524D01*
X197607142Y-107284762D01*
X197464285Y-107284762D01*
X196749999Y-107284762D02*
X196892857Y-107189524D01*
X196964285Y-107094286D01*
X197035714Y-106903810D01*
X197035714Y-106332381D01*
X196964285Y-106141905D01*
X196892857Y-106046667D01*
X196749999Y-105951429D01*
X196535714Y-105951429D01*
X196392857Y-106046667D01*
X196321428Y-106141905D01*
X196249999Y-106332381D01*
X196249999Y-106903810D01*
X196321428Y-107094286D01*
X196392857Y-107189524D01*
X196535714Y-107284762D01*
X196749999Y-107284762D01*
X195607142Y-107284762D02*
X195607142Y-105951429D01*
X195607142Y-106141905D02*
X195535714Y-106046667D01*
X195392856Y-105951429D01*
X195178571Y-105951429D01*
X195035714Y-106046667D01*
X194964285Y-106237143D01*
X194964285Y-107284762D01*
X194964285Y-106237143D02*
X194892856Y-106046667D01*
X194749999Y-105951429D01*
X194535714Y-105951429D01*
X194392856Y-106046667D01*
X194321428Y-106237143D01*
X194321428Y-107284762D01*
X192964285Y-107284762D02*
X192964285Y-106237143D01*
X193035714Y-106046667D01*
X193178571Y-105951429D01*
X193464285Y-105951429D01*
X193607142Y-106046667D01*
X192964285Y-107189524D02*
X193107142Y-107284762D01*
X193464285Y-107284762D01*
X193607142Y-107189524D01*
X193678571Y-106999048D01*
X193678571Y-106808571D01*
X193607142Y-106618095D01*
X193464285Y-106522857D01*
X193107142Y-106522857D01*
X192964285Y-106427619D01*
X192464285Y-105951429D02*
X191892856Y-105951429D01*
X192249999Y-105284762D02*
X192249999Y-106999048D01*
X192178571Y-107189524D01*
X192035713Y-107284762D01*
X191892856Y-107284762D01*
X191178570Y-107284762D02*
X191321428Y-107189524D01*
X191392856Y-107094286D01*
X191464285Y-106903810D01*
X191464285Y-106332381D01*
X191392856Y-106141905D01*
X191321428Y-106046667D01*
X191178570Y-105951429D01*
X190964285Y-105951429D01*
X190821428Y-106046667D01*
X190749999Y-106141905D01*
X190678570Y-106332381D01*
X190678570Y-106903810D01*
X190749999Y-107094286D01*
X190821428Y-107189524D01*
X190964285Y-107284762D01*
X191178570Y-107284762D01*
X188249999Y-107284762D02*
X188249999Y-106237143D01*
X188321428Y-106046667D01*
X188464285Y-105951429D01*
X188749999Y-105951429D01*
X188892856Y-106046667D01*
X188249999Y-107189524D02*
X188392856Y-107284762D01*
X188749999Y-107284762D01*
X188892856Y-107189524D01*
X188964285Y-106999048D01*
X188964285Y-106808571D01*
X188892856Y-106618095D01*
X188749999Y-106522857D01*
X188392856Y-106522857D01*
X188249999Y-106427619D01*
X187535713Y-105951429D02*
X187535713Y-107284762D01*
X187535713Y-106141905D02*
X187464285Y-106046667D01*
X187321427Y-105951429D01*
X187107142Y-105951429D01*
X186964285Y-106046667D01*
X186892856Y-106237143D01*
X186892856Y-107284762D01*
X185535713Y-107284762D02*
X185535713Y-105284762D01*
X185535713Y-107189524D02*
X185678570Y-107284762D01*
X185964284Y-107284762D01*
X186107142Y-107189524D01*
X186178570Y-107094286D01*
X186249999Y-106903810D01*
X186249999Y-106332381D01*
X186178570Y-106141905D01*
X186107142Y-106046667D01*
X185964284Y-105951429D01*
X185678570Y-105951429D01*
X185535713Y-106046667D01*
X183678570Y-105951429D02*
X183678570Y-107951429D01*
X183678570Y-106046667D02*
X183535713Y-105951429D01*
X183249999Y-105951429D01*
X183107142Y-106046667D01*
X183035713Y-106141905D01*
X182964284Y-106332381D01*
X182964284Y-106903810D01*
X183035713Y-107094286D01*
X183107142Y-107189524D01*
X183249999Y-107284762D01*
X183535713Y-107284762D01*
X183678570Y-107189524D01*
X182107141Y-107284762D02*
X182249999Y-107189524D01*
X182321427Y-106999048D01*
X182321427Y-105284762D01*
X180892856Y-107284762D02*
X180892856Y-106237143D01*
X180964285Y-106046667D01*
X181107142Y-105951429D01*
X181392856Y-105951429D01*
X181535713Y-106046667D01*
X180892856Y-107189524D02*
X181035713Y-107284762D01*
X181392856Y-107284762D01*
X181535713Y-107189524D01*
X181607142Y-106999048D01*
X181607142Y-106808571D01*
X181535713Y-106618095D01*
X181392856Y-106522857D01*
X181035713Y-106522857D01*
X180892856Y-106427619D01*
X180178570Y-105951429D02*
X180178570Y-107284762D01*
X180178570Y-106141905D02*
X180107142Y-106046667D01*
X179964284Y-105951429D01*
X179749999Y-105951429D01*
X179607142Y-106046667D01*
X179535713Y-106237143D01*
X179535713Y-107284762D01*
X178178570Y-107189524D02*
X178321427Y-107284762D01*
X178607141Y-107284762D01*
X178749999Y-107189524D01*
X178821427Y-107094286D01*
X178892856Y-106903810D01*
X178892856Y-106332381D01*
X178821427Y-106141905D01*
X178749999Y-106046667D01*
X178607141Y-105951429D01*
X178321427Y-105951429D01*
X178178570Y-106046667D01*
X177535713Y-107284762D02*
X177535713Y-105284762D01*
X177392856Y-106522857D02*
X176964285Y-107284762D01*
X176964285Y-105951429D02*
X177535713Y-106713333D01*
X175178570Y-107284762D02*
X175178570Y-105284762D01*
X175035713Y-106522857D02*
X174607142Y-107284762D01*
X174607142Y-105951429D02*
X175178570Y-106713333D01*
X173392856Y-107189524D02*
X173535713Y-107284762D01*
X173821427Y-107284762D01*
X173964284Y-107189524D01*
X174035713Y-106999048D01*
X174035713Y-106237143D01*
X173964284Y-106046667D01*
X173821427Y-105951429D01*
X173535713Y-105951429D01*
X173392856Y-106046667D01*
X173321427Y-106237143D01*
X173321427Y-106427619D01*
X174035713Y-106618095D01*
X172821427Y-105951429D02*
X172464284Y-107284762D01*
X172107142Y-105951429D02*
X172464284Y-107284762D01*
X172607142Y-107760952D01*
X172678570Y-107856190D01*
X172821427Y-107951429D01*
X171535713Y-107284762D02*
X171535713Y-105284762D01*
X171535713Y-106046667D02*
X171392856Y-105951429D01*
X171107142Y-105951429D01*
X170964285Y-106046667D01*
X170892856Y-106141905D01*
X170821427Y-106332381D01*
X170821427Y-106903810D01*
X170892856Y-107094286D01*
X170964285Y-107189524D01*
X171107142Y-107284762D01*
X171392856Y-107284762D01*
X171535713Y-107189524D01*
X169964284Y-107284762D02*
X170107142Y-107189524D01*
X170178570Y-107094286D01*
X170249999Y-106903810D01*
X170249999Y-106332381D01*
X170178570Y-106141905D01*
X170107142Y-106046667D01*
X169964284Y-105951429D01*
X169749999Y-105951429D01*
X169607142Y-106046667D01*
X169535713Y-106141905D01*
X169464284Y-106332381D01*
X169464284Y-106903810D01*
X169535713Y-107094286D01*
X169607142Y-107189524D01*
X169749999Y-107284762D01*
X169964284Y-107284762D01*
X168178570Y-107284762D02*
X168178570Y-106237143D01*
X168249999Y-106046667D01*
X168392856Y-105951429D01*
X168678570Y-105951429D01*
X168821427Y-106046667D01*
X168178570Y-107189524D02*
X168321427Y-107284762D01*
X168678570Y-107284762D01*
X168821427Y-107189524D01*
X168892856Y-106999048D01*
X168892856Y-106808571D01*
X168821427Y-106618095D01*
X168678570Y-106522857D01*
X168321427Y-106522857D01*
X168178570Y-106427619D01*
X167464284Y-107284762D02*
X167464284Y-105951429D01*
X167464284Y-106332381D02*
X167392856Y-106141905D01*
X167321427Y-106046667D01*
X167178570Y-105951429D01*
X167035713Y-105951429D01*
X165892856Y-107284762D02*
X165892856Y-105284762D01*
X165892856Y-107189524D02*
X166035713Y-107284762D01*
X166321427Y-107284762D01*
X166464285Y-107189524D01*
X166535713Y-107094286D01*
X166607142Y-106903810D01*
X166607142Y-106332381D01*
X166535713Y-106141905D01*
X166464285Y-106046667D01*
X166321427Y-105951429D01*
X166035713Y-105951429D01*
X165892856Y-106046667D01*
X165249999Y-107189524D02*
X165107142Y-107284762D01*
X164821427Y-107284762D01*
X164678570Y-107189524D01*
X164607142Y-106999048D01*
X164607142Y-106903810D01*
X164678570Y-106713333D01*
X164821427Y-106618095D01*
X165035713Y-106618095D01*
X165178570Y-106522857D01*
X165249999Y-106332381D01*
X165249999Y-106237143D01*
X165178570Y-106046667D01*
X165035713Y-105951429D01*
X164821427Y-105951429D01*
X164678570Y-106046667D01*
X163964284Y-107094286D02*
X163892856Y-107189524D01*
X163964284Y-107284762D01*
X164035713Y-107189524D01*
X163964284Y-107094286D01*
X163964284Y-107284762D01*
D12*
X254656061Y-52637893D02*
X254280618Y-50267441D01*
X253301518Y-52852431D01*
X252926075Y-50481979D01*
X250253794Y-53335143D02*
X249802279Y-53406656D01*
X249558643Y-53329535D01*
X249427887Y-53234534D01*
X249148494Y-52931655D01*
X248964103Y-52498018D01*
X248821077Y-51594988D01*
X248898199Y-51351353D01*
X248993200Y-51220596D01*
X249201078Y-51071961D01*
X249652593Y-51000448D01*
X249896229Y-51077570D01*
X250026986Y-51172571D01*
X250175621Y-51380450D01*
X250265012Y-51944844D01*
X250187890Y-52188479D01*
X250092890Y-52319236D01*
X249885010Y-52467871D01*
X249433495Y-52539384D01*
X249189860Y-52462262D01*
X249059103Y-52367261D01*
X248910469Y-52159382D01*
X255168921Y-56606524D02*
X254717406Y-56678037D01*
X254473770Y-56600915D01*
X254343014Y-56505915D01*
X254063621Y-56203035D01*
X253879231Y-55769399D01*
X253736205Y-54866369D01*
X253813326Y-54622734D01*
X253908327Y-54491977D01*
X254116206Y-54343341D01*
X254567720Y-54271828D01*
X254811357Y-54348951D01*
X254942113Y-54443952D01*
X255090748Y-54651830D01*
X255180139Y-55216224D01*
X255103017Y-55459859D01*
X255008017Y-55590616D01*
X254800137Y-55739252D01*
X254348623Y-55810765D01*
X254104987Y-55733642D01*
X253974230Y-55638642D01*
X253825596Y-55430763D01*
X251218168Y-57232262D02*
X250842725Y-54861810D01*
X249863624Y-57446800D01*
X249488181Y-55076348D01*
D13*
X239060715Y-60745238D02*
X239060715Y-48045238D01*
X236679762Y-48045238D01*
X235251191Y-48650000D01*
X234298810Y-49859524D01*
X233822619Y-51069048D01*
X233346429Y-53488095D01*
X233346429Y-55302381D01*
X233822619Y-57721429D01*
X234298810Y-58930952D01*
X235251191Y-60140476D01*
X236679762Y-60745238D01*
X239060715Y-60745238D01*
X229060715Y-48045238D02*
X229060715Y-58326190D01*
X228584524Y-59535714D01*
X228108334Y-60140476D01*
X227155953Y-60745238D01*
X225251191Y-60745238D01*
X224298810Y-60140476D01*
X223822619Y-59535714D01*
X223346429Y-58326190D01*
X223346429Y-48045238D01*
X212870239Y-59535714D02*
X213346429Y-60140476D01*
X214775001Y-60745238D01*
X215727382Y-60745238D01*
X217155953Y-60140476D01*
X218108334Y-58930952D01*
X218584525Y-57721429D01*
X219060715Y-55302381D01*
X219060715Y-53488095D01*
X218584525Y-51069048D01*
X218108334Y-49859524D01*
X217155953Y-48650000D01*
X215727382Y-48045238D01*
X214775001Y-48045238D01*
X213346429Y-48650000D01*
X212870239Y-49254762D01*
X208584525Y-60745238D02*
X208584525Y-48045238D01*
X208584525Y-54092857D02*
X202870239Y-54092857D01*
X202870239Y-60745238D02*
X202870239Y-48045238D01*
X198584525Y-57116667D02*
X193822620Y-57116667D01*
X199536906Y-60745238D02*
X196203573Y-48045238D01*
X192870239Y-60745238D01*
X189536906Y-60745238D02*
X189536906Y-48045238D01*
X186203572Y-57116667D01*
X182870239Y-48045238D01*
X182870239Y-60745238D01*
X178108335Y-60745238D02*
X178108335Y-48045238D01*
X174298811Y-48045238D01*
X173346430Y-48650000D01*
X172870239Y-49254762D01*
X172394049Y-50464286D01*
X172394049Y-52278571D01*
X172870239Y-53488095D01*
X173346430Y-54092857D01*
X174298811Y-54697619D01*
X178108335Y-54697619D01*
X114774999Y-60745238D02*
X114774999Y-48045238D01*
X109060713Y-60745238D02*
X113346427Y-53488095D01*
X109060713Y-48045238D02*
X114774999Y-55302381D01*
X104774999Y-54092857D02*
X101441665Y-54092857D01*
X100013094Y-60745238D02*
X104774999Y-60745238D01*
X104774999Y-48045238D01*
X100013094Y-48045238D01*
X93822618Y-54697619D02*
X93822618Y-60745238D01*
X97155951Y-48045238D02*
X93822618Y-54697619D01*
X90489284Y-48045238D01*
X83822617Y-54092857D02*
X82394046Y-54697619D01*
X81917855Y-55302381D01*
X81441665Y-56511905D01*
X81441665Y-58326190D01*
X81917855Y-59535714D01*
X82394046Y-60140476D01*
X83346427Y-60745238D01*
X87155951Y-60745238D01*
X87155951Y-48045238D01*
X83822617Y-48045238D01*
X82870236Y-48650000D01*
X82394046Y-49254762D01*
X81917855Y-50464286D01*
X81917855Y-51673810D01*
X82394046Y-52883333D01*
X82870236Y-53488095D01*
X83822617Y-54092857D01*
X87155951Y-54092857D01*
X75251189Y-48045238D02*
X73346427Y-48045238D01*
X72394046Y-48650000D01*
X71441665Y-49859524D01*
X70965474Y-52278571D01*
X70965474Y-56511905D01*
X71441665Y-58930952D01*
X72394046Y-60140476D01*
X73346427Y-60745238D01*
X75251189Y-60745238D01*
X76203570Y-60140476D01*
X77155951Y-58930952D01*
X77632141Y-56511905D01*
X77632141Y-52278571D01*
X77155951Y-49859524D01*
X76203570Y-48650000D01*
X75251189Y-48045238D01*
X67155951Y-57116667D02*
X62394046Y-57116667D01*
X68108332Y-60745238D02*
X64774999Y-48045238D01*
X61441665Y-60745238D01*
X52394046Y-60745238D02*
X55727379Y-54697619D01*
X58108332Y-60745238D02*
X58108332Y-48045238D01*
X54298808Y-48045238D01*
X53346427Y-48650000D01*
X52870236Y-49254762D01*
X52394046Y-50464286D01*
X52394046Y-52278571D01*
X52870236Y-53488095D01*
X53346427Y-54092857D01*
X54298808Y-54697619D01*
X58108332Y-54697619D01*
X48108332Y-60745238D02*
X48108332Y-48045238D01*
X45727379Y-48045238D01*
X44298808Y-48650000D01*
X43346427Y-49859524D01*
X42870236Y-51069048D01*
X42394046Y-53488095D01*
X42394046Y-55302381D01*
X42870236Y-57721429D01*
X43346427Y-58930952D01*
X44298808Y-60140476D01*
X45727379Y-60745238D01*
X48108332Y-60745238D01*
D14*
G36*
X143792459Y-33802372D02*
X142719645Y-33815313D01*
X141722894Y-33836261D01*
X140904651Y-33864079D01*
X140367359Y-33897631D01*
X140209735Y-33926477D01*
X139899466Y-34030001D01*
X139560204Y-34056363D01*
X139041950Y-34145985D01*
X138326586Y-34372870D01*
X137982325Y-34509975D01*
X137379832Y-34749026D01*
X136996557Y-34864182D01*
X136924091Y-34856339D01*
X136817425Y-34863282D01*
X136481427Y-35121165D01*
X135892095Y-35651399D01*
X135025425Y-36475393D01*
X134111710Y-37364961D01*
X132926199Y-38546621D01*
X132063707Y-39453750D01*
X131499050Y-40115184D01*
X131207045Y-40559756D01*
X131151363Y-40754483D01*
X130975593Y-40976990D01*
X130920454Y-40983636D01*
X130717364Y-41113748D01*
X130716890Y-41156818D01*
X130633887Y-41982715D01*
X130285454Y-42509285D01*
X129998214Y-42863335D01*
X129938706Y-43045324D01*
X129898678Y-43309387D01*
X129747167Y-43872429D01*
X129527206Y-44598231D01*
X129281829Y-45350572D01*
X129054070Y-45993229D01*
X128886962Y-46389981D01*
X128875767Y-46410000D01*
X128718969Y-46835915D01*
X128682024Y-47013521D01*
X128554539Y-47492228D01*
X128351226Y-48052612D01*
X128135811Y-48627169D01*
X128016069Y-49027980D01*
X127818938Y-49438069D01*
X127589732Y-49738889D01*
X127301543Y-50159988D01*
X127225909Y-50403170D01*
X127073604Y-50956918D01*
X126648439Y-51775518D01*
X125998041Y-52791307D01*
X125170034Y-53936624D01*
X124212044Y-55143807D01*
X123171697Y-56345194D01*
X122641432Y-56916363D01*
X121895733Y-57699706D01*
X121223651Y-58405759D01*
X120718609Y-58936375D01*
X120530256Y-59134300D01*
X120196523Y-59532226D01*
X120067727Y-59772896D01*
X119934371Y-59987074D01*
X119583141Y-60466040D01*
X119087295Y-61116086D01*
X118520088Y-61843503D01*
X117954779Y-62554583D01*
X117464623Y-63155619D01*
X117122879Y-63552902D01*
X117065909Y-63612727D01*
X116818507Y-63945404D01*
X116493930Y-64469830D01*
X116226830Y-64967385D01*
X116212569Y-64998181D01*
X116010107Y-65365758D01*
X115639559Y-65978672D01*
X115238363Y-66614545D01*
X114818865Y-67289353D01*
X114522230Y-67809101D01*
X114416142Y-68050241D01*
X114276621Y-68333960D01*
X114025333Y-68665725D01*
X113781338Y-69045090D01*
X113769601Y-69244904D01*
X113764569Y-69508883D01*
X113669224Y-69668510D01*
X113496082Y-69997925D01*
X113209060Y-70656456D01*
X112852371Y-71539304D01*
X112570916Y-72271818D01*
X112185210Y-73290807D01*
X111836011Y-74201801D01*
X111569824Y-74884081D01*
X111458958Y-75158181D01*
X111261254Y-75672700D01*
X111174077Y-75966363D01*
X111086745Y-76293011D01*
X111078201Y-76312727D01*
X110998113Y-76610732D01*
X110943731Y-76890000D01*
X110767573Y-77930933D01*
X110645397Y-78733187D01*
X110545943Y-79511962D01*
X110485921Y-80041603D01*
X110279362Y-81076499D01*
X109938378Y-81708854D01*
X109899480Y-81746554D01*
X109607593Y-82108269D01*
X109571665Y-82333032D01*
X109511235Y-82592953D01*
X109376044Y-82706262D01*
X109178042Y-83039738D01*
X109087429Y-83589692D01*
X109120649Y-84126170D01*
X109255110Y-84397285D01*
X109320221Y-84564338D01*
X109369407Y-84981224D01*
X109403885Y-85689008D01*
X109424871Y-86728761D01*
X109433581Y-88141548D01*
X109431230Y-89968438D01*
X109429915Y-90300672D01*
X109420990Y-92396799D01*
X108280944Y-92297606D01*
X107314208Y-92291308D01*
X106301659Y-92397217D01*
X106042039Y-92447988D01*
X105200651Y-92592682D01*
X104159502Y-92709092D01*
X103385018Y-92760145D01*
X102604283Y-92820173D01*
X102045082Y-92917869D01*
X101826463Y-93032286D01*
X101826382Y-93034393D01*
X101715068Y-93126169D01*
X101670109Y-93090260D01*
X101447313Y-93120158D01*
X101166495Y-93463498D01*
X100898518Y-93990250D01*
X100714240Y-94570386D01*
X100672885Y-94920151D01*
X100629418Y-95466347D01*
X100527729Y-95775755D01*
X100437571Y-96073405D01*
X100371496Y-96666252D01*
X100354547Y-97026861D01*
X100458949Y-98002870D01*
X100822152Y-98635268D01*
X101295895Y-98874187D01*
X101681530Y-98959808D01*
X102200289Y-99081985D01*
X102693933Y-99154379D01*
X103527189Y-99229002D01*
X104578000Y-99296454D01*
X105578181Y-99342136D01*
X106635742Y-99395224D01*
X107500550Y-99465367D01*
X108082453Y-99543372D01*
X108291363Y-99618823D01*
X108508474Y-99680053D01*
X109104835Y-99727533D01*
X109997985Y-99757574D01*
X111105465Y-99766488D01*
X111534543Y-99763876D01*
X112708091Y-99758835D01*
X113706063Y-99766569D01*
X114442795Y-99785491D01*
X114832626Y-99814016D01*
X114870951Y-99825648D01*
X115139850Y-99903545D01*
X115688387Y-99979049D01*
X115841862Y-99993365D01*
X116657728Y-100077477D01*
X117569294Y-100191645D01*
X117758636Y-100218293D01*
X118576640Y-100332077D01*
X119329109Y-100429458D01*
X119490454Y-100448716D01*
X119976254Y-100511034D01*
X120183104Y-100549924D01*
X120183181Y-100550256D01*
X120393572Y-100573588D01*
X120944095Y-100613691D01*
X121684091Y-100659983D01*
X122443036Y-100705887D01*
X123541499Y-100774053D01*
X124858149Y-100856871D01*
X126271653Y-100946731D01*
X126995000Y-100993094D01*
X128274909Y-101059894D01*
X129907824Y-101121272D01*
X131784938Y-101174509D01*
X133797446Y-101216889D01*
X135836543Y-101245692D01*
X137587421Y-101257711D01*
X139576767Y-101266321D01*
X141156476Y-101281199D01*
X142378713Y-101305164D01*
X143295645Y-101341035D01*
X143959441Y-101391632D01*
X144422265Y-101459773D01*
X144736287Y-101548278D01*
X144946787Y-101655417D01*
X145288298Y-101860270D01*
X145644645Y-102007829D01*
X146102888Y-102111353D01*
X146750088Y-102184104D01*
X147673305Y-102239340D01*
X148959599Y-102290323D01*
X149162272Y-102297479D01*
X150540151Y-102318628D01*
X151578847Y-102276604D01*
X152226598Y-102174108D01*
X152337272Y-102131810D01*
X152731501Y-101877031D01*
X152856818Y-101706304D01*
X153075494Y-101533293D01*
X153682730Y-101367194D01*
X154605337Y-101222943D01*
X155743181Y-101117286D01*
X156548236Y-101059700D01*
X157654634Y-100976485D01*
X158903444Y-100879748D01*
X159899545Y-100800654D01*
X161094228Y-100717064D01*
X162601007Y-100630353D01*
X164270284Y-100548104D01*
X165952461Y-100477903D01*
X166942272Y-100443568D01*
X168384612Y-100393266D01*
X169743470Y-100336790D01*
X170920782Y-100278902D01*
X171818483Y-100224361D01*
X172290776Y-100183918D01*
X173057473Y-100160113D01*
X173688342Y-100252324D01*
X173841527Y-100312277D01*
X174130620Y-100410320D01*
X174611475Y-100478977D01*
X175340253Y-100520308D01*
X176373113Y-100536374D01*
X177766215Y-100529236D01*
X179180454Y-100508156D01*
X179998561Y-100528694D01*
X180843457Y-100598081D01*
X180854545Y-100599424D01*
X181408393Y-100622967D01*
X181704821Y-100549923D01*
X181720454Y-100516121D01*
X181925403Y-100397838D01*
X182437362Y-100332073D01*
X182644091Y-100327272D01*
X183222560Y-100372071D01*
X183544226Y-100483981D01*
X183567727Y-100529195D01*
X183773619Y-100587565D01*
X184319254Y-100553359D01*
X185096569Y-100446900D01*
X185997500Y-100288509D01*
X186913984Y-100098510D01*
X187737958Y-99897225D01*
X188361360Y-99704977D01*
X188636663Y-99575920D01*
X188937117Y-99277343D01*
X188954137Y-99094288D01*
X188960669Y-98947687D01*
X189013333Y-98941648D01*
X189121678Y-98729211D01*
X189218656Y-98166228D01*
X189286625Y-97363926D01*
X189296277Y-97157794D01*
X189339072Y-96303869D01*
X189347452Y-96192378D01*
X187808880Y-96192378D01*
X187660516Y-96802455D01*
X187199242Y-97620888D01*
X186685000Y-97992993D01*
X186156084Y-98292725D01*
X185833206Y-98565581D01*
X185827926Y-98573373D01*
X185516638Y-98721523D01*
X184858104Y-98852640D01*
X183966850Y-98956181D01*
X182957404Y-99021602D01*
X181944291Y-99038358D01*
X181143181Y-99004678D01*
X180303168Y-98866865D01*
X179538285Y-98628082D01*
X179304440Y-98514857D01*
X178780840Y-98074254D01*
X178465256Y-97561198D01*
X178461548Y-97548403D01*
X178313083Y-96644467D01*
X178295295Y-95625642D01*
X178405933Y-94722290D01*
X178492063Y-94427686D01*
X178727308Y-93808944D01*
X181398210Y-93924437D01*
X182504972Y-93992784D01*
X183429033Y-94088729D01*
X184072597Y-94199821D01*
X184326419Y-94297237D01*
X184725802Y-94479557D01*
X185316863Y-94554545D01*
X186528591Y-94647387D01*
X187334599Y-94938610D01*
X187754743Y-95447259D01*
X187808880Y-96192378D01*
X189347452Y-96192378D01*
X189388119Y-95651328D01*
X189434159Y-95317656D01*
X189442767Y-95298899D01*
X189388710Y-95078254D01*
X189069690Y-94735752D01*
X188620911Y-94380067D01*
X188177572Y-94119874D01*
X187897272Y-94056631D01*
X187559409Y-94041170D01*
X187493182Y-93946476D01*
X187290895Y-93802438D01*
X186798317Y-93720394D01*
X186742727Y-93717725D01*
X185726545Y-93612371D01*
X185115221Y-93393982D01*
X185036835Y-93329713D01*
X184699462Y-93201613D01*
X184351051Y-93169090D01*
X183894005Y-93101573D01*
X183718832Y-92995866D01*
X183431242Y-92880672D01*
X182908088Y-92847148D01*
X182367860Y-92892635D01*
X182029049Y-93014473D01*
X182027029Y-93016455D01*
X181719113Y-93111779D01*
X181134377Y-93165044D01*
X180909974Y-93169090D01*
X179945554Y-93169090D01*
X180032246Y-91869889D01*
X180018598Y-90803038D01*
X179816914Y-90108634D01*
X179799268Y-90080343D01*
X179635668Y-89609531D01*
X179486348Y-88765940D01*
X179365301Y-87638608D01*
X179323011Y-87050000D01*
X179208559Y-85254864D01*
X179133929Y-84206911D01*
X178081649Y-84206911D01*
X177918468Y-84887589D01*
X177566480Y-85379162D01*
X176943262Y-85745462D01*
X175966394Y-86050320D01*
X175584095Y-86141145D01*
X174375963Y-86413837D01*
X173545322Y-86612396D01*
X173021542Y-86774337D01*
X172733994Y-86937172D01*
X172612049Y-87138414D01*
X172585077Y-87415578D01*
X172584146Y-87734514D01*
X172469136Y-88476123D01*
X172118410Y-88928263D01*
X172075940Y-88957695D01*
X171595047Y-89170139D01*
X171396250Y-89075482D01*
X170740441Y-89075482D01*
X170701599Y-89346848D01*
X170636818Y-89474545D01*
X170180982Y-89860565D01*
X169705057Y-89936363D01*
X169219957Y-89878212D01*
X169041199Y-89605742D01*
X169020454Y-89243636D01*
X169141764Y-88735994D01*
X169426336Y-88525672D01*
X169755130Y-88680691D01*
X169828636Y-88781818D01*
X170153763Y-88974617D01*
X170427661Y-89012727D01*
X170740441Y-89075482D01*
X171396250Y-89075482D01*
X171271438Y-89016053D01*
X171054747Y-88456309D01*
X170987001Y-88111700D01*
X170838180Y-87513022D01*
X170575191Y-87224799D01*
X170101000Y-87101314D01*
X169477959Y-87045197D01*
X169145019Y-87191805D01*
X168971948Y-87642926D01*
X168900639Y-88039463D01*
X168769089Y-88831805D01*
X168621551Y-89416062D01*
X168390823Y-89830774D01*
X168009703Y-90114480D01*
X167410989Y-90305720D01*
X166527481Y-90443034D01*
X165291975Y-90564961D01*
X164354384Y-90646710D01*
X163222101Y-90747299D01*
X162272416Y-90835339D01*
X161591046Y-90902604D01*
X161263708Y-90940870D01*
X161247379Y-90944802D01*
X161271575Y-91167021D01*
X161372187Y-91714844D01*
X161504620Y-92360909D01*
X161799481Y-93746363D01*
X162177240Y-92887871D01*
X162417602Y-92286805D01*
X162547521Y-91855211D01*
X162555000Y-91791052D01*
X162716241Y-91560746D01*
X162771970Y-91552727D01*
X162929954Y-91756678D01*
X163045832Y-92261051D01*
X163060606Y-92400787D01*
X163173183Y-92977705D01*
X163359003Y-93314169D01*
X163399307Y-93336465D01*
X163553937Y-93256303D01*
X163525710Y-92817972D01*
X163480368Y-92599496D01*
X163394913Y-92017923D01*
X163515458Y-91696213D01*
X163759273Y-91526113D01*
X164192272Y-91409641D01*
X164959538Y-91309924D01*
X165957425Y-91230123D01*
X167082283Y-91173400D01*
X168230465Y-91142917D01*
X169298323Y-91141836D01*
X170182207Y-91173317D01*
X170778470Y-91240523D01*
X170964520Y-91306330D01*
X171398217Y-91445878D01*
X171909230Y-91320901D01*
X172579551Y-91185328D01*
X173120476Y-91281779D01*
X173396131Y-91578302D01*
X173407727Y-91673279D01*
X173208581Y-91931197D01*
X172735544Y-92118416D01*
X172175212Y-92199230D01*
X171714186Y-92137933D01*
X171567204Y-92025467D01*
X171395114Y-91926104D01*
X171277195Y-92189792D01*
X171113644Y-92454875D01*
X170723011Y-92636528D01*
X170004233Y-92774552D01*
X169686523Y-92816239D01*
X168250713Y-92997193D01*
X167238412Y-93136543D01*
X166613856Y-93241088D01*
X166341281Y-93317629D01*
X166384921Y-93372966D01*
X166595909Y-93403882D01*
X167148065Y-93438341D01*
X168002635Y-93468967D01*
X169000217Y-93490418D01*
X169289713Y-93494120D01*
X170411254Y-93526216D01*
X171121176Y-93604076D01*
X171468672Y-93743042D01*
X171502938Y-93958453D01*
X171380972Y-94146215D01*
X171253018Y-94600638D01*
X171267549Y-95464815D01*
X171316227Y-95941341D01*
X171398100Y-96782681D01*
X171382895Y-97283133D01*
X171258447Y-97555750D01*
X171131947Y-97653716D01*
X170967779Y-97820951D01*
X171162166Y-97983411D01*
X171553938Y-98131442D01*
X172192837Y-98423774D01*
X172409199Y-98711401D01*
X172189341Y-98964408D01*
X171973987Y-99049914D01*
X171433495Y-99154902D01*
X170438033Y-99273383D01*
X168994240Y-99404805D01*
X167108751Y-99548613D01*
X164788203Y-99704254D01*
X162324091Y-99854527D01*
X160898065Y-99940753D01*
X159534415Y-100027830D01*
X158341152Y-100108523D01*
X157426288Y-100175599D01*
X157013181Y-100210219D01*
X155744445Y-100241054D01*
X154859247Y-100064229D01*
X154371142Y-99683633D01*
X154281444Y-99426777D01*
X154361905Y-98839542D01*
X154544382Y-98518685D01*
X154817107Y-98027956D01*
X155015117Y-97364086D01*
X155022038Y-97325454D01*
X155079775Y-96877385D01*
X155051758Y-96764927D01*
X155028494Y-96805909D01*
X154719811Y-97029608D01*
X154338485Y-97094545D01*
X153985572Y-97043864D01*
X153821080Y-96807826D01*
X153771986Y-96260438D01*
X153769703Y-96113181D01*
X153758951Y-95131818D01*
X153215001Y-96170909D01*
X152381409Y-97396569D01*
X151362468Y-98208756D01*
X150118431Y-98632262D01*
X149142848Y-98710909D01*
X147876838Y-98536322D01*
X146828071Y-97991829D01*
X145950451Y-97046332D01*
X145463578Y-96228636D01*
X145064635Y-95562867D01*
X144759402Y-95272772D01*
X144579253Y-95377655D01*
X144544091Y-95662909D01*
X144414360Y-96157146D01*
X144295068Y-96327567D01*
X144213979Y-96636463D01*
X144384385Y-97204448D01*
X144638466Y-97745676D01*
X144964518Y-98429027D01*
X145082413Y-98840499D01*
X145012774Y-99109377D01*
X144880807Y-99264842D01*
X144455756Y-99494353D01*
X144191045Y-99484574D01*
X143901580Y-99529108D01*
X143851363Y-99732736D01*
X143851485Y-99895907D01*
X143827228Y-100032723D01*
X143741664Y-100145003D01*
X143557862Y-100234562D01*
X143238891Y-100303217D01*
X142747822Y-100352786D01*
X142047723Y-100385086D01*
X141101666Y-100401933D01*
X139872719Y-100405143D01*
X138323952Y-100396535D01*
X136418435Y-100377925D01*
X134119238Y-100351130D01*
X131844091Y-100323474D01*
X129038153Y-100261408D01*
X126339222Y-100147576D01*
X123798156Y-99987049D01*
X121465810Y-99784895D01*
X119393043Y-99546182D01*
X117630709Y-99275980D01*
X116229668Y-98979357D01*
X115263246Y-98670885D01*
X114673815Y-98443483D01*
X114229223Y-98371304D01*
X113735584Y-98456329D01*
X113018075Y-98693838D01*
X112204424Y-98926139D01*
X111464893Y-99048342D01*
X111126192Y-99049776D01*
X110664962Y-99001557D01*
X109848703Y-98927822D01*
X108782903Y-98837683D01*
X107573051Y-98740250D01*
X107252272Y-98715185D01*
X105387110Y-98557368D01*
X103936733Y-98393466D01*
X102854380Y-98201521D01*
X102093290Y-97959576D01*
X101606703Y-97645673D01*
X101347859Y-97237852D01*
X101269997Y-96714157D01*
X101326356Y-96052628D01*
X101343445Y-95940476D01*
X101512762Y-95155019D01*
X101779164Y-94549260D01*
X102199301Y-94098743D01*
X102829819Y-93779015D01*
X103727366Y-93565619D01*
X104948589Y-93434100D01*
X106550138Y-93360003D01*
X107367727Y-93339750D01*
X110023181Y-93284545D01*
X110333730Y-92303181D01*
X110589135Y-91672290D01*
X110830935Y-91352521D01*
X111005883Y-91385682D01*
X111062272Y-91731136D01*
X111281907Y-92052703D01*
X111895716Y-92353420D01*
X112836062Y-92610830D01*
X114035302Y-92802472D01*
X114404811Y-92840967D01*
X115337131Y-92890046D01*
X115836928Y-92829835D01*
X115898229Y-92668472D01*
X115515058Y-92414096D01*
X114906660Y-92157429D01*
X114179685Y-91862754D01*
X113830374Y-91652122D01*
X113794467Y-91475483D01*
X113893033Y-91367964D01*
X114322699Y-91205324D01*
X114992528Y-91135117D01*
X115244100Y-91139261D01*
X116400435Y-91167946D01*
X117332285Y-91135546D01*
X118001117Y-91055210D01*
X118368400Y-90940088D01*
X118395603Y-90803329D01*
X118044194Y-90658083D01*
X117275642Y-90517501D01*
X117123636Y-90497831D01*
X115488193Y-90103638D01*
X114155370Y-89361890D01*
X113119724Y-88269084D01*
X112766871Y-87694955D01*
X111891410Y-85639859D01*
X111372706Y-83446974D01*
X111226755Y-81230425D01*
X111469555Y-79104342D01*
X111527522Y-78852727D01*
X111700549Y-78073956D01*
X111836058Y-77351818D01*
X111995377Y-76680046D01*
X112290046Y-75720575D01*
X112683760Y-74568439D01*
X113140214Y-73318670D01*
X113623102Y-72066301D01*
X114096119Y-70906367D01*
X114522961Y-69933900D01*
X114867321Y-69243934D01*
X115029756Y-68991928D01*
X115287533Y-68608995D01*
X115619336Y-68036621D01*
X115664601Y-67952837D01*
X116516163Y-66438279D01*
X117417234Y-65007684D01*
X118424727Y-63585764D01*
X119595553Y-62097231D01*
X120986624Y-60466799D01*
X122654852Y-58619178D01*
X123012674Y-58232157D01*
X125243759Y-55595729D01*
X127069297Y-52913297D01*
X128543405Y-50094315D01*
X129720202Y-47048239D01*
X129747959Y-46963234D01*
X130528577Y-44720348D01*
X131304742Y-42851893D01*
X132125319Y-41273569D01*
X133039171Y-39901078D01*
X134095163Y-38650119D01*
X135190347Y-37574142D01*
X136975081Y-36210376D01*
X138914759Y-35258230D01*
X141053114Y-34701435D01*
X143389545Y-34523663D01*
X145196721Y-34617328D01*
X146804740Y-34931127D01*
X148433414Y-35514268D01*
X149046818Y-35790077D01*
X151282519Y-37022330D01*
X153128692Y-38459311D01*
X154630923Y-40150974D01*
X155834793Y-42147274D01*
X156662964Y-44136430D01*
X156998248Y-45081562D01*
X157311826Y-45942879D01*
X157545199Y-46560161D01*
X157577375Y-46640909D01*
X157808066Y-47261160D01*
X158092020Y-48091889D01*
X158257298Y-48603636D01*
X158540871Y-49449796D01*
X158829889Y-50226588D01*
X158972358Y-50566363D01*
X159275250Y-51243362D01*
X159620489Y-52031452D01*
X159685849Y-52182727D01*
X160322857Y-53468580D01*
X161162186Y-54810607D01*
X162245631Y-56265069D01*
X163614986Y-57888228D01*
X165241998Y-59662319D01*
X166359896Y-60857497D01*
X167228198Y-61820600D01*
X167925126Y-62644842D01*
X168528901Y-63423437D01*
X169117745Y-64249596D01*
X169235262Y-64420909D01*
X169764029Y-65180626D01*
X170435064Y-66124388D01*
X171115392Y-67065403D01*
X171207858Y-67191818D01*
X172028081Y-68423995D01*
X172889805Y-69918588D01*
X173766173Y-71609116D01*
X174630327Y-73429096D01*
X175455410Y-75312047D01*
X176214563Y-77191485D01*
X176880930Y-79000930D01*
X177427652Y-80673899D01*
X177827873Y-82143910D01*
X178054734Y-83344481D01*
X178081649Y-84206911D01*
X179133929Y-84206911D01*
X179109481Y-83863615D01*
X179019298Y-82818838D01*
X178931529Y-82063118D01*
X178839696Y-81539039D01*
X178737320Y-81189189D01*
X178639035Y-80988921D01*
X178434873Y-80563450D01*
X178199238Y-79941079D01*
X177974523Y-79256832D01*
X177803122Y-78645728D01*
X177727430Y-78242789D01*
X177749709Y-78156464D01*
X177755399Y-78055583D01*
X177667690Y-77983282D01*
X177462506Y-77690193D01*
X177179054Y-77117872D01*
X176884352Y-76425454D01*
X176645418Y-75772076D01*
X176529270Y-75316875D01*
X176526563Y-75273636D01*
X176381665Y-74923027D01*
X176234241Y-74735475D01*
X176044186Y-74386347D01*
X176062498Y-74235651D01*
X176019740Y-73991418D01*
X175970318Y-73965631D01*
X175762039Y-73701018D01*
X175680243Y-73426363D01*
X175548675Y-72992933D01*
X175451261Y-72849090D01*
X175291319Y-72549772D01*
X175220352Y-72271818D01*
X175009774Y-71726739D01*
X174848786Y-71502747D01*
X174664372Y-71144145D01*
X174689232Y-70983202D01*
X174641447Y-70789511D01*
X174537415Y-70770909D01*
X174371373Y-70679543D01*
X174410445Y-70614857D01*
X174379217Y-70360510D01*
X174091910Y-69954195D01*
X174062316Y-69922130D01*
X173766579Y-69558885D01*
X173716605Y-69387463D01*
X173729563Y-69385454D01*
X173720868Y-69222427D01*
X173490594Y-68815207D01*
X173378038Y-68651033D01*
X173115584Y-68222538D01*
X173117452Y-68067011D01*
X173189133Y-68090884D01*
X173304272Y-68111293D01*
X173122680Y-67936564D01*
X172867019Y-67624203D01*
X172872528Y-67457622D01*
X172850738Y-67317318D01*
X172770203Y-67307272D01*
X172533171Y-67123467D01*
X172149255Y-66640317D01*
X171699335Y-65960223D01*
X171675909Y-65921818D01*
X171238368Y-65236313D01*
X170881901Y-64740936D01*
X170679843Y-64537107D01*
X170674126Y-64536363D01*
X170477567Y-64359266D01*
X170108814Y-63898346D01*
X169643986Y-63259158D01*
X169159203Y-62547257D01*
X168730585Y-61868199D01*
X168644779Y-61722269D01*
X168245392Y-61229858D01*
X167890461Y-60925389D01*
X167569430Y-60596041D01*
X167532845Y-60358479D01*
X167539800Y-60191044D01*
X167478981Y-60197348D01*
X167205486Y-60085175D01*
X166789385Y-59741085D01*
X166367039Y-59301205D01*
X166074806Y-58901659D01*
X166018636Y-58739512D01*
X165892566Y-58594456D01*
X165837689Y-58617303D01*
X165588803Y-58532948D01*
X165216174Y-58179558D01*
X165159628Y-58111385D01*
X164737354Y-57609593D01*
X164143414Y-56931154D01*
X163617647Y-56345804D01*
X162997761Y-55609049D01*
X162453291Y-54866184D01*
X162159798Y-54383077D01*
X161821207Y-53809233D01*
X161507169Y-53422677D01*
X161453325Y-53380808D01*
X161265316Y-53098333D01*
X161293771Y-52976717D01*
X161270748Y-52773955D01*
X161198733Y-52760000D01*
X160985343Y-52572587D01*
X160775738Y-52163000D01*
X160672396Y-51760213D01*
X160693567Y-51631270D01*
X160584049Y-51451344D01*
X160481188Y-51377246D01*
X160197313Y-51015503D01*
X160160230Y-50889611D01*
X160019827Y-50476676D01*
X159749542Y-49895826D01*
X159711814Y-49823606D01*
X159426226Y-49146602D01*
X159272474Y-48522377D01*
X159269960Y-48495878D01*
X159185586Y-48057710D01*
X159079742Y-47910909D01*
X158918831Y-47713302D01*
X158735828Y-47241643D01*
X158582990Y-46677674D01*
X158512572Y-46203138D01*
X158537638Y-46025535D01*
X158490761Y-45841179D01*
X158429573Y-45832727D01*
X158260922Y-45628274D01*
X158005792Y-45082515D01*
X157709193Y-44296846D01*
X157590269Y-43941964D01*
X157240122Y-42930290D01*
X156867038Y-41963049D01*
X156541441Y-41220834D01*
X156487192Y-41113328D01*
X156203314Y-40512693D01*
X156054668Y-40081221D01*
X156048589Y-39985109D01*
X155959464Y-39892238D01*
X155888553Y-39926055D01*
X155667461Y-39855076D01*
X155471006Y-39571612D01*
X155456156Y-39305634D01*
X155460862Y-39299458D01*
X155325764Y-39128750D01*
X154921262Y-38730582D01*
X154325838Y-38181228D01*
X154126818Y-38002889D01*
X153433298Y-37372737D01*
X152851917Y-36821599D01*
X152489750Y-36451498D01*
X152452727Y-36407782D01*
X152221184Y-36206481D01*
X152156747Y-36263593D01*
X152038938Y-36276298D01*
X151810383Y-36032684D01*
X151557478Y-35753899D01*
X151471363Y-35749978D01*
X151294859Y-35768782D01*
X150861685Y-35599027D01*
X150778636Y-35557272D01*
X150309712Y-35268082D01*
X150088488Y-35039729D01*
X150085909Y-35023208D01*
X149893965Y-34857874D01*
X149681818Y-34813994D01*
X149223295Y-34703423D01*
X148570001Y-34467894D01*
X148354091Y-34377191D01*
X147734286Y-34119757D01*
X147285165Y-33956908D01*
X147199545Y-33934779D01*
X146814349Y-33857942D01*
X146795454Y-33853409D01*
X146442833Y-33822956D01*
X145756497Y-33805057D01*
X144838891Y-33798574D01*
X143792459Y-33802372D01*
X143792459Y-33802372D01*
G37*
X143792459Y-33802372D02*
X142719645Y-33815313D01*
X141722894Y-33836261D01*
X140904651Y-33864079D01*
X140367359Y-33897631D01*
X140209735Y-33926477D01*
X139899466Y-34030001D01*
X139560204Y-34056363D01*
X139041950Y-34145985D01*
X138326586Y-34372870D01*
X137982325Y-34509975D01*
X137379832Y-34749026D01*
X136996557Y-34864182D01*
X136924091Y-34856339D01*
X136817425Y-34863282D01*
X136481427Y-35121165D01*
X135892095Y-35651399D01*
X135025425Y-36475393D01*
X134111710Y-37364961D01*
X132926199Y-38546621D01*
X132063707Y-39453750D01*
X131499050Y-40115184D01*
X131207045Y-40559756D01*
X131151363Y-40754483D01*
X130975593Y-40976990D01*
X130920454Y-40983636D01*
X130717364Y-41113748D01*
X130716890Y-41156818D01*
X130633887Y-41982715D01*
X130285454Y-42509285D01*
X129998214Y-42863335D01*
X129938706Y-43045324D01*
X129898678Y-43309387D01*
X129747167Y-43872429D01*
X129527206Y-44598231D01*
X129281829Y-45350572D01*
X129054070Y-45993229D01*
X128886962Y-46389981D01*
X128875767Y-46410000D01*
X128718969Y-46835915D01*
X128682024Y-47013521D01*
X128554539Y-47492228D01*
X128351226Y-48052612D01*
X128135811Y-48627169D01*
X128016069Y-49027980D01*
X127818938Y-49438069D01*
X127589732Y-49738889D01*
X127301543Y-50159988D01*
X127225909Y-50403170D01*
X127073604Y-50956918D01*
X126648439Y-51775518D01*
X125998041Y-52791307D01*
X125170034Y-53936624D01*
X124212044Y-55143807D01*
X123171697Y-56345194D01*
X122641432Y-56916363D01*
X121895733Y-57699706D01*
X121223651Y-58405759D01*
X120718609Y-58936375D01*
X120530256Y-59134300D01*
X120196523Y-59532226D01*
X120067727Y-59772896D01*
X119934371Y-59987074D01*
X119583141Y-60466040D01*
X119087295Y-61116086D01*
X118520088Y-61843503D01*
X117954779Y-62554583D01*
X117464623Y-63155619D01*
X117122879Y-63552902D01*
X117065909Y-63612727D01*
X116818507Y-63945404D01*
X116493930Y-64469830D01*
X116226830Y-64967385D01*
X116212569Y-64998181D01*
X116010107Y-65365758D01*
X115639559Y-65978672D01*
X115238363Y-66614545D01*
X114818865Y-67289353D01*
X114522230Y-67809101D01*
X114416142Y-68050241D01*
X114276621Y-68333960D01*
X114025333Y-68665725D01*
X113781338Y-69045090D01*
X113769601Y-69244904D01*
X113764569Y-69508883D01*
X113669224Y-69668510D01*
X113496082Y-69997925D01*
X113209060Y-70656456D01*
X112852371Y-71539304D01*
X112570916Y-72271818D01*
X112185210Y-73290807D01*
X111836011Y-74201801D01*
X111569824Y-74884081D01*
X111458958Y-75158181D01*
X111261254Y-75672700D01*
X111174077Y-75966363D01*
X111086745Y-76293011D01*
X111078201Y-76312727D01*
X110998113Y-76610732D01*
X110943731Y-76890000D01*
X110767573Y-77930933D01*
X110645397Y-78733187D01*
X110545943Y-79511962D01*
X110485921Y-80041603D01*
X110279362Y-81076499D01*
X109938378Y-81708854D01*
X109899480Y-81746554D01*
X109607593Y-82108269D01*
X109571665Y-82333032D01*
X109511235Y-82592953D01*
X109376044Y-82706262D01*
X109178042Y-83039738D01*
X109087429Y-83589692D01*
X109120649Y-84126170D01*
X109255110Y-84397285D01*
X109320221Y-84564338D01*
X109369407Y-84981224D01*
X109403885Y-85689008D01*
X109424871Y-86728761D01*
X109433581Y-88141548D01*
X109431230Y-89968438D01*
X109429915Y-90300672D01*
X109420990Y-92396799D01*
X108280944Y-92297606D01*
X107314208Y-92291308D01*
X106301659Y-92397217D01*
X106042039Y-92447988D01*
X105200651Y-92592682D01*
X104159502Y-92709092D01*
X103385018Y-92760145D01*
X102604283Y-92820173D01*
X102045082Y-92917869D01*
X101826463Y-93032286D01*
X101826382Y-93034393D01*
X101715068Y-93126169D01*
X101670109Y-93090260D01*
X101447313Y-93120158D01*
X101166495Y-93463498D01*
X100898518Y-93990250D01*
X100714240Y-94570386D01*
X100672885Y-94920151D01*
X100629418Y-95466347D01*
X100527729Y-95775755D01*
X100437571Y-96073405D01*
X100371496Y-96666252D01*
X100354547Y-97026861D01*
X100458949Y-98002870D01*
X100822152Y-98635268D01*
X101295895Y-98874187D01*
X101681530Y-98959808D01*
X102200289Y-99081985D01*
X102693933Y-99154379D01*
X103527189Y-99229002D01*
X104578000Y-99296454D01*
X105578181Y-99342136D01*
X106635742Y-99395224D01*
X107500550Y-99465367D01*
X108082453Y-99543372D01*
X108291363Y-99618823D01*
X108508474Y-99680053D01*
X109104835Y-99727533D01*
X109997985Y-99757574D01*
X111105465Y-99766488D01*
X111534543Y-99763876D01*
X112708091Y-99758835D01*
X113706063Y-99766569D01*
X114442795Y-99785491D01*
X114832626Y-99814016D01*
X114870951Y-99825648D01*
X115139850Y-99903545D01*
X115688387Y-99979049D01*
X115841862Y-99993365D01*
X116657728Y-100077477D01*
X117569294Y-100191645D01*
X117758636Y-100218293D01*
X118576640Y-100332077D01*
X119329109Y-100429458D01*
X119490454Y-100448716D01*
X119976254Y-100511034D01*
X120183104Y-100549924D01*
X120183181Y-100550256D01*
X120393572Y-100573588D01*
X120944095Y-100613691D01*
X121684091Y-100659983D01*
X122443036Y-100705887D01*
X123541499Y-100774053D01*
X124858149Y-100856871D01*
X126271653Y-100946731D01*
X126995000Y-100993094D01*
X128274909Y-101059894D01*
X129907824Y-101121272D01*
X131784938Y-101174509D01*
X133797446Y-101216889D01*
X135836543Y-101245692D01*
X137587421Y-101257711D01*
X139576767Y-101266321D01*
X141156476Y-101281199D01*
X142378713Y-101305164D01*
X143295645Y-101341035D01*
X143959441Y-101391632D01*
X144422265Y-101459773D01*
X144736287Y-101548278D01*
X144946787Y-101655417D01*
X145288298Y-101860270D01*
X145644645Y-102007829D01*
X146102888Y-102111353D01*
X146750088Y-102184104D01*
X147673305Y-102239340D01*
X148959599Y-102290323D01*
X149162272Y-102297479D01*
X150540151Y-102318628D01*
X151578847Y-102276604D01*
X152226598Y-102174108D01*
X152337272Y-102131810D01*
X152731501Y-101877031D01*
X152856818Y-101706304D01*
X153075494Y-101533293D01*
X153682730Y-101367194D01*
X154605337Y-101222943D01*
X155743181Y-101117286D01*
X156548236Y-101059700D01*
X157654634Y-100976485D01*
X158903444Y-100879748D01*
X159899545Y-100800654D01*
X161094228Y-100717064D01*
X162601007Y-100630353D01*
X164270284Y-100548104D01*
X165952461Y-100477903D01*
X166942272Y-100443568D01*
X168384612Y-100393266D01*
X169743470Y-100336790D01*
X170920782Y-100278902D01*
X171818483Y-100224361D01*
X172290776Y-100183918D01*
X173057473Y-100160113D01*
X173688342Y-100252324D01*
X173841527Y-100312277D01*
X174130620Y-100410320D01*
X174611475Y-100478977D01*
X175340253Y-100520308D01*
X176373113Y-100536374D01*
X177766215Y-100529236D01*
X179180454Y-100508156D01*
X179998561Y-100528694D01*
X180843457Y-100598081D01*
X180854545Y-100599424D01*
X181408393Y-100622967D01*
X181704821Y-100549923D01*
X181720454Y-100516121D01*
X181925403Y-100397838D01*
X182437362Y-100332073D01*
X182644091Y-100327272D01*
X183222560Y-100372071D01*
X183544226Y-100483981D01*
X183567727Y-100529195D01*
X183773619Y-100587565D01*
X184319254Y-100553359D01*
X185096569Y-100446900D01*
X185997500Y-100288509D01*
X186913984Y-100098510D01*
X187737958Y-99897225D01*
X188361360Y-99704977D01*
X188636663Y-99575920D01*
X188937117Y-99277343D01*
X188954137Y-99094288D01*
X188960669Y-98947687D01*
X189013333Y-98941648D01*
X189121678Y-98729211D01*
X189218656Y-98166228D01*
X189286625Y-97363926D01*
X189296277Y-97157794D01*
X189339072Y-96303869D01*
X189347452Y-96192378D01*
X187808880Y-96192378D01*
X187660516Y-96802455D01*
X187199242Y-97620888D01*
X186685000Y-97992993D01*
X186156084Y-98292725D01*
X185833206Y-98565581D01*
X185827926Y-98573373D01*
X185516638Y-98721523D01*
X184858104Y-98852640D01*
X183966850Y-98956181D01*
X182957404Y-99021602D01*
X181944291Y-99038358D01*
X181143181Y-99004678D01*
X180303168Y-98866865D01*
X179538285Y-98628082D01*
X179304440Y-98514857D01*
X178780840Y-98074254D01*
X178465256Y-97561198D01*
X178461548Y-97548403D01*
X178313083Y-96644467D01*
X178295295Y-95625642D01*
X178405933Y-94722290D01*
X178492063Y-94427686D01*
X178727308Y-93808944D01*
X181398210Y-93924437D01*
X182504972Y-93992784D01*
X183429033Y-94088729D01*
X184072597Y-94199821D01*
X184326419Y-94297237D01*
X184725802Y-94479557D01*
X185316863Y-94554545D01*
X186528591Y-94647387D01*
X187334599Y-94938610D01*
X187754743Y-95447259D01*
X187808880Y-96192378D01*
X189347452Y-96192378D01*
X189388119Y-95651328D01*
X189434159Y-95317656D01*
X189442767Y-95298899D01*
X189388710Y-95078254D01*
X189069690Y-94735752D01*
X188620911Y-94380067D01*
X188177572Y-94119874D01*
X187897272Y-94056631D01*
X187559409Y-94041170D01*
X187493182Y-93946476D01*
X187290895Y-93802438D01*
X186798317Y-93720394D01*
X186742727Y-93717725D01*
X185726545Y-93612371D01*
X185115221Y-93393982D01*
X185036835Y-93329713D01*
X184699462Y-93201613D01*
X184351051Y-93169090D01*
X183894005Y-93101573D01*
X183718832Y-92995866D01*
X183431242Y-92880672D01*
X182908088Y-92847148D01*
X182367860Y-92892635D01*
X182029049Y-93014473D01*
X182027029Y-93016455D01*
X181719113Y-93111779D01*
X181134377Y-93165044D01*
X180909974Y-93169090D01*
X179945554Y-93169090D01*
X180032246Y-91869889D01*
X180018598Y-90803038D01*
X179816914Y-90108634D01*
X179799268Y-90080343D01*
X179635668Y-89609531D01*
X179486348Y-88765940D01*
X179365301Y-87638608D01*
X179323011Y-87050000D01*
X179208559Y-85254864D01*
X179133929Y-84206911D01*
X178081649Y-84206911D01*
X177918468Y-84887589D01*
X177566480Y-85379162D01*
X176943262Y-85745462D01*
X175966394Y-86050320D01*
X175584095Y-86141145D01*
X174375963Y-86413837D01*
X173545322Y-86612396D01*
X173021542Y-86774337D01*
X172733994Y-86937172D01*
X172612049Y-87138414D01*
X172585077Y-87415578D01*
X172584146Y-87734514D01*
X172469136Y-88476123D01*
X172118410Y-88928263D01*
X172075940Y-88957695D01*
X171595047Y-89170139D01*
X171396250Y-89075482D01*
X170740441Y-89075482D01*
X170701599Y-89346848D01*
X170636818Y-89474545D01*
X170180982Y-89860565D01*
X169705057Y-89936363D01*
X169219957Y-89878212D01*
X169041199Y-89605742D01*
X169020454Y-89243636D01*
X169141764Y-88735994D01*
X169426336Y-88525672D01*
X169755130Y-88680691D01*
X169828636Y-88781818D01*
X170153763Y-88974617D01*
X170427661Y-89012727D01*
X170740441Y-89075482D01*
X171396250Y-89075482D01*
X171271438Y-89016053D01*
X171054747Y-88456309D01*
X170987001Y-88111700D01*
X170838180Y-87513022D01*
X170575191Y-87224799D01*
X170101000Y-87101314D01*
X169477959Y-87045197D01*
X169145019Y-87191805D01*
X168971948Y-87642926D01*
X168900639Y-88039463D01*
X168769089Y-88831805D01*
X168621551Y-89416062D01*
X168390823Y-89830774D01*
X168009703Y-90114480D01*
X167410989Y-90305720D01*
X166527481Y-90443034D01*
X165291975Y-90564961D01*
X164354384Y-90646710D01*
X163222101Y-90747299D01*
X162272416Y-90835339D01*
X161591046Y-90902604D01*
X161263708Y-90940870D01*
X161247379Y-90944802D01*
X161271575Y-91167021D01*
X161372187Y-91714844D01*
X161504620Y-92360909D01*
X161799481Y-93746363D01*
X162177240Y-92887871D01*
X162417602Y-92286805D01*
X162547521Y-91855211D01*
X162555000Y-91791052D01*
X162716241Y-91560746D01*
X162771970Y-91552727D01*
X162929954Y-91756678D01*
X163045832Y-92261051D01*
X163060606Y-92400787D01*
X163173183Y-92977705D01*
X163359003Y-93314169D01*
X163399307Y-93336465D01*
X163553937Y-93256303D01*
X163525710Y-92817972D01*
X163480368Y-92599496D01*
X163394913Y-92017923D01*
X163515458Y-91696213D01*
X163759273Y-91526113D01*
X164192272Y-91409641D01*
X164959538Y-91309924D01*
X165957425Y-91230123D01*
X167082283Y-91173400D01*
X168230465Y-91142917D01*
X169298323Y-91141836D01*
X170182207Y-91173317D01*
X170778470Y-91240523D01*
X170964520Y-91306330D01*
X171398217Y-91445878D01*
X171909230Y-91320901D01*
X172579551Y-91185328D01*
X173120476Y-91281779D01*
X173396131Y-91578302D01*
X173407727Y-91673279D01*
X173208581Y-91931197D01*
X172735544Y-92118416D01*
X172175212Y-92199230D01*
X171714186Y-92137933D01*
X171567204Y-92025467D01*
X171395114Y-91926104D01*
X171277195Y-92189792D01*
X171113644Y-92454875D01*
X170723011Y-92636528D01*
X170004233Y-92774552D01*
X169686523Y-92816239D01*
X168250713Y-92997193D01*
X167238412Y-93136543D01*
X166613856Y-93241088D01*
X166341281Y-93317629D01*
X166384921Y-93372966D01*
X166595909Y-93403882D01*
X167148065Y-93438341D01*
X168002635Y-93468967D01*
X169000217Y-93490418D01*
X169289713Y-93494120D01*
X170411254Y-93526216D01*
X171121176Y-93604076D01*
X171468672Y-93743042D01*
X171502938Y-93958453D01*
X171380972Y-94146215D01*
X171253018Y-94600638D01*
X171267549Y-95464815D01*
X171316227Y-95941341D01*
X171398100Y-96782681D01*
X171382895Y-97283133D01*
X171258447Y-97555750D01*
X171131947Y-97653716D01*
X170967779Y-97820951D01*
X171162166Y-97983411D01*
X171553938Y-98131442D01*
X172192837Y-98423774D01*
X172409199Y-98711401D01*
X172189341Y-98964408D01*
X171973987Y-99049914D01*
X171433495Y-99154902D01*
X170438033Y-99273383D01*
X168994240Y-99404805D01*
X167108751Y-99548613D01*
X164788203Y-99704254D01*
X162324091Y-99854527D01*
X160898065Y-99940753D01*
X159534415Y-100027830D01*
X158341152Y-100108523D01*
X157426288Y-100175599D01*
X157013181Y-100210219D01*
X155744445Y-100241054D01*
X154859247Y-100064229D01*
X154371142Y-99683633D01*
X154281444Y-99426777D01*
X154361905Y-98839542D01*
X154544382Y-98518685D01*
X154817107Y-98027956D01*
X155015117Y-97364086D01*
X155022038Y-97325454D01*
X155079775Y-96877385D01*
X155051758Y-96764927D01*
X155028494Y-96805909D01*
X154719811Y-97029608D01*
X154338485Y-97094545D01*
X153985572Y-97043864D01*
X153821080Y-96807826D01*
X153771986Y-96260438D01*
X153769703Y-96113181D01*
X153758951Y-95131818D01*
X153215001Y-96170909D01*
X152381409Y-97396569D01*
X151362468Y-98208756D01*
X150118431Y-98632262D01*
X149142848Y-98710909D01*
X147876838Y-98536322D01*
X146828071Y-97991829D01*
X145950451Y-97046332D01*
X145463578Y-96228636D01*
X145064635Y-95562867D01*
X144759402Y-95272772D01*
X144579253Y-95377655D01*
X144544091Y-95662909D01*
X144414360Y-96157146D01*
X144295068Y-96327567D01*
X144213979Y-96636463D01*
X144384385Y-97204448D01*
X144638466Y-97745676D01*
X144964518Y-98429027D01*
X145082413Y-98840499D01*
X145012774Y-99109377D01*
X144880807Y-99264842D01*
X144455756Y-99494353D01*
X144191045Y-99484574D01*
X143901580Y-99529108D01*
X143851363Y-99732736D01*
X143851485Y-99895907D01*
X143827228Y-100032723D01*
X143741664Y-100145003D01*
X143557862Y-100234562D01*
X143238891Y-100303217D01*
X142747822Y-100352786D01*
X142047723Y-100385086D01*
X141101666Y-100401933D01*
X139872719Y-100405143D01*
X138323952Y-100396535D01*
X136418435Y-100377925D01*
X134119238Y-100351130D01*
X131844091Y-100323474D01*
X129038153Y-100261408D01*
X126339222Y-100147576D01*
X123798156Y-99987049D01*
X121465810Y-99784895D01*
X119393043Y-99546182D01*
X117630709Y-99275980D01*
X116229668Y-98979357D01*
X115263246Y-98670885D01*
X114673815Y-98443483D01*
X114229223Y-98371304D01*
X113735584Y-98456329D01*
X113018075Y-98693838D01*
X112204424Y-98926139D01*
X111464893Y-99048342D01*
X111126192Y-99049776D01*
X110664962Y-99001557D01*
X109848703Y-98927822D01*
X108782903Y-98837683D01*
X107573051Y-98740250D01*
X107252272Y-98715185D01*
X105387110Y-98557368D01*
X103936733Y-98393466D01*
X102854380Y-98201521D01*
X102093290Y-97959576D01*
X101606703Y-97645673D01*
X101347859Y-97237852D01*
X101269997Y-96714157D01*
X101326356Y-96052628D01*
X101343445Y-95940476D01*
X101512762Y-95155019D01*
X101779164Y-94549260D01*
X102199301Y-94098743D01*
X102829819Y-93779015D01*
X103727366Y-93565619D01*
X104948589Y-93434100D01*
X106550138Y-93360003D01*
X107367727Y-93339750D01*
X110023181Y-93284545D01*
X110333730Y-92303181D01*
X110589135Y-91672290D01*
X110830935Y-91352521D01*
X111005883Y-91385682D01*
X111062272Y-91731136D01*
X111281907Y-92052703D01*
X111895716Y-92353420D01*
X112836062Y-92610830D01*
X114035302Y-92802472D01*
X114404811Y-92840967D01*
X115337131Y-92890046D01*
X115836928Y-92829835D01*
X115898229Y-92668472D01*
X115515058Y-92414096D01*
X114906660Y-92157429D01*
X114179685Y-91862754D01*
X113830374Y-91652122D01*
X113794467Y-91475483D01*
X113893033Y-91367964D01*
X114322699Y-91205324D01*
X114992528Y-91135117D01*
X115244100Y-91139261D01*
X116400435Y-91167946D01*
X117332285Y-91135546D01*
X118001117Y-91055210D01*
X118368400Y-90940088D01*
X118395603Y-90803329D01*
X118044194Y-90658083D01*
X117275642Y-90517501D01*
X117123636Y-90497831D01*
X115488193Y-90103638D01*
X114155370Y-89361890D01*
X113119724Y-88269084D01*
X112766871Y-87694955D01*
X111891410Y-85639859D01*
X111372706Y-83446974D01*
X111226755Y-81230425D01*
X111469555Y-79104342D01*
X111527522Y-78852727D01*
X111700549Y-78073956D01*
X111836058Y-77351818D01*
X111995377Y-76680046D01*
X112290046Y-75720575D01*
X112683760Y-74568439D01*
X113140214Y-73318670D01*
X113623102Y-72066301D01*
X114096119Y-70906367D01*
X114522961Y-69933900D01*
X114867321Y-69243934D01*
X115029756Y-68991928D01*
X115287533Y-68608995D01*
X115619336Y-68036621D01*
X115664601Y-67952837D01*
X116516163Y-66438279D01*
X117417234Y-65007684D01*
X118424727Y-63585764D01*
X119595553Y-62097231D01*
X120986624Y-60466799D01*
X122654852Y-58619178D01*
X123012674Y-58232157D01*
X125243759Y-55595729D01*
X127069297Y-52913297D01*
X128543405Y-50094315D01*
X129720202Y-47048239D01*
X129747959Y-46963234D01*
X130528577Y-44720348D01*
X131304742Y-42851893D01*
X132125319Y-41273569D01*
X133039171Y-39901078D01*
X134095163Y-38650119D01*
X135190347Y-37574142D01*
X136975081Y-36210376D01*
X138914759Y-35258230D01*
X141053114Y-34701435D01*
X143389545Y-34523663D01*
X145196721Y-34617328D01*
X146804740Y-34931127D01*
X148433414Y-35514268D01*
X149046818Y-35790077D01*
X151282519Y-37022330D01*
X153128692Y-38459311D01*
X154630923Y-40150974D01*
X155834793Y-42147274D01*
X156662964Y-44136430D01*
X156998248Y-45081562D01*
X157311826Y-45942879D01*
X157545199Y-46560161D01*
X157577375Y-46640909D01*
X157808066Y-47261160D01*
X158092020Y-48091889D01*
X158257298Y-48603636D01*
X158540871Y-49449796D01*
X158829889Y-50226588D01*
X158972358Y-50566363D01*
X159275250Y-51243362D01*
X159620489Y-52031452D01*
X159685849Y-52182727D01*
X160322857Y-53468580D01*
X161162186Y-54810607D01*
X162245631Y-56265069D01*
X163614986Y-57888228D01*
X165241998Y-59662319D01*
X166359896Y-60857497D01*
X167228198Y-61820600D01*
X167925126Y-62644842D01*
X168528901Y-63423437D01*
X169117745Y-64249596D01*
X169235262Y-64420909D01*
X169764029Y-65180626D01*
X170435064Y-66124388D01*
X171115392Y-67065403D01*
X171207858Y-67191818D01*
X172028081Y-68423995D01*
X172889805Y-69918588D01*
X173766173Y-71609116D01*
X174630327Y-73429096D01*
X175455410Y-75312047D01*
X176214563Y-77191485D01*
X176880930Y-79000930D01*
X177427652Y-80673899D01*
X177827873Y-82143910D01*
X178054734Y-83344481D01*
X178081649Y-84206911D01*
X179133929Y-84206911D01*
X179109481Y-83863615D01*
X179019298Y-82818838D01*
X178931529Y-82063118D01*
X178839696Y-81539039D01*
X178737320Y-81189189D01*
X178639035Y-80988921D01*
X178434873Y-80563450D01*
X178199238Y-79941079D01*
X177974523Y-79256832D01*
X177803122Y-78645728D01*
X177727430Y-78242789D01*
X177749709Y-78156464D01*
X177755399Y-78055583D01*
X177667690Y-77983282D01*
X177462506Y-77690193D01*
X177179054Y-77117872D01*
X176884352Y-76425454D01*
X176645418Y-75772076D01*
X176529270Y-75316875D01*
X176526563Y-75273636D01*
X176381665Y-74923027D01*
X176234241Y-74735475D01*
X176044186Y-74386347D01*
X176062498Y-74235651D01*
X176019740Y-73991418D01*
X175970318Y-73965631D01*
X175762039Y-73701018D01*
X175680243Y-73426363D01*
X175548675Y-72992933D01*
X175451261Y-72849090D01*
X175291319Y-72549772D01*
X175220352Y-72271818D01*
X175009774Y-71726739D01*
X174848786Y-71502747D01*
X174664372Y-71144145D01*
X174689232Y-70983202D01*
X174641447Y-70789511D01*
X174537415Y-70770909D01*
X174371373Y-70679543D01*
X174410445Y-70614857D01*
X174379217Y-70360510D01*
X174091910Y-69954195D01*
X174062316Y-69922130D01*
X173766579Y-69558885D01*
X173716605Y-69387463D01*
X173729563Y-69385454D01*
X173720868Y-69222427D01*
X173490594Y-68815207D01*
X173378038Y-68651033D01*
X173115584Y-68222538D01*
X173117452Y-68067011D01*
X173189133Y-68090884D01*
X173304272Y-68111293D01*
X173122680Y-67936564D01*
X172867019Y-67624203D01*
X172872528Y-67457622D01*
X172850738Y-67317318D01*
X172770203Y-67307272D01*
X172533171Y-67123467D01*
X172149255Y-66640317D01*
X171699335Y-65960223D01*
X171675909Y-65921818D01*
X171238368Y-65236313D01*
X170881901Y-64740936D01*
X170679843Y-64537107D01*
X170674126Y-64536363D01*
X170477567Y-64359266D01*
X170108814Y-63898346D01*
X169643986Y-63259158D01*
X169159203Y-62547257D01*
X168730585Y-61868199D01*
X168644779Y-61722269D01*
X168245392Y-61229858D01*
X167890461Y-60925389D01*
X167569430Y-60596041D01*
X167532845Y-60358479D01*
X167539800Y-60191044D01*
X167478981Y-60197348D01*
X167205486Y-60085175D01*
X166789385Y-59741085D01*
X166367039Y-59301205D01*
X166074806Y-58901659D01*
X166018636Y-58739512D01*
X165892566Y-58594456D01*
X165837689Y-58617303D01*
X165588803Y-58532948D01*
X165216174Y-58179558D01*
X165159628Y-58111385D01*
X164737354Y-57609593D01*
X164143414Y-56931154D01*
X163617647Y-56345804D01*
X162997761Y-55609049D01*
X162453291Y-54866184D01*
X162159798Y-54383077D01*
X161821207Y-53809233D01*
X161507169Y-53422677D01*
X161453325Y-53380808D01*
X161265316Y-53098333D01*
X161293771Y-52976717D01*
X161270748Y-52773955D01*
X161198733Y-52760000D01*
X160985343Y-52572587D01*
X160775738Y-52163000D01*
X160672396Y-51760213D01*
X160693567Y-51631270D01*
X160584049Y-51451344D01*
X160481188Y-51377246D01*
X160197313Y-51015503D01*
X160160230Y-50889611D01*
X160019827Y-50476676D01*
X159749542Y-49895826D01*
X159711814Y-49823606D01*
X159426226Y-49146602D01*
X159272474Y-48522377D01*
X159269960Y-48495878D01*
X159185586Y-48057710D01*
X159079742Y-47910909D01*
X158918831Y-47713302D01*
X158735828Y-47241643D01*
X158582990Y-46677674D01*
X158512572Y-46203138D01*
X158537638Y-46025535D01*
X158490761Y-45841179D01*
X158429573Y-45832727D01*
X158260922Y-45628274D01*
X158005792Y-45082515D01*
X157709193Y-44296846D01*
X157590269Y-43941964D01*
X157240122Y-42930290D01*
X156867038Y-41963049D01*
X156541441Y-41220834D01*
X156487192Y-41113328D01*
X156203314Y-40512693D01*
X156054668Y-40081221D01*
X156048589Y-39985109D01*
X155959464Y-39892238D01*
X155888553Y-39926055D01*
X155667461Y-39855076D01*
X155471006Y-39571612D01*
X155456156Y-39305634D01*
X155460862Y-39299458D01*
X155325764Y-39128750D01*
X154921262Y-38730582D01*
X154325838Y-38181228D01*
X154126818Y-38002889D01*
X153433298Y-37372737D01*
X152851917Y-36821599D01*
X152489750Y-36451498D01*
X152452727Y-36407782D01*
X152221184Y-36206481D01*
X152156747Y-36263593D01*
X152038938Y-36276298D01*
X151810383Y-36032684D01*
X151557478Y-35753899D01*
X151471363Y-35749978D01*
X151294859Y-35768782D01*
X150861685Y-35599027D01*
X150778636Y-35557272D01*
X150309712Y-35268082D01*
X150088488Y-35039729D01*
X150085909Y-35023208D01*
X149893965Y-34857874D01*
X149681818Y-34813994D01*
X149223295Y-34703423D01*
X148570001Y-34467894D01*
X148354091Y-34377191D01*
X147734286Y-34119757D01*
X147285165Y-33956908D01*
X147199545Y-33934779D01*
X146814349Y-33857942D01*
X146795454Y-33853409D01*
X146442833Y-33822956D01*
X145756497Y-33805057D01*
X144838891Y-33798574D01*
X143792459Y-33802372D01*
G36*
X149273348Y-91884677D02*
X148305811Y-92254139D01*
X147514973Y-92906949D01*
X147001581Y-93735100D01*
X146858316Y-94473727D01*
X147073787Y-95492982D01*
X147683475Y-96288673D01*
X148165728Y-96605701D01*
X148943832Y-96835805D01*
X149827682Y-96740336D01*
X150722624Y-96407268D01*
X151556557Y-95829119D01*
X152036803Y-95079668D01*
X152191647Y-94247178D01*
X152049373Y-93419912D01*
X151638264Y-92686133D01*
X150986605Y-92134105D01*
X150122680Y-91852092D01*
X149273348Y-91884677D01*
X149273348Y-91884677D01*
G37*
X149273348Y-91884677D02*
X148305811Y-92254139D01*
X147514973Y-92906949D01*
X147001581Y-93735100D01*
X146858316Y-94473727D01*
X147073787Y-95492982D01*
X147683475Y-96288673D01*
X148165728Y-96605701D01*
X148943832Y-96835805D01*
X149827682Y-96740336D01*
X150722624Y-96407268D01*
X151556557Y-95829119D01*
X152036803Y-95079668D01*
X152191647Y-94247178D01*
X152049373Y-93419912D01*
X151638264Y-92686133D01*
X150986605Y-92134105D01*
X150122680Y-91852092D01*
X149273348Y-91884677D01*
G36*
X155242878Y-96016969D02*
X155215243Y-96291004D01*
X155242878Y-96324848D01*
X155380154Y-96293151D01*
X155396818Y-96170909D01*
X155312332Y-95980844D01*
X155242878Y-96016969D01*
X155242878Y-96016969D01*
G37*
X155242878Y-96016969D02*
X155215243Y-96291004D01*
X155242878Y-96324848D01*
X155380154Y-96293151D01*
X155396818Y-96170909D01*
X155312332Y-95980844D01*
X155242878Y-96016969D01*
G36*
X164344118Y-93318994D02*
X164091321Y-93419200D01*
X164092561Y-93457727D01*
X164403245Y-93600603D01*
X164921570Y-93609571D01*
X165413946Y-93487069D01*
X165495014Y-93443083D01*
X165486996Y-93331155D01*
X165095516Y-93275614D01*
X164883039Y-93273437D01*
X164344118Y-93318994D01*
X164344118Y-93318994D01*
G37*
X164344118Y-93318994D02*
X164091321Y-93419200D01*
X164092561Y-93457727D01*
X164403245Y-93600603D01*
X164921570Y-93609571D01*
X165413946Y-93487069D01*
X165495014Y-93443083D01*
X165486996Y-93331155D01*
X165095516Y-93275614D01*
X164883039Y-93273437D01*
X164344118Y-93318994D01*
G36*
X159482992Y-90801918D02*
X159164992Y-90877952D01*
X158854484Y-91090814D01*
X158787775Y-91501235D01*
X158826444Y-91820273D01*
X158923992Y-92263065D01*
X159007995Y-92256776D01*
X159039936Y-92130000D01*
X159295055Y-91601378D01*
X159514606Y-91369845D01*
X159785444Y-91231389D01*
X159996194Y-91384220D01*
X160247135Y-91902023D01*
X160250829Y-91910824D01*
X160602768Y-92750141D01*
X160602768Y-91821957D01*
X160557386Y-91198847D01*
X160378230Y-90897310D01*
X160114707Y-90800474D01*
X159482992Y-90801918D01*
X159482992Y-90801918D01*
G37*
X159482992Y-90801918D02*
X159164992Y-90877952D01*
X158854484Y-91090814D01*
X158787775Y-91501235D01*
X158826444Y-91820273D01*
X158923992Y-92263065D01*
X159007995Y-92256776D01*
X159039936Y-92130000D01*
X159295055Y-91601378D01*
X159514606Y-91369845D01*
X159785444Y-91231389D01*
X159996194Y-91384220D01*
X160247135Y-91902023D01*
X160250829Y-91910824D01*
X160602768Y-92750141D01*
X160602768Y-91821957D01*
X160557386Y-91198847D01*
X160378230Y-90897310D01*
X160114707Y-90800474D01*
X159482992Y-90801918D01*
G36*
X166812008Y-88039909D02*
X166802606Y-88448061D01*
X166948566Y-88877093D01*
X167002021Y-88955000D01*
X167414556Y-89218570D01*
X167840196Y-89156277D01*
X167981363Y-89012727D01*
X167910662Y-88830980D01*
X167648627Y-88781818D01*
X167253526Y-88625422D01*
X167173181Y-88320000D01*
X167092463Y-87944545D01*
X166980757Y-87858181D01*
X166812008Y-88039909D01*
X166812008Y-88039909D01*
G37*
X166812008Y-88039909D02*
X166802606Y-88448061D01*
X166948566Y-88877093D01*
X167002021Y-88955000D01*
X167414556Y-89218570D01*
X167840196Y-89156277D01*
X167981363Y-89012727D01*
X167910662Y-88830980D01*
X167648627Y-88781818D01*
X167253526Y-88625422D01*
X167173181Y-88320000D01*
X167092463Y-87944545D01*
X166980757Y-87858181D01*
X166812008Y-88039909D01*
G36*
X164916308Y-87045995D02*
X164710387Y-87319681D01*
X164898176Y-87664607D01*
X164942056Y-87700363D01*
X165230608Y-88118149D01*
X165392399Y-88666363D01*
X165476270Y-89113037D01*
X165549277Y-89248099D01*
X165552253Y-89243636D01*
X165612031Y-88950544D01*
X165652232Y-88504770D01*
X165734719Y-87982188D01*
X165853108Y-87715831D01*
X166026781Y-87321867D01*
X165815240Y-87017464D01*
X165454991Y-86934545D01*
X164916308Y-87045995D01*
X164916308Y-87045995D01*
G37*
X164916308Y-87045995D02*
X164710387Y-87319681D01*
X164898176Y-87664607D01*
X164942056Y-87700363D01*
X165230608Y-88118149D01*
X165392399Y-88666363D01*
X165476270Y-89113037D01*
X165549277Y-89248099D01*
X165552253Y-89243636D01*
X165612031Y-88950544D01*
X165652232Y-88504770D01*
X165734719Y-87982188D01*
X165853108Y-87715831D01*
X166026781Y-87321867D01*
X165815240Y-87017464D01*
X165454991Y-86934545D01*
X164916308Y-87045995D01*
G36*
X163038934Y-86801839D02*
X162465923Y-87042242D01*
X161899958Y-87343535D01*
X161498775Y-87624406D01*
X161400454Y-87765959D01*
X161590670Y-87794553D01*
X161948931Y-87729321D01*
X162359792Y-87707315D01*
X162615275Y-87979727D01*
X162745101Y-88302194D01*
X162985359Y-88858816D01*
X163154457Y-88969009D01*
X163239832Y-88631044D01*
X163247727Y-88371378D01*
X163380509Y-87684992D01*
X163607184Y-87216833D01*
X163833838Y-86846876D01*
X163744140Y-86717910D01*
X163461257Y-86703636D01*
X163038934Y-86801839D01*
X163038934Y-86801839D01*
G37*
X163038934Y-86801839D02*
X162465923Y-87042242D01*
X161899958Y-87343535D01*
X161498775Y-87624406D01*
X161400454Y-87765959D01*
X161590670Y-87794553D01*
X161948931Y-87729321D01*
X162359792Y-87707315D01*
X162615275Y-87979727D01*
X162745101Y-88302194D01*
X162985359Y-88858816D01*
X163154457Y-88969009D01*
X163239832Y-88631044D01*
X163247727Y-88371378D01*
X163380509Y-87684992D01*
X163607184Y-87216833D01*
X163833838Y-86846876D01*
X163744140Y-86717910D01*
X163461257Y-86703636D01*
X163038934Y-86801839D01*
G36*
X145612449Y-83145266D02*
X145295440Y-83470267D01*
X145236818Y-83726522D01*
X145357855Y-84049572D01*
X145792606Y-84160831D01*
X145929545Y-84163636D01*
X146461842Y-84068171D01*
X146622272Y-83845546D01*
X146428727Y-83387776D01*
X145985964Y-83125927D01*
X145612449Y-83145266D01*
X145612449Y-83145266D01*
G37*
X145612449Y-83145266D02*
X145295440Y-83470267D01*
X145236818Y-83726522D01*
X145357855Y-84049572D01*
X145792606Y-84160831D01*
X145929545Y-84163636D01*
X146461842Y-84068171D01*
X146622272Y-83845546D01*
X146428727Y-83387776D01*
X145985964Y-83125927D01*
X145612449Y-83145266D01*
G36*
X143524381Y-40001685D02*
X143256257Y-40165905D01*
X142707128Y-40418976D01*
X142302392Y-40480619D01*
X141409217Y-40534673D01*
X140520279Y-40897921D01*
X139559538Y-41610464D01*
X138829091Y-42312218D01*
X138043642Y-43172184D01*
X137580121Y-43815565D01*
X137394241Y-44307136D01*
X137385909Y-44423046D01*
X137309155Y-44970050D01*
X137162558Y-45270987D01*
X136967643Y-45618934D01*
X136710592Y-46268725D01*
X136438696Y-47073540D01*
X136199245Y-47886555D01*
X136039529Y-48560949D01*
X136000454Y-48878966D01*
X135882625Y-49680615D01*
X135558140Y-50778167D01*
X135070505Y-52079326D01*
X134463222Y-53491801D01*
X133779796Y-54923295D01*
X133063732Y-56281517D01*
X132358534Y-57474171D01*
X131707707Y-58408964D01*
X131285635Y-58881406D01*
X131012635Y-59186835D01*
X130576628Y-59723825D01*
X130244341Y-60151406D01*
X129716280Y-60836338D01*
X129293151Y-61358053D01*
X128855390Y-61854611D01*
X128283432Y-62464071D01*
X127846641Y-62920000D01*
X126046977Y-64863819D01*
X124614263Y-66569382D01*
X123532550Y-68056624D01*
X122926737Y-69069419D01*
X122565316Y-69712935D01*
X122271389Y-70171429D01*
X122152556Y-70309090D01*
X121906043Y-70619476D01*
X121575009Y-71213786D01*
X121229512Y-71940764D01*
X120939609Y-72649154D01*
X120775356Y-73187700D01*
X120760454Y-73314699D01*
X120655736Y-73874460D01*
X120441047Y-74419194D01*
X120237905Y-74958655D01*
X119985883Y-75834308D01*
X119711558Y-76926735D01*
X119441509Y-78116517D01*
X119202315Y-79284235D01*
X119020554Y-80310469D01*
X118922805Y-81075801D01*
X118913181Y-81283989D01*
X119033367Y-82180320D01*
X119350097Y-82922489D01*
X119687010Y-83282386D01*
X120097603Y-83400965D01*
X120926216Y-83511446D01*
X122129076Y-83610521D01*
X123662410Y-83694881D01*
X125482443Y-83761216D01*
X126302272Y-83782457D01*
X127747194Y-83803142D01*
X128847771Y-83758240D01*
X129714490Y-83601809D01*
X130457838Y-83287907D01*
X131188301Y-82770592D01*
X132016366Y-82003923D01*
X132998636Y-80998023D01*
X134100128Y-79846105D01*
X134915995Y-78972439D01*
X135485054Y-78326622D01*
X135846122Y-77858251D01*
X136038014Y-77516923D01*
X136099546Y-77252235D01*
X136069536Y-77013783D01*
X136068884Y-77011284D01*
X136121524Y-76483785D01*
X136421885Y-76176480D01*
X136744571Y-75804683D01*
X136777619Y-75506982D01*
X136846922Y-75139871D01*
X137189135Y-74678724D01*
X137249110Y-74620913D01*
X137749199Y-73901688D01*
X137847727Y-73377945D01*
X138012854Y-72691202D01*
X138309545Y-72271818D01*
X138663722Y-71780654D01*
X138775992Y-71370121D01*
X138836925Y-70944728D01*
X138996785Y-70199749D01*
X139227595Y-69259636D01*
X139377848Y-68692727D01*
X139636420Y-67685244D01*
X139837868Y-66790309D01*
X139954239Y-66137911D01*
X139971857Y-65930350D01*
X140103512Y-65278914D01*
X140293637Y-64897607D01*
X140555391Y-64312139D01*
X140618636Y-63915905D01*
X140728823Y-63415235D01*
X141008814Y-62727401D01*
X141195909Y-62364210D01*
X141529387Y-61706985D01*
X141737898Y-61180771D01*
X141773181Y-61006350D01*
X141931899Y-60618868D01*
X142235000Y-60264545D01*
X142578579Y-59892025D01*
X142696818Y-59661980D01*
X142887292Y-59263058D01*
X143351073Y-58827564D01*
X143926699Y-58474658D01*
X144452707Y-58323499D01*
X144508646Y-58324852D01*
X145414737Y-58348655D01*
X145975473Y-58229881D01*
X146293704Y-57937258D01*
X146379390Y-57756037D01*
X146804485Y-57177337D01*
X147201249Y-57042098D01*
X146288179Y-57042098D01*
X146035847Y-57297973D01*
X145498580Y-57572075D01*
X145122452Y-57542046D01*
X145005909Y-57278287D01*
X145199744Y-56954839D01*
X145637556Y-56760397D01*
X146103805Y-56777920D01*
X146193368Y-56821251D01*
X146288179Y-57042098D01*
X147201249Y-57042098D01*
X147532030Y-56929350D01*
X147805797Y-56916363D01*
X148248870Y-57095827D01*
X148851375Y-57570648D01*
X149526538Y-58245467D01*
X150187583Y-59024927D01*
X150747733Y-59813671D01*
X151120214Y-60516341D01*
X151147567Y-60588633D01*
X151385253Y-61240125D01*
X151621960Y-61852886D01*
X151914456Y-62568359D01*
X152319510Y-63527987D01*
X152453976Y-63843636D01*
X152816844Y-64743070D01*
X153236495Y-65857126D01*
X153664037Y-67047632D01*
X154050582Y-68176412D01*
X154347238Y-69105295D01*
X154469796Y-69540755D01*
X154654692Y-70148801D01*
X154830386Y-70528885D01*
X154881358Y-70579846D01*
X155163598Y-70839186D01*
X155565764Y-71348925D01*
X155981136Y-71957082D01*
X156302995Y-72511677D01*
X156405025Y-72749712D01*
X156703739Y-73157871D01*
X157247084Y-73552637D01*
X157369655Y-73615590D01*
X158039697Y-74086135D01*
X158606373Y-74725924D01*
X158659641Y-74810970D01*
X159287670Y-75528779D01*
X159852976Y-75804149D01*
X160582666Y-76213252D01*
X161290372Y-77013084D01*
X161896773Y-77723723D01*
X162691423Y-78464859D01*
X163238478Y-78887474D01*
X164044914Y-79551304D01*
X164758399Y-80317621D01*
X165069210Y-80757599D01*
X165594083Y-81507763D01*
X166282587Y-82321092D01*
X166709628Y-82756663D01*
X167433550Y-83368226D01*
X168076780Y-83704717D01*
X168829584Y-83865038D01*
X168845537Y-83866946D01*
X169944091Y-83997054D01*
X169944091Y-83052119D01*
X169893219Y-82302757D01*
X169767779Y-81665462D01*
X169737228Y-81576774D01*
X169548349Y-81023764D01*
X169323393Y-80274785D01*
X169249090Y-80007272D01*
X169056749Y-79324058D01*
X168868782Y-78750700D01*
X168627200Y-78131520D01*
X168274014Y-77310842D01*
X168087934Y-76890000D01*
X167048425Y-74635129D01*
X166100832Y-72760164D01*
X165259689Y-71293428D01*
X165043241Y-70956760D01*
X164605922Y-70279751D01*
X164293023Y-69762157D01*
X164171390Y-69514626D01*
X164171363Y-69513578D01*
X164030301Y-69267574D01*
X163767272Y-68958805D01*
X163340687Y-68459636D01*
X162901363Y-67882085D01*
X162336346Y-67127717D01*
X161605656Y-66208278D01*
X160810130Y-65244998D01*
X160050603Y-64359107D01*
X159427913Y-63671835D01*
X159238842Y-63478816D01*
X156936371Y-61104771D01*
X155037033Y-58893835D01*
X153521561Y-56822423D01*
X152688687Y-55460486D01*
X152347193Y-54781729D01*
X151964821Y-53918245D01*
X151590946Y-52996008D01*
X151274940Y-52140990D01*
X151066177Y-51479164D01*
X151009545Y-51176287D01*
X150907643Y-50726353D01*
X150778636Y-50566363D01*
X150621131Y-50258637D01*
X150548315Y-49701571D01*
X150547727Y-49645593D01*
X150448809Y-49003591D01*
X150209964Y-48530008D01*
X150201363Y-48521168D01*
X149910943Y-48014727D01*
X149855000Y-47701860D01*
X149770105Y-47231587D01*
X144089192Y-47231587D01*
X143973402Y-47703426D01*
X143928333Y-47756969D01*
X143491638Y-47930160D01*
X143048171Y-47751589D01*
X142790887Y-47330637D01*
X142775524Y-46711125D01*
X143023866Y-46312311D01*
X143452959Y-46233601D01*
X143644701Y-46307521D01*
X143963891Y-46685883D01*
X144089192Y-47231587D01*
X149770105Y-47231587D01*
X149672154Y-46688997D01*
X149172886Y-45536110D01*
X148431098Y-44349999D01*
X147520692Y-43237467D01*
X146515571Y-42305314D01*
X145775410Y-41806195D01*
X145147063Y-41471864D01*
X144786037Y-41356412D01*
X144563453Y-41441444D01*
X144419381Y-41612615D01*
X144236765Y-41797202D01*
X144114147Y-41683700D01*
X144007129Y-41204243D01*
X143961411Y-40912613D01*
X143851699Y-40260207D01*
X143731584Y-39983633D01*
X143524381Y-40001685D01*
X143524381Y-40001685D01*
G37*
X143524381Y-40001685D02*
X143256257Y-40165905D01*
X142707128Y-40418976D01*
X142302392Y-40480619D01*
X141409217Y-40534673D01*
X140520279Y-40897921D01*
X139559538Y-41610464D01*
X138829091Y-42312218D01*
X138043642Y-43172184D01*
X137580121Y-43815565D01*
X137394241Y-44307136D01*
X137385909Y-44423046D01*
X137309155Y-44970050D01*
X137162558Y-45270987D01*
X136967643Y-45618934D01*
X136710592Y-46268725D01*
X136438696Y-47073540D01*
X136199245Y-47886555D01*
X136039529Y-48560949D01*
X136000454Y-48878966D01*
X135882625Y-49680615D01*
X135558140Y-50778167D01*
X135070505Y-52079326D01*
X134463222Y-53491801D01*
X133779796Y-54923295D01*
X133063732Y-56281517D01*
X132358534Y-57474171D01*
X131707707Y-58408964D01*
X131285635Y-58881406D01*
X131012635Y-59186835D01*
X130576628Y-59723825D01*
X130244341Y-60151406D01*
X129716280Y-60836338D01*
X129293151Y-61358053D01*
X128855390Y-61854611D01*
X128283432Y-62464071D01*
X127846641Y-62920000D01*
X126046977Y-64863819D01*
X124614263Y-66569382D01*
X123532550Y-68056624D01*
X122926737Y-69069419D01*
X122565316Y-69712935D01*
X122271389Y-70171429D01*
X122152556Y-70309090D01*
X121906043Y-70619476D01*
X121575009Y-71213786D01*
X121229512Y-71940764D01*
X120939609Y-72649154D01*
X120775356Y-73187700D01*
X120760454Y-73314699D01*
X120655736Y-73874460D01*
X120441047Y-74419194D01*
X120237905Y-74958655D01*
X119985883Y-75834308D01*
X119711558Y-76926735D01*
X119441509Y-78116517D01*
X119202315Y-79284235D01*
X119020554Y-80310469D01*
X118922805Y-81075801D01*
X118913181Y-81283989D01*
X119033367Y-82180320D01*
X119350097Y-82922489D01*
X119687010Y-83282386D01*
X120097603Y-83400965D01*
X120926216Y-83511446D01*
X122129076Y-83610521D01*
X123662410Y-83694881D01*
X125482443Y-83761216D01*
X126302272Y-83782457D01*
X127747194Y-83803142D01*
X128847771Y-83758240D01*
X129714490Y-83601809D01*
X130457838Y-83287907D01*
X131188301Y-82770592D01*
X132016366Y-82003923D01*
X132998636Y-80998023D01*
X134100128Y-79846105D01*
X134915995Y-78972439D01*
X135485054Y-78326622D01*
X135846122Y-77858251D01*
X136038014Y-77516923D01*
X136099546Y-77252235D01*
X136069536Y-77013783D01*
X136068884Y-77011284D01*
X136121524Y-76483785D01*
X136421885Y-76176480D01*
X136744571Y-75804683D01*
X136777619Y-75506982D01*
X136846922Y-75139871D01*
X137189135Y-74678724D01*
X137249110Y-74620913D01*
X137749199Y-73901688D01*
X137847727Y-73377945D01*
X138012854Y-72691202D01*
X138309545Y-72271818D01*
X138663722Y-71780654D01*
X138775992Y-71370121D01*
X138836925Y-70944728D01*
X138996785Y-70199749D01*
X139227595Y-69259636D01*
X139377848Y-68692727D01*
X139636420Y-67685244D01*
X139837868Y-66790309D01*
X139954239Y-66137911D01*
X139971857Y-65930350D01*
X140103512Y-65278914D01*
X140293637Y-64897607D01*
X140555391Y-64312139D01*
X140618636Y-63915905D01*
X140728823Y-63415235D01*
X141008814Y-62727401D01*
X141195909Y-62364210D01*
X141529387Y-61706985D01*
X141737898Y-61180771D01*
X141773181Y-61006350D01*
X141931899Y-60618868D01*
X142235000Y-60264545D01*
X142578579Y-59892025D01*
X142696818Y-59661980D01*
X142887292Y-59263058D01*
X143351073Y-58827564D01*
X143926699Y-58474658D01*
X144452707Y-58323499D01*
X144508646Y-58324852D01*
X145414737Y-58348655D01*
X145975473Y-58229881D01*
X146293704Y-57937258D01*
X146379390Y-57756037D01*
X146804485Y-57177337D01*
X147201249Y-57042098D01*
X146288179Y-57042098D01*
X146035847Y-57297973D01*
X145498580Y-57572075D01*
X145122452Y-57542046D01*
X145005909Y-57278287D01*
X145199744Y-56954839D01*
X145637556Y-56760397D01*
X146103805Y-56777920D01*
X146193368Y-56821251D01*
X146288179Y-57042098D01*
X147201249Y-57042098D01*
X147532030Y-56929350D01*
X147805797Y-56916363D01*
X148248870Y-57095827D01*
X148851375Y-57570648D01*
X149526538Y-58245467D01*
X150187583Y-59024927D01*
X150747733Y-59813671D01*
X151120214Y-60516341D01*
X151147567Y-60588633D01*
X151385253Y-61240125D01*
X151621960Y-61852886D01*
X151914456Y-62568359D01*
X152319510Y-63527987D01*
X152453976Y-63843636D01*
X152816844Y-64743070D01*
X153236495Y-65857126D01*
X153664037Y-67047632D01*
X154050582Y-68176412D01*
X154347238Y-69105295D01*
X154469796Y-69540755D01*
X154654692Y-70148801D01*
X154830386Y-70528885D01*
X154881358Y-70579846D01*
X155163598Y-70839186D01*
X155565764Y-71348925D01*
X155981136Y-71957082D01*
X156302995Y-72511677D01*
X156405025Y-72749712D01*
X156703739Y-73157871D01*
X157247084Y-73552637D01*
X157369655Y-73615590D01*
X158039697Y-74086135D01*
X158606373Y-74725924D01*
X158659641Y-74810970D01*
X159287670Y-75528779D01*
X159852976Y-75804149D01*
X160582666Y-76213252D01*
X161290372Y-77013084D01*
X161896773Y-77723723D01*
X162691423Y-78464859D01*
X163238478Y-78887474D01*
X164044914Y-79551304D01*
X164758399Y-80317621D01*
X165069210Y-80757599D01*
X165594083Y-81507763D01*
X166282587Y-82321092D01*
X166709628Y-82756663D01*
X167433550Y-83368226D01*
X168076780Y-83704717D01*
X168829584Y-83865038D01*
X168845537Y-83866946D01*
X169944091Y-83997054D01*
X169944091Y-83052119D01*
X169893219Y-82302757D01*
X169767779Y-81665462D01*
X169737228Y-81576774D01*
X169548349Y-81023764D01*
X169323393Y-80274785D01*
X169249090Y-80007272D01*
X169056749Y-79324058D01*
X168868782Y-78750700D01*
X168627200Y-78131520D01*
X168274014Y-77310842D01*
X168087934Y-76890000D01*
X167048425Y-74635129D01*
X166100832Y-72760164D01*
X165259689Y-71293428D01*
X165043241Y-70956760D01*
X164605922Y-70279751D01*
X164293023Y-69762157D01*
X164171390Y-69514626D01*
X164171363Y-69513578D01*
X164030301Y-69267574D01*
X163767272Y-68958805D01*
X163340687Y-68459636D01*
X162901363Y-67882085D01*
X162336346Y-67127717D01*
X161605656Y-66208278D01*
X160810130Y-65244998D01*
X160050603Y-64359107D01*
X159427913Y-63671835D01*
X159238842Y-63478816D01*
X156936371Y-61104771D01*
X155037033Y-58893835D01*
X153521561Y-56822423D01*
X152688687Y-55460486D01*
X152347193Y-54781729D01*
X151964821Y-53918245D01*
X151590946Y-52996008D01*
X151274940Y-52140990D01*
X151066177Y-51479164D01*
X151009545Y-51176287D01*
X150907643Y-50726353D01*
X150778636Y-50566363D01*
X150621131Y-50258637D01*
X150548315Y-49701571D01*
X150547727Y-49645593D01*
X150448809Y-49003591D01*
X150209964Y-48530008D01*
X150201363Y-48521168D01*
X149910943Y-48014727D01*
X149855000Y-47701860D01*
X149770105Y-47231587D01*
X144089192Y-47231587D01*
X143973402Y-47703426D01*
X143928333Y-47756969D01*
X143491638Y-47930160D01*
X143048171Y-47751589D01*
X142790887Y-47330637D01*
X142775524Y-46711125D01*
X143023866Y-46312311D01*
X143452959Y-46233601D01*
X143644701Y-46307521D01*
X143963891Y-46685883D01*
X144089192Y-47231587D01*
X149770105Y-47231587D01*
X149672154Y-46688997D01*
X149172886Y-45536110D01*
X148431098Y-44349999D01*
X147520692Y-43237467D01*
X146515571Y-42305314D01*
X145775410Y-41806195D01*
X145147063Y-41471864D01*
X144786037Y-41356412D01*
X144563453Y-41441444D01*
X144419381Y-41612615D01*
X144236765Y-41797202D01*
X144114147Y-41683700D01*
X144007129Y-41204243D01*
X143961411Y-40912613D01*
X143851699Y-40260207D01*
X143731584Y-39983633D01*
X143524381Y-40001685D01*
G36*
X141946363Y-83419967D02*
X141578845Y-83604428D01*
X141617639Y-83799095D01*
X142016549Y-83921906D01*
X142235000Y-83932727D01*
X142721468Y-83871391D01*
X142927677Y-83723618D01*
X142927727Y-83721060D01*
X142733371Y-83459374D01*
X142262516Y-83373484D01*
X141946363Y-83419967D01*
X141946363Y-83419967D01*
G37*
X141946363Y-83419967D02*
X141578845Y-83604428D01*
X141617639Y-83799095D01*
X142016549Y-83921906D01*
X142235000Y-83932727D01*
X142721468Y-83871391D01*
X142927677Y-83723618D01*
X142927727Y-83721060D01*
X142733371Y-83459374D01*
X142262516Y-83373484D01*
X141946363Y-83419967D01*
G36*
X138268586Y-83617302D02*
X138194091Y-83701818D01*
X138276910Y-83872049D01*
X138655909Y-83932727D01*
X139057192Y-83860906D01*
X139117727Y-83701818D01*
X138782662Y-83487017D01*
X138655909Y-83470909D01*
X138268586Y-83617302D01*
X138268586Y-83617302D01*
G37*
X138268586Y-83617302D02*
X138194091Y-83701818D01*
X138276910Y-83872049D01*
X138655909Y-83932727D01*
X139057192Y-83860906D01*
X139117727Y-83701818D01*
X138782662Y-83487017D01*
X138655909Y-83470909D01*
X138268586Y-83617302D01*
G36*
X143206335Y-81370209D02*
X143197068Y-81772291D01*
X143455019Y-82123223D01*
X143913942Y-82295134D01*
X144338242Y-82208412D01*
X144380411Y-82172164D01*
X144549903Y-81732542D01*
X144388598Y-81273181D01*
X144059028Y-81038986D01*
X143506438Y-81032248D01*
X143206335Y-81370209D01*
X143206335Y-81370209D01*
G37*
X143206335Y-81370209D02*
X143197068Y-81772291D01*
X143455019Y-82123223D01*
X143913942Y-82295134D01*
X144338242Y-82208412D01*
X144380411Y-82172164D01*
X144549903Y-81732542D01*
X144388598Y-81273181D01*
X144059028Y-81038986D01*
X143506438Y-81032248D01*
X143206335Y-81370209D01*
G36*
X139972061Y-80873671D02*
X139638597Y-81272446D01*
X139532494Y-81712966D01*
X139582494Y-81859317D01*
X139931548Y-82057387D01*
X140444511Y-82059967D01*
X140881176Y-81887476D01*
X140996951Y-81739090D01*
X141034286Y-81177320D01*
X140743233Y-80789059D01*
X140403098Y-80700000D01*
X139972061Y-80873671D01*
X139972061Y-80873671D01*
G37*
X139972061Y-80873671D02*
X139638597Y-81272446D01*
X139532494Y-81712966D01*
X139582494Y-81859317D01*
X139931548Y-82057387D01*
X140444511Y-82059967D01*
X140881176Y-81887476D01*
X140996951Y-81739090D01*
X141034286Y-81177320D01*
X140743233Y-80789059D01*
X140403098Y-80700000D01*
X139972061Y-80873671D01*
G36*
X141493367Y-78908064D02*
X141348345Y-79171421D01*
X141439881Y-79641935D01*
X141819074Y-79929854D01*
X142331892Y-79987438D01*
X142824302Y-79766950D01*
X142927727Y-79660909D01*
X143097334Y-79294682D01*
X142918038Y-78956507D01*
X142475403Y-78695714D01*
X141935531Y-78688463D01*
X141493367Y-78908064D01*
X141493367Y-78908064D01*
G37*
X141493367Y-78908064D02*
X141348345Y-79171421D01*
X141439881Y-79641935D01*
X141819074Y-79929854D01*
X142331892Y-79987438D01*
X142824302Y-79766950D01*
X142927727Y-79660909D01*
X143097334Y-79294682D01*
X142918038Y-78956507D01*
X142475403Y-78695714D01*
X141935531Y-78688463D01*
X141493367Y-78908064D01*
D15*
X65955000Y-39000000D02*
X65955000Y-41000000D01*
X68095000Y-41000000D02*
X68095000Y-39000000D01*
X129487000Y-92600000D02*
X129487000Y-92150000D01*
X129487000Y-92150000D02*
X136187000Y-92150000D01*
X136187000Y-92150000D02*
X136187000Y-92550000D01*
X129487000Y-93900000D02*
X129487000Y-96600000D01*
X136187000Y-96600000D02*
X136187000Y-93900000D01*
X129487000Y-98350000D02*
X136187000Y-98350000D01*
X136187000Y-98350000D02*
X136187000Y-97900000D01*
X129487000Y-97900000D02*
X129487000Y-98350000D01*
D16*
X49992000Y-60000000D02*
X51008000Y-60000000D01*
X50500000Y-60508000D02*
X50500000Y-59492000D01*
X50500000Y-48316000D02*
X50500000Y-49332000D01*
X49484000Y-48316000D02*
X51516000Y-48316000D01*
X50500000Y-71684000D02*
X50500000Y-70668000D01*
X49484000Y-71684000D02*
X51516000Y-71684000D01*
X65740000Y-60000000D02*
X64724000Y-60000000D01*
X25100000Y-60000000D02*
X26116000Y-60000000D01*
X65740000Y-58984000D02*
X65740000Y-61016000D01*
X25100000Y-58984000D02*
X25100000Y-61016000D01*
X25100000Y-48316000D02*
X25100000Y-49840000D01*
X25100000Y-71684000D02*
X25100000Y-70160000D01*
X25100000Y-71684000D02*
X26624000Y-71684000D01*
X25100000Y-48316000D02*
X26624000Y-48316000D01*
X64216000Y-48316000D02*
X65740000Y-48316000D01*
X65740000Y-48316000D02*
X65740000Y-49840000D01*
X65740000Y-70160000D02*
X65740000Y-71684000D01*
X65740000Y-71684000D02*
X64216000Y-71684000D01*
X35260000Y-49840000D02*
X35260000Y-48316000D01*
X35260000Y-48316000D02*
X36784000Y-48316000D01*
X36276000Y-71684000D02*
X35260000Y-71684000D01*
X35260000Y-71684000D02*
X35260000Y-70668000D01*
D15*
X155713000Y-99686000D02*
X157713000Y-99686000D01*
X157713000Y-101726000D02*
X155713000Y-101726000D01*
X253402000Y-90400000D02*
X251402000Y-90400000D01*
X251402000Y-88360000D02*
X253402000Y-88360000D01*
X238902000Y-102734000D02*
X240902000Y-102734000D01*
X240902000Y-104774000D02*
X238902000Y-104774000D01*
X219975000Y-102734000D02*
X221975000Y-102734000D01*
X221975000Y-104774000D02*
X219975000Y-104774000D01*
X200925000Y-102734000D02*
X202925000Y-102734000D01*
X202925000Y-104774000D02*
X200925000Y-104774000D01*
X181875000Y-102734000D02*
X183875000Y-102734000D01*
X183875000Y-104774000D02*
X181875000Y-104774000D01*
X131837000Y-99686000D02*
X133837000Y-99686000D01*
X133837000Y-101726000D02*
X131837000Y-101726000D01*
X105675000Y-102734000D02*
X107675000Y-102734000D01*
X107675000Y-104774000D02*
X105675000Y-104774000D01*
X86625000Y-102734000D02*
X88625000Y-102734000D01*
X88625000Y-104774000D02*
X86625000Y-104774000D01*
X67575000Y-102734000D02*
X69575000Y-102734000D01*
X69575000Y-104774000D02*
X67575000Y-104774000D01*
X48525000Y-102734000D02*
X50525000Y-102734000D01*
X50525000Y-104774000D02*
X48525000Y-104774000D01*
X143775000Y-87860000D02*
X145775000Y-87860000D01*
X145775000Y-89900000D02*
X143775000Y-89900000D01*
X238902000Y-83684000D02*
X240902000Y-83684000D01*
X240902000Y-85724000D02*
X238902000Y-85724000D01*
X219975000Y-83684000D02*
X221975000Y-83684000D01*
X221975000Y-85724000D02*
X219975000Y-85724000D01*
X200925000Y-83684000D02*
X202925000Y-83684000D01*
X202925000Y-85724000D02*
X200925000Y-85724000D01*
X181875000Y-83684000D02*
X183875000Y-83684000D01*
X183875000Y-85724000D02*
X181875000Y-85724000D01*
X162825000Y-83684000D02*
X164825000Y-83684000D01*
X164825000Y-85724000D02*
X162825000Y-85724000D01*
X143775000Y-83684000D02*
X145775000Y-83684000D01*
X145775000Y-85724000D02*
X143775000Y-85724000D01*
X124725000Y-83684000D02*
X126725000Y-83684000D01*
X126725000Y-85724000D02*
X124725000Y-85724000D01*
X105675000Y-83684000D02*
X107675000Y-83684000D01*
X107675000Y-85724000D02*
X105675000Y-85724000D01*
X86625000Y-83684000D02*
X88625000Y-83684000D01*
X88625000Y-85724000D02*
X86625000Y-85724000D01*
X67575000Y-83684000D02*
X69575000Y-83684000D01*
X69575000Y-85724000D02*
X67575000Y-85724000D01*
X48525000Y-83684000D02*
X50525000Y-83684000D01*
X50525000Y-85724000D02*
X48525000Y-85724000D01*
X143775000Y-68980000D02*
X145775000Y-68980000D01*
X145775000Y-71020000D02*
X143775000Y-71020000D01*
X238902000Y-64634000D02*
X240902000Y-64634000D01*
X240902000Y-66674000D02*
X238902000Y-66674000D01*
X219975000Y-64634000D02*
X221975000Y-64634000D01*
X221975000Y-66674000D02*
X219975000Y-66674000D01*
X200925000Y-64634000D02*
X202925000Y-64634000D01*
X202925000Y-66674000D02*
X200925000Y-66674000D01*
X181875000Y-64634000D02*
X183875000Y-64634000D01*
X183875000Y-66674000D02*
X181875000Y-66674000D01*
X162825000Y-64634000D02*
X164825000Y-64634000D01*
X164825000Y-66674000D02*
X162825000Y-66674000D01*
X143775000Y-64634000D02*
X145775000Y-64634000D01*
X145775000Y-66674000D02*
X143775000Y-66674000D01*
X124725000Y-64634000D02*
X126725000Y-64634000D01*
X126725000Y-66674000D02*
X124725000Y-66674000D01*
X105675000Y-64634000D02*
X107675000Y-64634000D01*
X107675000Y-66674000D02*
X105675000Y-66674000D01*
X86625000Y-64634000D02*
X88625000Y-64634000D01*
X88625000Y-66674000D02*
X86625000Y-66674000D01*
X67575000Y-64634000D02*
X69575000Y-64634000D01*
X69575000Y-66674000D02*
X67575000Y-66674000D01*
X48525000Y-64634000D02*
X50525000Y-64634000D01*
X50525000Y-66674000D02*
X48525000Y-66674000D01*
X143775000Y-49360000D02*
X145775000Y-49360000D01*
X145775000Y-51400000D02*
X143775000Y-51400000D01*
X239025000Y-45584000D02*
X241025000Y-45584000D01*
X241025000Y-47624000D02*
X239025000Y-47624000D01*
X219975000Y-45584000D02*
X221975000Y-45584000D01*
X221975000Y-47624000D02*
X219975000Y-47624000D01*
X200925000Y-45584000D02*
X202925000Y-45584000D01*
X202925000Y-47624000D02*
X200925000Y-47624000D01*
X181875000Y-45584000D02*
X183875000Y-45584000D01*
X183875000Y-47624000D02*
X181875000Y-47624000D01*
X162825000Y-45584000D02*
X164825000Y-45584000D01*
X164825000Y-47624000D02*
X162825000Y-47624000D01*
X143775000Y-45584000D02*
X145775000Y-45584000D01*
X145775000Y-47624000D02*
X143775000Y-47624000D01*
X124725000Y-45584000D02*
X126725000Y-45584000D01*
X126725000Y-47624000D02*
X124725000Y-47624000D01*
X105675000Y-45584000D02*
X107675000Y-45584000D01*
X107675000Y-47624000D02*
X105675000Y-47624000D01*
X86625000Y-45584000D02*
X88625000Y-45584000D01*
X88625000Y-47624000D02*
X86625000Y-47624000D01*
X67575000Y-45584000D02*
X69575000Y-45584000D01*
X69575000Y-47624000D02*
X67575000Y-47624000D01*
X48525000Y-45584000D02*
X50525000Y-45584000D01*
X50525000Y-47624000D02*
X48525000Y-47624000D01*
D16*
X134217953Y-99602381D02*
X134217953Y-98935714D01*
X134217953Y-99126190D02*
X134170334Y-99030952D01*
X134122715Y-98983333D01*
X134027477Y-98935714D01*
X133932238Y-98935714D01*
X133217952Y-99554762D02*
X133313190Y-99602381D01*
X133503667Y-99602381D01*
X133598905Y-99554762D01*
X133646524Y-99459524D01*
X133646524Y-99078571D01*
X133598905Y-98983333D01*
X133503667Y-98935714D01*
X133313190Y-98935714D01*
X133217952Y-98983333D01*
X133170333Y-99078571D01*
X133170333Y-99173810D01*
X133646524Y-99269048D01*
X132789381Y-99554762D02*
X132694143Y-99602381D01*
X132503667Y-99602381D01*
X132408428Y-99554762D01*
X132360809Y-99459524D01*
X132360809Y-99411905D01*
X132408428Y-99316667D01*
X132503667Y-99269048D01*
X132646524Y-99269048D01*
X132741762Y-99221429D01*
X132789381Y-99126190D01*
X132789381Y-99078571D01*
X132741762Y-98983333D01*
X132646524Y-98935714D01*
X132503667Y-98935714D01*
X132408428Y-98983333D01*
X131408428Y-99602381D02*
X131979857Y-99602381D01*
X131694143Y-99602381D02*
X131694143Y-98602381D01*
X131789381Y-98745238D01*
X131884619Y-98840476D01*
X131979857Y-98888095D01*
%LPC*%
D17*
X67025000Y-42000000D03*
X67025000Y-38000000D03*
D18*
X135717000Y-97250000D03*
X129957000Y-97250000D03*
X129957000Y-93250000D03*
X135717000Y-93250000D03*
D19*
X61590000Y-34920000D03*
X55240000Y-37460000D03*
X80640000Y-34920000D03*
X74290000Y-37460000D03*
X99690000Y-34920000D03*
X93340000Y-37460000D03*
X118740000Y-34920000D03*
X112390000Y-37460000D03*
X137790000Y-34920000D03*
X131440000Y-37460000D03*
X156840000Y-34920000D03*
X150490000Y-37460000D03*
X175890000Y-34920000D03*
X169540000Y-37460000D03*
X194940000Y-34920000D03*
X188590000Y-37460000D03*
X213990000Y-34920000D03*
X207640000Y-37460000D03*
X233040000Y-34920000D03*
X226690000Y-37460000D03*
X252090000Y-34920000D03*
X245740000Y-37460000D03*
X42540000Y-53970000D03*
X36190000Y-56510000D03*
X61590000Y-53970000D03*
X55240000Y-56510000D03*
X80640000Y-53970000D03*
X74290000Y-56510000D03*
X99690000Y-53970000D03*
X93340000Y-56510000D03*
X118740000Y-53970000D03*
X112390000Y-56510000D03*
X137790000Y-53970000D03*
X131440000Y-56510000D03*
X156840000Y-53970000D03*
X150490000Y-56510000D03*
X175890000Y-53970000D03*
X169540000Y-56510000D03*
X194940000Y-53970000D03*
X188590000Y-56510000D03*
X213990000Y-53970000D03*
X207640000Y-56510000D03*
X233040000Y-53970000D03*
X226690000Y-56510000D03*
X252090000Y-53970000D03*
X245740000Y-56510000D03*
X42540000Y-73020000D03*
X36190000Y-75560000D03*
X61590000Y-73020000D03*
X55240000Y-75560000D03*
X80640000Y-73020000D03*
X74290000Y-75560000D03*
X99690000Y-73020000D03*
X93340000Y-75560000D03*
X118740000Y-73020000D03*
X112390000Y-75560000D03*
X137790000Y-73020000D03*
X131440000Y-75560000D03*
X156840000Y-73020000D03*
X150490000Y-75560000D03*
X175890000Y-73020000D03*
X169540000Y-75560000D03*
X194940000Y-73020000D03*
X188590000Y-75560000D03*
X213990000Y-73020000D03*
X207640000Y-75560000D03*
X233040000Y-73020000D03*
X226690000Y-75560000D03*
X252090000Y-73020000D03*
X245740000Y-75560000D03*
X42540000Y-92070000D03*
X36190000Y-94610000D03*
X61590000Y-92070000D03*
X55240000Y-94610000D03*
X80640000Y-92070000D03*
X74290000Y-94610000D03*
X99690000Y-92070000D03*
X93340000Y-94610000D03*
X118740000Y-92070000D03*
X112390000Y-94610000D03*
X147315000Y-92070000D03*
X140965000Y-94610000D03*
X175890000Y-92070000D03*
X169540000Y-94610000D03*
X194940000Y-92070000D03*
X188590000Y-94610000D03*
X213990000Y-92070000D03*
X207640000Y-94610000D03*
X233040000Y-92070000D03*
X226690000Y-94610000D03*
X252090000Y-92070000D03*
X245740000Y-94610000D03*
D20*
X36530000Y-49750000D03*
D21*
X39070000Y-49750000D03*
X41610000Y-49750000D03*
X44150000Y-49750000D03*
X46690000Y-49750000D03*
X49230000Y-49750000D03*
X51770000Y-49750000D03*
X54310000Y-49750000D03*
X56850000Y-49750000D03*
X59390000Y-49750000D03*
X61930000Y-49750000D03*
X64470000Y-49750000D03*
X64470000Y-70250000D03*
X61930000Y-70250000D03*
X59390000Y-70250000D03*
X56850000Y-70250000D03*
X54310000Y-70250000D03*
X51770000Y-70250000D03*
X49230000Y-70250000D03*
X46690000Y-70250000D03*
X44150000Y-70250000D03*
X41610000Y-70250000D03*
X39070000Y-70250000D03*
X36530000Y-70250000D03*
D19*
X42540000Y-34920000D03*
X36190000Y-37460000D03*
D22*
X43302000Y-46604000D03*
X43302000Y-43556000D03*
X36698000Y-46604000D03*
X36698000Y-43556000D03*
X62352000Y-46604000D03*
X62352000Y-43556000D03*
X55748000Y-46604000D03*
X55748000Y-43556000D03*
X81402000Y-46604000D03*
X81402000Y-43556000D03*
X74798000Y-46604000D03*
X74798000Y-43556000D03*
X100452000Y-46604000D03*
X100452000Y-43556000D03*
X93848000Y-46604000D03*
X93848000Y-43556000D03*
X119502000Y-46604000D03*
X119502000Y-43556000D03*
X112898000Y-46604000D03*
X112898000Y-43556000D03*
X138552000Y-46604000D03*
X138552000Y-43556000D03*
X131948000Y-46604000D03*
X131948000Y-43556000D03*
X157602000Y-46604000D03*
X157602000Y-43556000D03*
X150998000Y-46604000D03*
X150998000Y-43556000D03*
X176652000Y-46604000D03*
X176652000Y-43556000D03*
X170048000Y-46604000D03*
X170048000Y-43556000D03*
X195702000Y-46604000D03*
X195702000Y-43556000D03*
X189098000Y-46604000D03*
X189098000Y-43556000D03*
X214752000Y-46604000D03*
X214752000Y-43556000D03*
X208148000Y-46604000D03*
X208148000Y-43556000D03*
X233802000Y-46604000D03*
X233802000Y-43556000D03*
X227198000Y-46604000D03*
X227198000Y-43556000D03*
X252852000Y-46604000D03*
X252852000Y-43556000D03*
X246248000Y-46604000D03*
X246248000Y-43556000D03*
X43302000Y-65654000D03*
X43302000Y-62606000D03*
X36698000Y-65654000D03*
X36698000Y-62606000D03*
X62352000Y-65654000D03*
X62352000Y-62606000D03*
X55748000Y-65654000D03*
X55748000Y-62606000D03*
X81402000Y-65654000D03*
X81402000Y-62606000D03*
X74798000Y-65654000D03*
X74798000Y-62606000D03*
X100452000Y-65654000D03*
X100452000Y-62606000D03*
X93848000Y-65654000D03*
X93848000Y-62606000D03*
X119502000Y-65654000D03*
X119502000Y-62606000D03*
X112898000Y-65654000D03*
X112898000Y-62606000D03*
X138552000Y-65654000D03*
X138552000Y-62606000D03*
X131948000Y-65654000D03*
X131948000Y-62606000D03*
X157602000Y-65654000D03*
X157602000Y-62606000D03*
X150998000Y-65654000D03*
X150998000Y-62606000D03*
X176652000Y-65654000D03*
X176652000Y-62606000D03*
X170048000Y-65654000D03*
X170048000Y-62606000D03*
X195702000Y-65654000D03*
X195702000Y-62606000D03*
X189098000Y-65654000D03*
X189098000Y-62606000D03*
X214752000Y-65654000D03*
X214752000Y-62606000D03*
X208148000Y-65654000D03*
X208148000Y-62606000D03*
X233802000Y-65654000D03*
X233802000Y-62606000D03*
X227198000Y-65654000D03*
X227198000Y-62606000D03*
X252852000Y-65654000D03*
X252852000Y-62606000D03*
X246248000Y-65654000D03*
X246248000Y-62606000D03*
X43302000Y-84704000D03*
X43302000Y-81656000D03*
X36698000Y-84704000D03*
X36698000Y-81656000D03*
X62352000Y-84704000D03*
X62352000Y-81656000D03*
X55748000Y-84704000D03*
X55748000Y-81656000D03*
X81402000Y-84704000D03*
X81402000Y-81656000D03*
X74798000Y-84704000D03*
X74798000Y-81656000D03*
X100452000Y-84704000D03*
X100452000Y-81656000D03*
X93848000Y-84704000D03*
X93848000Y-81656000D03*
X119502000Y-84704000D03*
X119502000Y-81656000D03*
X112898000Y-84704000D03*
X112898000Y-81656000D03*
X138552000Y-84704000D03*
X138552000Y-81656000D03*
X131948000Y-84704000D03*
X131948000Y-81656000D03*
X157602000Y-84704000D03*
X157602000Y-81656000D03*
X150998000Y-84704000D03*
X150998000Y-81656000D03*
X176652000Y-84704000D03*
X176652000Y-81656000D03*
X170048000Y-84704000D03*
X170048000Y-81656000D03*
X195702000Y-84704000D03*
X195702000Y-81656000D03*
X189098000Y-84704000D03*
X189098000Y-81656000D03*
X214752000Y-84704000D03*
X214752000Y-81656000D03*
X208148000Y-84704000D03*
X208148000Y-81656000D03*
X233802000Y-84704000D03*
X233802000Y-81656000D03*
X227198000Y-84704000D03*
X227198000Y-81656000D03*
X252852000Y-84704000D03*
X252852000Y-81656000D03*
X246248000Y-84704000D03*
X246248000Y-81656000D03*
X43302000Y-103754000D03*
X43302000Y-100706000D03*
X36698000Y-103754000D03*
X36698000Y-100706000D03*
X62352000Y-103754000D03*
X62352000Y-100706000D03*
X55748000Y-103754000D03*
X55748000Y-100706000D03*
X81402000Y-103754000D03*
X81402000Y-100706000D03*
X74798000Y-103754000D03*
X74798000Y-100706000D03*
X100452000Y-103754000D03*
X100452000Y-100706000D03*
X93848000Y-103754000D03*
X93848000Y-100706000D03*
X119502000Y-103754000D03*
X119502000Y-100706000D03*
X112898000Y-103754000D03*
X112898000Y-100706000D03*
X148077000Y-103754000D03*
X148077000Y-100706000D03*
X141473000Y-103754000D03*
X141473000Y-100706000D03*
X176652000Y-103754000D03*
X176652000Y-100706000D03*
X170048000Y-103754000D03*
X170048000Y-100706000D03*
X195702000Y-103754000D03*
X195702000Y-100706000D03*
X189098000Y-103754000D03*
X189098000Y-100706000D03*
X214752000Y-103754000D03*
X214752000Y-100706000D03*
X208148000Y-103754000D03*
X208148000Y-100706000D03*
X233802000Y-103754000D03*
X233802000Y-100706000D03*
X227198000Y-103754000D03*
X227198000Y-100706000D03*
X252852000Y-103754000D03*
X252852000Y-100706000D03*
X246248000Y-103754000D03*
X246248000Y-100706000D03*
D23*
X247402000Y-89380000D03*
D24*
X245402000Y-89380000D03*
X243402000Y-89380000D03*
D25*
X240025000Y-61800000D03*
X240025000Y-56300000D03*
D26*
X240025000Y-63050000D03*
X240025000Y-55050000D03*
D25*
X48025000Y-42750000D03*
X48025000Y-37250000D03*
D26*
X48025000Y-44000000D03*
X48025000Y-36000000D03*
D25*
X51025000Y-42750000D03*
X51025000Y-37250000D03*
D26*
X51025000Y-44000000D03*
X51025000Y-36000000D03*
D25*
X70075000Y-42750000D03*
X70075000Y-37250000D03*
D26*
X70075000Y-44000000D03*
X70075000Y-36000000D03*
D25*
X87625000Y-42750000D03*
X87625000Y-37250000D03*
D26*
X87625000Y-44000000D03*
X87625000Y-36000000D03*
D25*
X106675000Y-42750000D03*
X106675000Y-37250000D03*
D26*
X106675000Y-44000000D03*
X106675000Y-36000000D03*
D25*
X125725000Y-42750000D03*
X125725000Y-37250000D03*
D26*
X125725000Y-44000000D03*
X125725000Y-36000000D03*
D25*
X144775000Y-42750000D03*
X144775000Y-37250000D03*
D26*
X144775000Y-44000000D03*
X144775000Y-36000000D03*
D25*
X163825000Y-42750000D03*
X163825000Y-37250000D03*
D26*
X163825000Y-44000000D03*
X163825000Y-36000000D03*
D25*
X182875000Y-42750000D03*
X182875000Y-37250000D03*
D26*
X182875000Y-44000000D03*
X182875000Y-36000000D03*
D25*
X201925000Y-42750000D03*
X201925000Y-37250000D03*
D26*
X201925000Y-44000000D03*
X201925000Y-36000000D03*
D25*
X220975000Y-42750000D03*
X220975000Y-37250000D03*
D26*
X220975000Y-44000000D03*
X220975000Y-36000000D03*
D25*
X240025000Y-42750000D03*
X240025000Y-37250000D03*
D26*
X240025000Y-44000000D03*
X240025000Y-36000000D03*
D25*
X48025000Y-61800000D03*
X48025000Y-56300000D03*
D26*
X48025000Y-63050000D03*
X48025000Y-55050000D03*
D25*
X51025000Y-61800000D03*
X51025000Y-56300000D03*
D26*
X51025000Y-63050000D03*
X51025000Y-55050000D03*
D25*
X68575000Y-61800000D03*
X68575000Y-56300000D03*
D26*
X68575000Y-63050000D03*
X68575000Y-55050000D03*
D25*
X87625000Y-61800000D03*
X87625000Y-56300000D03*
D26*
X87625000Y-63050000D03*
X87625000Y-55050000D03*
D25*
X106675000Y-61800000D03*
X106675000Y-56300000D03*
D26*
X106675000Y-63050000D03*
X106675000Y-55050000D03*
D25*
X125725000Y-61800000D03*
X125725000Y-56300000D03*
D26*
X125725000Y-63050000D03*
X125725000Y-55050000D03*
D25*
X144775000Y-61800000D03*
X144775000Y-56300000D03*
D26*
X144775000Y-63050000D03*
X144775000Y-55050000D03*
D25*
X163825000Y-61800000D03*
X163825000Y-56300000D03*
D26*
X163825000Y-63050000D03*
X163825000Y-55050000D03*
D25*
X182875000Y-61800000D03*
X182875000Y-56300000D03*
D26*
X182875000Y-63050000D03*
X182875000Y-55050000D03*
D25*
X201925000Y-61800000D03*
X201925000Y-56300000D03*
D26*
X201925000Y-63050000D03*
X201925000Y-55050000D03*
D25*
X220975000Y-61800000D03*
X220975000Y-56300000D03*
D26*
X220975000Y-63050000D03*
X220975000Y-55050000D03*
D25*
X48025000Y-80850000D03*
X48025000Y-75350000D03*
D26*
X48025000Y-82100000D03*
X48025000Y-74100000D03*
D25*
X51025000Y-80850000D03*
X51025000Y-75350000D03*
D26*
X51025000Y-82100000D03*
X51025000Y-74100000D03*
D25*
X68575000Y-80850000D03*
X68575000Y-75350000D03*
D26*
X68575000Y-82100000D03*
X68575000Y-74100000D03*
D25*
X87625000Y-80850000D03*
X87625000Y-75350000D03*
D26*
X87625000Y-82100000D03*
X87625000Y-74100000D03*
D25*
X106675000Y-80850000D03*
X106675000Y-75350000D03*
D26*
X106675000Y-82100000D03*
X106675000Y-74100000D03*
D25*
X125725000Y-80850000D03*
X125725000Y-75350000D03*
D26*
X125725000Y-82100000D03*
X125725000Y-74100000D03*
D25*
X144775000Y-80850000D03*
X144775000Y-75350000D03*
D26*
X144775000Y-82100000D03*
X144775000Y-74100000D03*
D25*
X163825000Y-80850000D03*
X163825000Y-75350000D03*
D26*
X163825000Y-82100000D03*
X163825000Y-74100000D03*
D25*
X182875000Y-80850000D03*
X182875000Y-75350000D03*
D26*
X182875000Y-82100000D03*
X182875000Y-74100000D03*
D25*
X201925000Y-80850000D03*
X201925000Y-75350000D03*
D26*
X201925000Y-82100000D03*
X201925000Y-74100000D03*
D25*
X220975000Y-80850000D03*
X220975000Y-75350000D03*
D26*
X220975000Y-82100000D03*
X220975000Y-74100000D03*
D25*
X240025000Y-80850000D03*
X240025000Y-75350000D03*
D26*
X240025000Y-82100000D03*
X240025000Y-74100000D03*
D25*
X48025000Y-99900000D03*
X48025000Y-94400000D03*
D26*
X48025000Y-101150000D03*
X48025000Y-93150000D03*
D25*
X51025000Y-99900000D03*
X51025000Y-94400000D03*
D26*
X51025000Y-101150000D03*
X51025000Y-93150000D03*
D25*
X68575000Y-99900000D03*
X68575000Y-94400000D03*
D26*
X68575000Y-101150000D03*
X68575000Y-93150000D03*
D25*
X87625000Y-99900000D03*
X87625000Y-94400000D03*
D26*
X87625000Y-101150000D03*
X87625000Y-93150000D03*
D25*
X106675000Y-99900000D03*
X106675000Y-94400000D03*
D26*
X106675000Y-101150000D03*
X106675000Y-93150000D03*
D25*
X125725000Y-100630000D03*
X125725000Y-95130000D03*
D26*
X125725000Y-101880000D03*
X125725000Y-93880000D03*
D25*
X163825000Y-99900000D03*
X163825000Y-94400000D03*
D26*
X163825000Y-101150000D03*
X163825000Y-93150000D03*
D25*
X182875000Y-99900000D03*
X182875000Y-94400000D03*
D26*
X182875000Y-101150000D03*
X182875000Y-93150000D03*
D25*
X201925000Y-99900000D03*
X201925000Y-94400000D03*
D26*
X201925000Y-101150000D03*
X201925000Y-93150000D03*
D25*
X220975000Y-99900000D03*
X220975000Y-94400000D03*
D26*
X220975000Y-101150000D03*
X220975000Y-93150000D03*
D25*
X240025000Y-99900000D03*
X240025000Y-94400000D03*
D26*
X240025000Y-101150000D03*
X240025000Y-93150000D03*
D27*
X158713000Y-100706000D03*
X154713000Y-100706000D03*
X250402000Y-89380000D03*
X254402000Y-89380000D03*
X241902000Y-103754000D03*
X237902000Y-103754000D03*
X222975000Y-103754000D03*
X218975000Y-103754000D03*
X203925000Y-103754000D03*
X199925000Y-103754000D03*
X184875000Y-103754000D03*
X180875000Y-103754000D03*
X134837000Y-100706000D03*
X130837000Y-100706000D03*
X108675000Y-103754000D03*
X104675000Y-103754000D03*
X89625000Y-103754000D03*
X85625000Y-103754000D03*
X70575000Y-103754000D03*
X66575000Y-103754000D03*
X51525000Y-103754000D03*
X47525000Y-103754000D03*
X146775000Y-88880000D03*
X142775000Y-88880000D03*
X241902000Y-84704000D03*
X237902000Y-84704000D03*
X222975000Y-84704000D03*
X218975000Y-84704000D03*
X203925000Y-84704000D03*
X199925000Y-84704000D03*
X184875000Y-84704000D03*
X180875000Y-84704000D03*
X165825000Y-84704000D03*
X161825000Y-84704000D03*
X146775000Y-84704000D03*
X142775000Y-84704000D03*
X127725000Y-84704000D03*
X123725000Y-84704000D03*
X108675000Y-84704000D03*
X104675000Y-84704000D03*
X89625000Y-84704000D03*
X85625000Y-84704000D03*
X70575000Y-84704000D03*
X66575000Y-84704000D03*
X51525000Y-84704000D03*
X47525000Y-84704000D03*
X146775000Y-70000000D03*
X142775000Y-70000000D03*
X241902000Y-65654000D03*
X237902000Y-65654000D03*
X222975000Y-65654000D03*
X218975000Y-65654000D03*
X203925000Y-65654000D03*
X199925000Y-65654000D03*
X184875000Y-65654000D03*
X180875000Y-65654000D03*
X165825000Y-65654000D03*
X161825000Y-65654000D03*
X146775000Y-65654000D03*
X142775000Y-65654000D03*
X127725000Y-65654000D03*
X123725000Y-65654000D03*
X108675000Y-65654000D03*
X104675000Y-65654000D03*
X89625000Y-65654000D03*
X85625000Y-65654000D03*
X70575000Y-65654000D03*
X66575000Y-65654000D03*
X51525000Y-65654000D03*
X47525000Y-65654000D03*
X146775000Y-50380000D03*
X142775000Y-50380000D03*
X242025000Y-46604000D03*
X238025000Y-46604000D03*
X222975000Y-46604000D03*
X218975000Y-46604000D03*
X203925000Y-46604000D03*
X199925000Y-46604000D03*
X184875000Y-46604000D03*
X180875000Y-46604000D03*
X165825000Y-46604000D03*
X161825000Y-46604000D03*
X146775000Y-46604000D03*
X142775000Y-46604000D03*
X127725000Y-46604000D03*
X123725000Y-46604000D03*
X108675000Y-46604000D03*
X104675000Y-46604000D03*
X89625000Y-46604000D03*
X85625000Y-46604000D03*
X70575000Y-46604000D03*
X66575000Y-46604000D03*
X51525000Y-46604000D03*
X47525000Y-46604000D03*
M02*
