G04 #@! TF.FileFunction,Soldermask,Bot*
%FSLAX46Y46*%
G04 Gerber Fmt 4.6, Leading zero omitted, Abs format (unit mm)*
G04 Created by KiCad (PCBNEW 4.0.7) date 07/31/18 08:33:26*
%MOMM*%
%LPD*%
G01*
G04 APERTURE LIST*
%ADD10C,0.100000*%
%ADD11R,2.100000X2.400000*%
%ADD12R,3.150000X1.400000*%
%ADD13C,2.686000*%
%ADD14R,2.000000X2.000000*%
%ADD15C,2.000000*%
%ADD16R,1.924000X1.924000*%
%ADD17R,1.750000X1.750000*%
%ADD18O,1.750000X1.750000*%
%ADD19R,2.100000X3.700000*%
%ADD20C,1.924000*%
%ADD21R,2.400000X2.000000*%
G04 APERTURE END LIST*
D10*
D11*
X67025000Y-42000000D03*
X67025000Y-38000000D03*
D12*
X135717000Y-97250000D03*
X129957000Y-97250000D03*
X129957000Y-93250000D03*
X135717000Y-93250000D03*
D13*
X61590000Y-34920000D03*
X55240000Y-37460000D03*
X80640000Y-34920000D03*
X74290000Y-37460000D03*
X99690000Y-34920000D03*
X93340000Y-37460000D03*
X118740000Y-34920000D03*
X112390000Y-37460000D03*
X137790000Y-34920000D03*
X131440000Y-37460000D03*
X156840000Y-34920000D03*
X150490000Y-37460000D03*
X175890000Y-34920000D03*
X169540000Y-37460000D03*
X194940000Y-34920000D03*
X188590000Y-37460000D03*
X213990000Y-34920000D03*
X207640000Y-37460000D03*
X233040000Y-34920000D03*
X226690000Y-37460000D03*
X252090000Y-34920000D03*
X245740000Y-37460000D03*
X42540000Y-53970000D03*
X36190000Y-56510000D03*
X61590000Y-53970000D03*
X55240000Y-56510000D03*
X80640000Y-53970000D03*
X74290000Y-56510000D03*
X99690000Y-53970000D03*
X93340000Y-56510000D03*
X118740000Y-53970000D03*
X112390000Y-56510000D03*
X137790000Y-53970000D03*
X131440000Y-56510000D03*
X156840000Y-53970000D03*
X150490000Y-56510000D03*
X175890000Y-53970000D03*
X169540000Y-56510000D03*
X194940000Y-53970000D03*
X188590000Y-56510000D03*
X213990000Y-53970000D03*
X207640000Y-56510000D03*
X233040000Y-53970000D03*
X226690000Y-56510000D03*
X252090000Y-53970000D03*
X245740000Y-56510000D03*
X42540000Y-73020000D03*
X36190000Y-75560000D03*
X61590000Y-73020000D03*
X55240000Y-75560000D03*
X80640000Y-73020000D03*
X74290000Y-75560000D03*
X99690000Y-73020000D03*
X93340000Y-75560000D03*
X118740000Y-73020000D03*
X112390000Y-75560000D03*
X137790000Y-73020000D03*
X131440000Y-75560000D03*
X156840000Y-73020000D03*
X150490000Y-75560000D03*
X175890000Y-73020000D03*
X169540000Y-75560000D03*
X194940000Y-73020000D03*
X188590000Y-75560000D03*
X213990000Y-73020000D03*
X207640000Y-75560000D03*
X233040000Y-73020000D03*
X226690000Y-75560000D03*
X252090000Y-73020000D03*
X245740000Y-75560000D03*
X42540000Y-92070000D03*
X36190000Y-94610000D03*
X61590000Y-92070000D03*
X55240000Y-94610000D03*
X80640000Y-92070000D03*
X74290000Y-94610000D03*
X99690000Y-92070000D03*
X93340000Y-94610000D03*
X118740000Y-92070000D03*
X112390000Y-94610000D03*
X147315000Y-92070000D03*
X140965000Y-94610000D03*
X175890000Y-92070000D03*
X169540000Y-94610000D03*
X194940000Y-92070000D03*
X188590000Y-94610000D03*
X213990000Y-92070000D03*
X207640000Y-94610000D03*
X233040000Y-92070000D03*
X226690000Y-94610000D03*
X252090000Y-92070000D03*
X245740000Y-94610000D03*
D14*
X36530000Y-49750000D03*
D15*
X39070000Y-49750000D03*
X41610000Y-49750000D03*
X44150000Y-49750000D03*
X46690000Y-49750000D03*
X49230000Y-49750000D03*
X51770000Y-49750000D03*
X54310000Y-49750000D03*
X56850000Y-49750000D03*
X59390000Y-49750000D03*
X61930000Y-49750000D03*
X64470000Y-49750000D03*
X64470000Y-70250000D03*
X61930000Y-70250000D03*
X59390000Y-70250000D03*
X56850000Y-70250000D03*
X54310000Y-70250000D03*
X51770000Y-70250000D03*
X49230000Y-70250000D03*
X46690000Y-70250000D03*
X44150000Y-70250000D03*
X41610000Y-70250000D03*
X39070000Y-70250000D03*
X36530000Y-70250000D03*
D13*
X42540000Y-34920000D03*
X36190000Y-37460000D03*
D16*
X43302000Y-46604000D03*
X43302000Y-43556000D03*
X36698000Y-46604000D03*
X36698000Y-43556000D03*
X62352000Y-46604000D03*
X62352000Y-43556000D03*
X55748000Y-46604000D03*
X55748000Y-43556000D03*
X81402000Y-46604000D03*
X81402000Y-43556000D03*
X74798000Y-46604000D03*
X74798000Y-43556000D03*
X100452000Y-46604000D03*
X100452000Y-43556000D03*
X93848000Y-46604000D03*
X93848000Y-43556000D03*
X119502000Y-46604000D03*
X119502000Y-43556000D03*
X112898000Y-46604000D03*
X112898000Y-43556000D03*
X138552000Y-46604000D03*
X138552000Y-43556000D03*
X131948000Y-46604000D03*
X131948000Y-43556000D03*
X157602000Y-46604000D03*
X157602000Y-43556000D03*
X150998000Y-46604000D03*
X150998000Y-43556000D03*
X176652000Y-46604000D03*
X176652000Y-43556000D03*
X170048000Y-46604000D03*
X170048000Y-43556000D03*
X195702000Y-46604000D03*
X195702000Y-43556000D03*
X189098000Y-46604000D03*
X189098000Y-43556000D03*
X214752000Y-46604000D03*
X214752000Y-43556000D03*
X208148000Y-46604000D03*
X208148000Y-43556000D03*
X233802000Y-46604000D03*
X233802000Y-43556000D03*
X227198000Y-46604000D03*
X227198000Y-43556000D03*
X252852000Y-46604000D03*
X252852000Y-43556000D03*
X246248000Y-46604000D03*
X246248000Y-43556000D03*
X43302000Y-65654000D03*
X43302000Y-62606000D03*
X36698000Y-65654000D03*
X36698000Y-62606000D03*
X62352000Y-65654000D03*
X62352000Y-62606000D03*
X55748000Y-65654000D03*
X55748000Y-62606000D03*
X81402000Y-65654000D03*
X81402000Y-62606000D03*
X74798000Y-65654000D03*
X74798000Y-62606000D03*
X100452000Y-65654000D03*
X100452000Y-62606000D03*
X93848000Y-65654000D03*
X93848000Y-62606000D03*
X119502000Y-65654000D03*
X119502000Y-62606000D03*
X112898000Y-65654000D03*
X112898000Y-62606000D03*
X138552000Y-65654000D03*
X138552000Y-62606000D03*
X131948000Y-65654000D03*
X131948000Y-62606000D03*
X157602000Y-65654000D03*
X157602000Y-62606000D03*
X150998000Y-65654000D03*
X150998000Y-62606000D03*
X176652000Y-65654000D03*
X176652000Y-62606000D03*
X170048000Y-65654000D03*
X170048000Y-62606000D03*
X195702000Y-65654000D03*
X195702000Y-62606000D03*
X189098000Y-65654000D03*
X189098000Y-62606000D03*
X214752000Y-65654000D03*
X214752000Y-62606000D03*
X208148000Y-65654000D03*
X208148000Y-62606000D03*
X233802000Y-65654000D03*
X233802000Y-62606000D03*
X227198000Y-65654000D03*
X227198000Y-62606000D03*
X252852000Y-65654000D03*
X252852000Y-62606000D03*
X246248000Y-65654000D03*
X246248000Y-62606000D03*
X43302000Y-84704000D03*
X43302000Y-81656000D03*
X36698000Y-84704000D03*
X36698000Y-81656000D03*
X62352000Y-84704000D03*
X62352000Y-81656000D03*
X55748000Y-84704000D03*
X55748000Y-81656000D03*
X81402000Y-84704000D03*
X81402000Y-81656000D03*
X74798000Y-84704000D03*
X74798000Y-81656000D03*
X100452000Y-84704000D03*
X100452000Y-81656000D03*
X93848000Y-84704000D03*
X93848000Y-81656000D03*
X119502000Y-84704000D03*
X119502000Y-81656000D03*
X112898000Y-84704000D03*
X112898000Y-81656000D03*
X138552000Y-84704000D03*
X138552000Y-81656000D03*
X131948000Y-84704000D03*
X131948000Y-81656000D03*
X157602000Y-84704000D03*
X157602000Y-81656000D03*
X150998000Y-84704000D03*
X150998000Y-81656000D03*
X176652000Y-84704000D03*
X176652000Y-81656000D03*
X170048000Y-84704000D03*
X170048000Y-81656000D03*
X195702000Y-84704000D03*
X195702000Y-81656000D03*
X189098000Y-84704000D03*
X189098000Y-81656000D03*
X214752000Y-84704000D03*
X214752000Y-81656000D03*
X208148000Y-84704000D03*
X208148000Y-81656000D03*
X233802000Y-84704000D03*
X233802000Y-81656000D03*
X227198000Y-84704000D03*
X227198000Y-81656000D03*
X252852000Y-84704000D03*
X252852000Y-81656000D03*
X246248000Y-84704000D03*
X246248000Y-81656000D03*
X43302000Y-103754000D03*
X43302000Y-100706000D03*
X36698000Y-103754000D03*
X36698000Y-100706000D03*
X62352000Y-103754000D03*
X62352000Y-100706000D03*
X55748000Y-103754000D03*
X55748000Y-100706000D03*
X81402000Y-103754000D03*
X81402000Y-100706000D03*
X74798000Y-103754000D03*
X74798000Y-100706000D03*
X100452000Y-103754000D03*
X100452000Y-100706000D03*
X93848000Y-103754000D03*
X93848000Y-100706000D03*
X119502000Y-103754000D03*
X119502000Y-100706000D03*
X112898000Y-103754000D03*
X112898000Y-100706000D03*
X148077000Y-103754000D03*
X148077000Y-100706000D03*
X141473000Y-103754000D03*
X141473000Y-100706000D03*
X176652000Y-103754000D03*
X176652000Y-100706000D03*
X170048000Y-103754000D03*
X170048000Y-100706000D03*
X195702000Y-103754000D03*
X195702000Y-100706000D03*
X189098000Y-103754000D03*
X189098000Y-100706000D03*
X214752000Y-103754000D03*
X214752000Y-100706000D03*
X208148000Y-103754000D03*
X208148000Y-100706000D03*
X233802000Y-103754000D03*
X233802000Y-100706000D03*
X227198000Y-103754000D03*
X227198000Y-100706000D03*
X252852000Y-103754000D03*
X252852000Y-100706000D03*
X246248000Y-103754000D03*
X246248000Y-100706000D03*
D17*
X247402000Y-89380000D03*
D18*
X245402000Y-89380000D03*
X243402000Y-89380000D03*
D19*
X240025000Y-61800000D03*
X240025000Y-56300000D03*
D20*
X240025000Y-63050000D03*
X240025000Y-55050000D03*
D19*
X48025000Y-42750000D03*
X48025000Y-37250000D03*
D20*
X48025000Y-44000000D03*
X48025000Y-36000000D03*
D19*
X51025000Y-42750000D03*
X51025000Y-37250000D03*
D20*
X51025000Y-44000000D03*
X51025000Y-36000000D03*
D19*
X70075000Y-42750000D03*
X70075000Y-37250000D03*
D20*
X70075000Y-44000000D03*
X70075000Y-36000000D03*
D19*
X87625000Y-42750000D03*
X87625000Y-37250000D03*
D20*
X87625000Y-44000000D03*
X87625000Y-36000000D03*
D19*
X106675000Y-42750000D03*
X106675000Y-37250000D03*
D20*
X106675000Y-44000000D03*
X106675000Y-36000000D03*
D19*
X125725000Y-42750000D03*
X125725000Y-37250000D03*
D20*
X125725000Y-44000000D03*
X125725000Y-36000000D03*
D19*
X144775000Y-42750000D03*
X144775000Y-37250000D03*
D20*
X144775000Y-44000000D03*
X144775000Y-36000000D03*
D19*
X163825000Y-42750000D03*
X163825000Y-37250000D03*
D20*
X163825000Y-44000000D03*
X163825000Y-36000000D03*
D19*
X182875000Y-42750000D03*
X182875000Y-37250000D03*
D20*
X182875000Y-44000000D03*
X182875000Y-36000000D03*
D19*
X201925000Y-42750000D03*
X201925000Y-37250000D03*
D20*
X201925000Y-44000000D03*
X201925000Y-36000000D03*
D19*
X220975000Y-42750000D03*
X220975000Y-37250000D03*
D20*
X220975000Y-44000000D03*
X220975000Y-36000000D03*
D19*
X240025000Y-42750000D03*
X240025000Y-37250000D03*
D20*
X240025000Y-44000000D03*
X240025000Y-36000000D03*
D19*
X48025000Y-61800000D03*
X48025000Y-56300000D03*
D20*
X48025000Y-63050000D03*
X48025000Y-55050000D03*
D19*
X51025000Y-61800000D03*
X51025000Y-56300000D03*
D20*
X51025000Y-63050000D03*
X51025000Y-55050000D03*
D19*
X68575000Y-61800000D03*
X68575000Y-56300000D03*
D20*
X68575000Y-63050000D03*
X68575000Y-55050000D03*
D19*
X87625000Y-61800000D03*
X87625000Y-56300000D03*
D20*
X87625000Y-63050000D03*
X87625000Y-55050000D03*
D19*
X106675000Y-61800000D03*
X106675000Y-56300000D03*
D20*
X106675000Y-63050000D03*
X106675000Y-55050000D03*
D19*
X125725000Y-61800000D03*
X125725000Y-56300000D03*
D20*
X125725000Y-63050000D03*
X125725000Y-55050000D03*
D19*
X144775000Y-61800000D03*
X144775000Y-56300000D03*
D20*
X144775000Y-63050000D03*
X144775000Y-55050000D03*
D19*
X163825000Y-61800000D03*
X163825000Y-56300000D03*
D20*
X163825000Y-63050000D03*
X163825000Y-55050000D03*
D19*
X182875000Y-61800000D03*
X182875000Y-56300000D03*
D20*
X182875000Y-63050000D03*
X182875000Y-55050000D03*
D19*
X201925000Y-61800000D03*
X201925000Y-56300000D03*
D20*
X201925000Y-63050000D03*
X201925000Y-55050000D03*
D19*
X220975000Y-61800000D03*
X220975000Y-56300000D03*
D20*
X220975000Y-63050000D03*
X220975000Y-55050000D03*
D19*
X48025000Y-80850000D03*
X48025000Y-75350000D03*
D20*
X48025000Y-82100000D03*
X48025000Y-74100000D03*
D19*
X51025000Y-80850000D03*
X51025000Y-75350000D03*
D20*
X51025000Y-82100000D03*
X51025000Y-74100000D03*
D19*
X68575000Y-80850000D03*
X68575000Y-75350000D03*
D20*
X68575000Y-82100000D03*
X68575000Y-74100000D03*
D19*
X87625000Y-80850000D03*
X87625000Y-75350000D03*
D20*
X87625000Y-82100000D03*
X87625000Y-74100000D03*
D19*
X106675000Y-80850000D03*
X106675000Y-75350000D03*
D20*
X106675000Y-82100000D03*
X106675000Y-74100000D03*
D19*
X125725000Y-80850000D03*
X125725000Y-75350000D03*
D20*
X125725000Y-82100000D03*
X125725000Y-74100000D03*
D19*
X144775000Y-80850000D03*
X144775000Y-75350000D03*
D20*
X144775000Y-82100000D03*
X144775000Y-74100000D03*
D19*
X163825000Y-80850000D03*
X163825000Y-75350000D03*
D20*
X163825000Y-82100000D03*
X163825000Y-74100000D03*
D19*
X182875000Y-80850000D03*
X182875000Y-75350000D03*
D20*
X182875000Y-82100000D03*
X182875000Y-74100000D03*
D19*
X201925000Y-80850000D03*
X201925000Y-75350000D03*
D20*
X201925000Y-82100000D03*
X201925000Y-74100000D03*
D19*
X220975000Y-80850000D03*
X220975000Y-75350000D03*
D20*
X220975000Y-82100000D03*
X220975000Y-74100000D03*
D19*
X240025000Y-80850000D03*
X240025000Y-75350000D03*
D20*
X240025000Y-82100000D03*
X240025000Y-74100000D03*
D19*
X48025000Y-99900000D03*
X48025000Y-94400000D03*
D20*
X48025000Y-101150000D03*
X48025000Y-93150000D03*
D19*
X51025000Y-99900000D03*
X51025000Y-94400000D03*
D20*
X51025000Y-101150000D03*
X51025000Y-93150000D03*
D19*
X68575000Y-99900000D03*
X68575000Y-94400000D03*
D20*
X68575000Y-101150000D03*
X68575000Y-93150000D03*
D19*
X87625000Y-99900000D03*
X87625000Y-94400000D03*
D20*
X87625000Y-101150000D03*
X87625000Y-93150000D03*
D19*
X106675000Y-99900000D03*
X106675000Y-94400000D03*
D20*
X106675000Y-101150000D03*
X106675000Y-93150000D03*
D19*
X125725000Y-100630000D03*
X125725000Y-95130000D03*
D20*
X125725000Y-101880000D03*
X125725000Y-93880000D03*
D19*
X163825000Y-99900000D03*
X163825000Y-94400000D03*
D20*
X163825000Y-101150000D03*
X163825000Y-93150000D03*
D19*
X182875000Y-99900000D03*
X182875000Y-94400000D03*
D20*
X182875000Y-101150000D03*
X182875000Y-93150000D03*
D19*
X201925000Y-99900000D03*
X201925000Y-94400000D03*
D20*
X201925000Y-101150000D03*
X201925000Y-93150000D03*
D19*
X220975000Y-99900000D03*
X220975000Y-94400000D03*
D20*
X220975000Y-101150000D03*
X220975000Y-93150000D03*
D19*
X240025000Y-99900000D03*
X240025000Y-94400000D03*
D20*
X240025000Y-101150000D03*
X240025000Y-93150000D03*
D21*
X158713000Y-100706000D03*
X154713000Y-100706000D03*
X250402000Y-89380000D03*
X254402000Y-89380000D03*
X241902000Y-103754000D03*
X237902000Y-103754000D03*
X222975000Y-103754000D03*
X218975000Y-103754000D03*
X203925000Y-103754000D03*
X199925000Y-103754000D03*
X184875000Y-103754000D03*
X180875000Y-103754000D03*
X134837000Y-100706000D03*
X130837000Y-100706000D03*
X108675000Y-103754000D03*
X104675000Y-103754000D03*
X89625000Y-103754000D03*
X85625000Y-103754000D03*
X70575000Y-103754000D03*
X66575000Y-103754000D03*
X51525000Y-103754000D03*
X47525000Y-103754000D03*
X146775000Y-88880000D03*
X142775000Y-88880000D03*
X241902000Y-84704000D03*
X237902000Y-84704000D03*
X222975000Y-84704000D03*
X218975000Y-84704000D03*
X203925000Y-84704000D03*
X199925000Y-84704000D03*
X184875000Y-84704000D03*
X180875000Y-84704000D03*
X165825000Y-84704000D03*
X161825000Y-84704000D03*
X146775000Y-84704000D03*
X142775000Y-84704000D03*
X127725000Y-84704000D03*
X123725000Y-84704000D03*
X108675000Y-84704000D03*
X104675000Y-84704000D03*
X89625000Y-84704000D03*
X85625000Y-84704000D03*
X70575000Y-84704000D03*
X66575000Y-84704000D03*
X51525000Y-84704000D03*
X47525000Y-84704000D03*
X146775000Y-70000000D03*
X142775000Y-70000000D03*
X241902000Y-65654000D03*
X237902000Y-65654000D03*
X222975000Y-65654000D03*
X218975000Y-65654000D03*
X203925000Y-65654000D03*
X199925000Y-65654000D03*
X184875000Y-65654000D03*
X180875000Y-65654000D03*
X165825000Y-65654000D03*
X161825000Y-65654000D03*
X146775000Y-65654000D03*
X142775000Y-65654000D03*
X127725000Y-65654000D03*
X123725000Y-65654000D03*
X108675000Y-65654000D03*
X104675000Y-65654000D03*
X89625000Y-65654000D03*
X85625000Y-65654000D03*
X70575000Y-65654000D03*
X66575000Y-65654000D03*
X51525000Y-65654000D03*
X47525000Y-65654000D03*
X146775000Y-50380000D03*
X142775000Y-50380000D03*
X242025000Y-46604000D03*
X238025000Y-46604000D03*
X222975000Y-46604000D03*
X218975000Y-46604000D03*
X203925000Y-46604000D03*
X199925000Y-46604000D03*
X184875000Y-46604000D03*
X180875000Y-46604000D03*
X165825000Y-46604000D03*
X161825000Y-46604000D03*
X146775000Y-46604000D03*
X142775000Y-46604000D03*
X127725000Y-46604000D03*
X123725000Y-46604000D03*
X108675000Y-46604000D03*
X104675000Y-46604000D03*
X89625000Y-46604000D03*
X85625000Y-46604000D03*
X70575000Y-46604000D03*
X66575000Y-46604000D03*
X51525000Y-46604000D03*
X47525000Y-46604000D03*
M02*
